<svg width="10" height="11" viewBox="0 0 10 11" fill="none" xmlns="http://www.w3.org/2000/svg">
<g filter="url(#filter0_b_365_195)">
<g clip-path="url(#clip0_365_195)">
<path d="M4.99997 8.35012C4.82075 8.35012 4.64155 8.28169 4.50492 8.14512L0.205141 3.8453C-0.0683805 3.57178 -0.0683805 3.12831 0.205141 2.8549C0.478552 2.58149 0.921933 2.58149 1.19548 2.8549L4.99997 6.65962L8.80449 2.85503C9.07801 2.58162 9.52135 2.58162 9.79474 2.85503C10.0684 3.12844 10.0684 3.57191 9.79474 3.84543L5.49503 8.14525C5.35832 8.28185 5.17913 8.35012 4.99997 8.35012Z" fill="white"/>
</g>
</g>
<defs>
<filter id="filter0_b_365_195" x="-25" y="-24.5" width="60" height="60" filterUnits="userSpaceOnUse" color-interpolation-filters="sRGB">
<feFlood flood-opacity="0" result="BackgroundImageFix"/>
<feGaussianBlur in="BackgroundImageFix" stdDeviation="12.5"/>
<feComposite in2="SourceAlpha" operator="in" result="effect1_backgroundBlur_365_195"/>
<feBlend mode="normal" in="SourceGraphic" in2="effect1_backgroundBlur_365_195" result="shape"/>
</filter>
<clipPath id="clip0_365_195">
<path d="M0 5.5C0 2.73858 2.23857 0.5 4.99999 0.5V0.5C7.76141 0.5 9.99998 2.73858 9.99998 5.5V5.5C9.99998 8.26142 7.76141 10.5 4.99999 10.5V10.5C2.23857 10.5 0 8.26142 0 5.5V5.5Z" fill="white"/>
</clipPath>
</defs>
</svg>
