<svg width="24" height="24" viewBox="0 0 24 24" fill="none" xmlns="http://www.w3.org/2000/svg">
<path d="M0.75 6.26306H12.9615C13.2984 7.62403 14.5295 8.6362 15.9931 8.6362C17.4567 8.6362 18.6878 7.62403 19.0246 6.26306H23.25C23.6642 6.26306 24 5.92725 24 5.51306C24 5.09888 23.6642 4.76306 23.25 4.76306H19.0246C18.6878 3.4021 17.4567 2.38988 15.993 2.38988C14.5294 2.38988 13.2983 3.4021 12.9615 4.76306H0.75C0.335812 4.76306 0 5.09888 0 5.51306C0 5.92725 0.335812 6.26306 0.75 6.26306ZM15.9931 3.88988C16.8881 3.88988 17.6163 4.61803 17.6163 5.51302C17.6163 6.40805 16.8881 7.1362 15.9931 7.1362C15.0981 7.1362 14.3699 6.40805 14.3699 5.51302C14.3699 4.61803 15.0981 3.88988 15.9931 3.88988ZM0.75 12.75H4.97541C5.31225 14.111 6.54333 15.1231 8.00695 15.1231C9.47058 15.1231 10.7017 14.111 11.0385 12.75H23.25C23.6642 12.75 24 12.4142 24 12C24 11.5858 23.6642 11.25 23.25 11.25H11.0385C10.7016 9.88903 9.47053 8.87681 8.00691 8.87681C6.54328 8.87681 5.3122 9.88903 4.97536 11.25H0.75C0.335812 11.25 0 11.5858 0 12C0 12.4142 0.335766 12.75 0.75 12.75ZM8.00691 10.3768C8.90194 10.3768 9.63009 11.105 9.63009 12C9.63009 12.895 8.90194 13.6231 8.00691 13.6231C7.11187 13.6231 6.38372 12.895 6.38372 12C6.38372 11.105 7.11187 10.3768 8.00691 10.3768ZM23.25 17.7369H19.0246C18.6877 16.376 17.4567 15.3637 15.993 15.3637C14.5294 15.3637 13.2983 16.376 12.9615 17.7369H0.75C0.335812 17.7369 0 18.0727 0 18.4869C0 18.9011 0.335812 19.2369 0.75 19.2369H12.9615C13.2984 20.5979 14.5295 21.6101 15.9931 21.6101C17.4567 21.6101 18.6878 20.5979 19.0246 19.2369H23.25C23.6642 19.2369 24 18.9011 24 18.4869C24 18.0727 23.6642 17.7369 23.25 17.7369ZM15.9931 20.1101C15.0981 20.1101 14.3699 19.382 14.3699 18.4869C14.3699 17.5919 15.0981 16.8637 15.9931 16.8637C16.8881 16.8637 17.6163 17.5919 17.6163 18.4869C17.6163 19.382 16.8881 20.1101 15.9931 20.1101Z" fill="white"/>
</svg>
