<svg width="288" height="191" viewBox="0 0 288 191" fill="none" xmlns="http://www.w3.org/2000/svg">
<g clip-path="url(#clip0_309_1052)">
<g opacity="0.07">
<path d="M288 169.276H0V169.42H288V169.276Z" fill="#EBEBEB"/>
<path d="M259.142 178.56H240.065V178.704H259.142V178.56Z" fill="#EBEBEB"/>
<path d="M190.783 180.129H185.777V180.274H190.783V180.129Z" fill="#EBEBEB"/>
<path d="M239.489 173.205H228.436V173.35H239.489V173.205Z" fill="#EBEBEB"/>
<path d="M55.0944 174.175H30.2169V174.319H55.0944V174.175Z" fill="#EBEBEB"/>
<path d="M63.8726 174.175H60.2266V174.319H63.8726V174.175Z" fill="#EBEBEB"/>
<path d="M129.686 176.61H75.7267V176.754H129.686V176.61Z" fill="#EBEBEB"/>
<path d="M249.604 162.917V135.901H247.3V123.028H243.924V78.2697H239.051V72.4995L228.649 67.6353V61.8133H227.209V78.2697H225.193V123.028H223.171V99.4979H217.699V87.3691H216.167V123.028H212.008V109.457H209.272V105.989H202.931V94.1548H199.457V85.7766H195.189V73.5786H193.663V85.7766H189.395V94.1548H185.921V105.989H179.579V109.457H176.843V123.028H173.595V105.989H167.253V69.3202H165.237V65.2754H151.69V69.3202H148.804V95.8858H137.278V98.4823H132.952V100.508H137.278V110.9H125.171V76.2501H122.579V68.8875H116.957V42.7546H115.367V68.8875H111.335V76.2501H87.6787V73.8267H86.2329V90.283H84.2169V90.5773H83.0073V107.034H80.9856V111.511H76.7232V99.3825H75.1968V128.256H73.4918V116.127H71.9654V135.042H71.0323V121.47H68.2963V118.008H61.9545V106.168H58.4813V97.7957H54.2131V85.5919H52.6925V97.7957H48.4185V106.168H44.951V118.008H38.6093V121.47H35.8675V134.753H35.3779V135.042H34.0243V162.917H249.604Z" fill="#E6E6E6"/>
<path d="M102.511 77.8713H100.875V79.5101H102.511V77.8713Z" fill="white"/>
<path d="M102.511 80.6123H100.875V82.251H102.511V80.6123Z" fill="white"/>
<path d="M102.511 91.5869H100.875V93.2256H102.511V91.5869Z" fill="white"/>
<path d="M102.511 94.3279H100.875V95.9666H102.511V94.3279Z" fill="white"/>
<path d="M102.511 97.0745H100.875V98.7132H102.511V97.0745Z" fill="white"/>
<path d="M102.511 105.302H100.875V106.941H102.511V105.302Z" fill="white"/>
<path d="M102.511 108.043H100.875V109.682H102.511V108.043Z" fill="white"/>
<path d="M105.108 88.8403H103.473V90.479H105.108V88.8403Z" fill="white"/>
<path d="M105.108 91.5869H103.473V93.2256H105.108V91.5869Z" fill="white"/>
<path d="M105.108 94.3279H103.473V95.9666H105.108V94.3279Z" fill="white"/>
<path d="M105.108 97.0745H103.473V98.7132H105.108V97.0745Z" fill="white"/>
<path d="M105.108 99.8152H103.473V101.454H105.108V99.8152Z" fill="white"/>
<path d="M105.108 105.302H103.473V106.941H105.108V105.302Z" fill="white"/>
<path d="M105.108 108.043H103.473V109.682H105.108V108.043Z" fill="white"/>
<path d="M107.701 77.8713H106.065V79.5101H107.701V77.8713Z" fill="white"/>
<path d="M107.701 80.6123H106.065V82.251H107.701V80.6123Z" fill="white"/>
<path d="M107.701 83.353H106.065V84.9917H107.701V83.353Z" fill="white"/>
<path d="M107.701 86.0996H106.065V87.7383H107.701V86.0996Z" fill="white"/>
<path d="M107.701 88.8403H106.065V90.479H107.701V88.8403Z" fill="white"/>
<path d="M107.701 91.5869H106.065V93.2256H107.701V91.5869Z" fill="white"/>
<path d="M107.701 94.3279H106.065V95.9666H107.701V94.3279Z" fill="white"/>
<path d="M107.701 97.0745H106.065V98.7132H107.701V97.0745Z" fill="white"/>
<path d="M107.701 99.8152H106.065V101.454H107.701V99.8152Z" fill="white"/>
<path d="M107.701 102.556H106.065V104.195H107.701V102.556Z" fill="white"/>
<path d="M107.701 108.043H106.065V109.682H107.701V108.043Z" fill="white"/>
<path d="M110.292 77.8713H108.657V79.5101H110.292V77.8713Z" fill="white"/>
<path d="M110.292 80.6123H108.657V82.251H110.292V80.6123Z" fill="white"/>
<path d="M110.292 83.353H108.657V84.9917H110.292V83.353Z" fill="white"/>
<path d="M110.292 86.0996H108.657V87.7383H110.292V86.0996Z" fill="white"/>
<path d="M110.292 88.8403H108.657V90.479H110.292V88.8403Z" fill="white"/>
<path d="M110.292 91.5869H108.657V93.2256H110.292V91.5869Z" fill="white"/>
<path d="M110.292 94.3279H108.657V95.9666H110.292V94.3279Z" fill="white"/>
<path d="M110.292 119.018H108.657V120.657H110.292V119.018Z" fill="white"/>
<path d="M112.89 77.8713H111.254V79.5101H112.89V77.8713Z" fill="white"/>
<path d="M112.89 80.6123H111.254V82.251H112.89V80.6123Z" fill="white"/>
<path d="M112.89 83.353H111.254V84.9917H112.89V83.353Z" fill="white"/>
<path d="M112.89 86.0996H111.254V87.7383H112.89V86.0996Z" fill="white"/>
<path d="M112.89 88.8403H111.254V90.479H112.89V88.8403Z" fill="white"/>
<path d="M112.89 91.5869H111.254V93.2256H112.89V91.5869Z" fill="white"/>
<path d="M112.89 94.3279H111.254V95.9666H112.89V94.3279Z" fill="white"/>
<path d="M112.89 97.0745H111.254V98.7132H112.89V97.0745Z" fill="white"/>
<path d="M112.89 113.531H111.254V115.169H112.89V113.531Z" fill="white"/>
<path d="M112.89 116.271H111.254V117.91H112.89V116.271Z" fill="white"/>
<path d="M112.89 119.018H111.254V120.657H112.89V119.018Z" fill="white"/>
<path d="M112.89 121.759H111.254V123.397H112.89V121.759Z" fill="white"/>
<path d="M112.89 132.734H111.254V134.372H112.89V132.734Z" fill="white"/>
<path d="M115.482 77.8713H113.846V79.5101H115.482V77.8713Z" fill="white"/>
<path d="M115.482 80.6123H113.846V82.251H115.482V80.6123Z" fill="white"/>
<path d="M115.482 83.353H113.846V84.9917H115.482V83.353Z" fill="white"/>
<path d="M115.482 86.0996H113.846V87.7383H115.482V86.0996Z" fill="white"/>
<path d="M115.482 88.8403H113.846V90.479H115.482V88.8403Z" fill="white"/>
<path d="M115.482 91.5869H113.846V93.2256H115.482V91.5869Z" fill="white"/>
<path d="M115.482 94.3279H113.846V95.9666H115.482V94.3279Z" fill="white"/>
<path d="M115.482 97.0745H113.846V98.7132H115.482V97.0745Z" fill="white"/>
<path d="M115.482 99.8152H113.846V101.454H115.482V99.8152Z" fill="white"/>
<path d="M115.482 102.556H113.846V104.195H115.482V102.556Z" fill="white"/>
<path d="M115.482 110.79H113.846V112.429H115.482V110.79Z" fill="white"/>
<path d="M115.482 113.531H113.846V115.169H115.482V113.531Z" fill="white"/>
<path d="M115.482 116.271H113.846V117.91H115.482V116.271Z" fill="white"/>
<path d="M115.482 119.018H113.846V120.657H115.482V119.018Z" fill="white"/>
<path d="M115.482 121.759H113.846V123.397H115.482V121.759Z" fill="white"/>
<path d="M115.482 132.734H113.846V134.372H115.482V132.734Z" fill="white"/>
<path d="M118.08 77.8713H116.444V79.5101H118.08V77.8713Z" fill="white"/>
<path d="M118.08 80.6123H116.444V82.251H118.08V80.6123Z" fill="white"/>
<path d="M118.08 83.353H116.444V84.9917H118.08V83.353Z" fill="white"/>
<path d="M118.08 86.0996H116.444V87.7383H118.08V86.0996Z" fill="white"/>
<path d="M118.08 88.8403H116.444V90.479H118.08V88.8403Z" fill="white"/>
<path d="M118.08 91.5869H116.444V93.2256H118.08V91.5869Z" fill="white"/>
<path d="M118.08 94.3279H116.444V95.9666H118.08V94.3279Z" fill="white"/>
<path d="M118.08 97.0745H116.444V98.7132H118.08V97.0745Z" fill="white"/>
<path d="M118.08 99.8152H116.444V101.454H118.08V99.8152Z" fill="white"/>
<path d="M118.08 102.556H116.444V104.195H118.08V102.556Z" fill="white"/>
<path d="M118.08 105.302H116.444V106.941H118.08V105.302Z" fill="white"/>
<path d="M118.08 108.043H116.444V109.682H118.08V108.043Z" fill="white"/>
<path d="M118.08 110.79H116.444V112.429H118.08V110.79Z" fill="white"/>
<path d="M118.08 113.531H116.444V115.169H118.08V113.531Z" fill="white"/>
<path d="M118.08 116.271H116.444V117.91H118.08V116.271Z" fill="white"/>
<path d="M118.08 119.018H116.444V120.657H118.08V119.018Z" fill="white"/>
<path d="M118.08 121.759H116.444V123.397H118.08V121.759Z" fill="white"/>
<path d="M118.08 124.505H116.444V126.144H118.08V124.505Z" fill="white"/>
<path d="M120.672 77.8713H119.036V79.5101H120.672V77.8713Z" fill="white"/>
<path d="M120.672 80.6123H119.036V82.251H120.672V80.6123Z" fill="white"/>
<path d="M120.672 83.353H119.036V84.9917H120.672V83.353Z" fill="white"/>
<path d="M120.672 86.0996H119.036V87.7383H120.672V86.0996Z" fill="white"/>
<path d="M120.672 88.8403H119.036V90.479H120.672V88.8403Z" fill="white"/>
<path d="M120.672 91.5869H119.036V93.2256H120.672V91.5869Z" fill="white"/>
<path d="M120.672 94.3279H119.036V95.9666H120.672V94.3279Z" fill="white"/>
<path d="M120.672 97.0745H119.036V98.7132H120.672V97.0745Z" fill="white"/>
<path d="M120.672 99.8152H119.036V101.454H120.672V99.8152Z" fill="white"/>
<path d="M120.672 102.556H119.036V104.195H120.672V102.556Z" fill="white"/>
<path d="M120.672 110.79H119.036V112.429H120.672V110.79Z" fill="white"/>
<path d="M120.672 113.531H119.036V115.169H120.672V113.531Z" fill="white"/>
<path d="M120.672 116.271H119.036V117.91H120.672V116.271Z" fill="white"/>
<path d="M120.672 119.018H119.036V120.657H120.672V119.018Z" fill="white"/>
<path d="M123.264 77.8713H121.628V79.5101H123.264V77.8713Z" fill="white"/>
<path d="M123.264 80.6123H121.628V82.251H123.264V80.6123Z" fill="white"/>
<path d="M123.264 83.353H121.628V84.9917H123.264V83.353Z" fill="white"/>
<path d="M123.264 86.0996H121.628V87.7383H123.264V86.0996Z" fill="white"/>
<path d="M123.264 88.8403H121.628V90.479H123.264V88.8403Z" fill="white"/>
<path d="M123.264 91.5869H121.628V93.2256H123.264V91.5869Z" fill="white"/>
<path d="M123.264 94.3279H121.628V95.9666H123.264V94.3279Z" fill="white"/>
<path d="M123.264 97.0745H121.628V98.7132H123.264V97.0745Z" fill="white"/>
<path d="M123.264 99.8152H121.628V101.454H123.264V99.8152Z" fill="white"/>
<path d="M123.264 102.556H121.628V104.195H123.264V102.556Z" fill="white"/>
<path d="M123.264 110.79H121.628V112.429H123.264V110.79Z" fill="white"/>
<path d="M123.264 113.531H121.628V115.169H123.264V113.531Z" fill="white"/>
<path d="M123.264 116.271H121.628V117.91H123.264V116.271Z" fill="white"/>
<path d="M152.473 70.7454H150.837V72.3841H152.473V70.7454Z" fill="white"/>
<path d="M152.473 73.4919H150.837V75.1307H152.473V73.4919Z" fill="white"/>
<path d="M152.473 76.2327H150.837V77.8714H152.473V76.2327Z" fill="white"/>
<path d="M152.473 78.9792H150.837V80.618H152.473V78.9792Z" fill="white"/>
<path d="M152.473 81.7202H150.837V83.3589H152.473V81.7202Z" fill="white"/>
<path d="M152.473 84.4609H150.837V86.0996H152.473V84.4609Z" fill="white"/>
<path d="M152.473 87.2075H150.837V88.8462H152.473V87.2075Z" fill="white"/>
<path d="M152.473 89.9482H150.837V91.587H152.473V89.9482Z" fill="white"/>
<path d="M152.473 98.1765H150.837V99.8152H152.473V98.1765Z" fill="white"/>
<path d="M152.473 100.923H150.837V102.562H152.473V100.923Z" fill="white"/>
<path d="M155.071 70.7454H153.435V72.3841H155.071V70.7454Z" fill="white"/>
<path d="M155.071 73.4919H153.435V75.1307H155.071V73.4919Z" fill="white"/>
<path d="M155.071 76.2327H153.435V77.8714H155.071V76.2327Z" fill="white"/>
<path d="M155.071 78.9792H153.435V80.618H155.071V78.9792Z" fill="white"/>
<path d="M155.071 81.7202H153.435V83.3589H155.071V81.7202Z" fill="white"/>
<path d="M155.071 84.4609H153.435V86.0996H155.071V84.4609Z" fill="white"/>
<path d="M155.071 87.2075H153.435V88.8462H155.071V87.2075Z" fill="white"/>
<path d="M155.071 89.9482H153.435V91.587H155.071V89.9482Z" fill="white"/>
<path d="M155.071 100.923H153.435V102.562H155.071V100.923Z" fill="white"/>
<path d="M157.663 70.7454H156.027V72.3841H157.663V70.7454Z" fill="white"/>
<path d="M157.663 73.4919H156.027V75.1307H157.663V73.4919Z" fill="white"/>
<path d="M157.663 76.2327H156.027V77.8714H157.663V76.2327Z" fill="white"/>
<path d="M157.663 78.9792H156.027V80.618H157.663V78.9792Z" fill="white"/>
<path d="M157.663 81.7202H156.027V83.3589H157.663V81.7202Z" fill="white"/>
<path d="M157.663 84.4609H156.027V86.0996H157.663V84.4609Z" fill="white"/>
<path d="M157.663 87.2075H156.027V88.8462H157.663V87.2075Z" fill="white"/>
<path d="M157.663 89.9482H156.027V91.587H157.663V89.9482Z" fill="white"/>
<path d="M160.255 70.7454H158.619V72.3841H160.255V70.7454Z" fill="white"/>
<path d="M160.255 73.4919H158.619V75.1307H160.255V73.4919Z" fill="white"/>
<path d="M160.255 76.2327H158.619V77.8714H160.255V76.2327Z" fill="white"/>
<path d="M160.255 78.9792H158.619V80.618H160.255V78.9792Z" fill="white"/>
<path d="M160.255 81.7202H158.619V83.3589H160.255V81.7202Z" fill="white"/>
<path d="M160.255 84.4609H158.619V86.0996H160.255V84.4609Z" fill="white"/>
<path d="M160.255 89.9482H158.619V91.587H160.255V89.9482Z" fill="white"/>
<path d="M160.255 92.6948H158.619V94.3335H160.255V92.6948Z" fill="white"/>
<path d="M160.255 100.923H158.619V102.562H160.255V100.923Z" fill="white"/>
<path d="M160.255 103.664H158.619V105.303H160.255V103.664Z" fill="white"/>
<path d="M160.255 106.41H158.619V108.049H160.255V106.41Z" fill="white"/>
<path d="M160.255 109.151H158.619V110.79H160.255V109.151Z" fill="white"/>
<path d="M160.255 111.892H158.619V113.531H160.255V111.892Z" fill="white"/>
<path d="M160.255 114.639H158.619V116.277H160.255V114.639Z" fill="white"/>
<path d="M160.255 117.379H158.619V119.018H160.255V117.379Z" fill="white"/>
<path d="M162.853 70.7454H161.217V72.3841H162.853V70.7454Z" fill="white"/>
<path d="M162.853 73.4919H161.217V75.1307H162.853V73.4919Z" fill="white"/>
<path d="M162.853 76.2327H161.217V77.8714H162.853V76.2327Z" fill="white"/>
<path d="M162.853 78.9792H161.217V80.618H162.853V78.9792Z" fill="white"/>
<path d="M162.853 81.7202H161.217V83.3589H162.853V81.7202Z" fill="white"/>
<path d="M162.853 84.4609H161.217V86.0996H162.853V84.4609Z" fill="white"/>
<path d="M162.853 92.6948H161.217V94.3335H162.853V92.6948Z" fill="white"/>
<path d="M162.853 95.4355H161.217V97.0743H162.853V95.4355Z" fill="white"/>
<path d="M162.853 98.1765H161.217V99.8152H162.853V98.1765Z" fill="white"/>
<path d="M162.853 100.923H161.217V102.562H162.853V100.923Z" fill="white"/>
<path d="M162.853 103.664H161.217V105.303H162.853V103.664Z" fill="white"/>
<path d="M162.853 106.41H161.217V108.049H162.853V106.41Z" fill="white"/>
<path d="M162.853 109.151H161.217V110.79H162.853V109.151Z" fill="white"/>
<path d="M162.853 111.892H161.217V113.531H162.853V111.892Z" fill="white"/>
<path d="M162.853 114.639H161.217V116.277H162.853V114.639Z" fill="white"/>
<path d="M162.853 117.379H161.217V119.018H162.853V117.379Z" fill="white"/>
<path d="M162.853 120.126H161.217V121.765H162.853V120.126Z" fill="white"/>
<path d="M162.853 125.608H161.217V127.246H162.853V125.608Z" fill="white"/>
<path d="M165.444 70.7454H163.809V72.3841H165.444V70.7454Z" fill="white"/>
<path d="M165.444 73.4919H163.809V75.1307H165.444V73.4919Z" fill="white"/>
<path d="M165.444 76.2327H163.809V77.8714H165.444V76.2327Z" fill="white"/>
<path d="M165.444 78.9792H163.809V80.618H165.444V78.9792Z" fill="white"/>
<path d="M165.444 81.7202H163.809V83.3589H165.444V81.7202Z" fill="white"/>
<path d="M165.444 84.4609H163.809V86.0996H165.444V84.4609Z" fill="white"/>
<path d="M165.444 92.6948H163.809V94.3335H165.444V92.6948Z" fill="white"/>
<path d="M165.444 95.4355H163.809V97.0743H165.444V95.4355Z" fill="white"/>
<path d="M165.444 98.1765H163.809V99.8152H165.444V98.1765Z" fill="white"/>
<path d="M165.444 100.923H163.809V102.562H165.444V100.923Z" fill="white"/>
<path d="M165.444 109.151H163.809V110.79H165.444V109.151Z" fill="white"/>
<path d="M165.444 111.892H163.809V113.531H165.444V111.892Z" fill="white"/>
<path d="M165.444 114.639H163.809V116.277H165.444V114.639Z" fill="white"/>
<path d="M165.444 117.379H163.809V119.018H165.444V117.379Z" fill="white"/>
<path d="M165.444 120.126H163.809V121.765H165.444V120.126Z" fill="white"/>
<path d="M165.444 125.608H163.809V127.246H165.444V125.608Z" fill="white"/>
<path d="M165.444 128.354H163.809V129.993H165.444V128.354Z" fill="white"/>
<path d="M188.986 96.2551H187.35V97.8938H188.986V96.2551Z" fill="white"/>
<path d="M188.986 98.9958H187.35V100.635H188.986V98.9958Z" fill="white"/>
<path d="M188.986 101.742H187.35V103.381H188.986V101.742Z" fill="white"/>
<path d="M188.986 104.483H187.35V106.122H188.986V104.483Z" fill="white"/>
<path d="M188.986 107.224H187.35V108.863H188.986V107.224Z" fill="white"/>
<path d="M188.986 109.97H187.35V111.609H188.986V109.97Z" fill="white"/>
<path d="M188.986 112.711H187.35V114.35H188.986V112.711Z" fill="white"/>
<path d="M188.986 120.939H187.35V122.578H188.986V120.939Z" fill="white"/>
<path d="M188.986 123.686H187.35V125.325H188.986V123.686Z" fill="white"/>
<path d="M188.986 126.427H187.35V128.066H188.986V126.427Z" fill="white"/>
<path d="M191.578 96.2551H189.942V97.8938H191.578V96.2551Z" fill="white"/>
<path d="M191.578 98.9958H189.942V100.635H191.578V98.9958Z" fill="white"/>
<path d="M191.578 101.742H189.942V103.381H191.578V101.742Z" fill="white"/>
<path d="M191.578 104.483H189.942V106.122H191.578V104.483Z" fill="white"/>
<path d="M191.578 107.224H189.942V108.863H191.578V107.224Z" fill="white"/>
<path d="M191.578 109.97H189.942V111.609H191.578V109.97Z" fill="white"/>
<path d="M191.578 112.711H189.942V114.35H191.578V112.711Z" fill="white"/>
<path d="M194.175 96.2551H192.54V97.8938H194.175V96.2551Z" fill="white"/>
<path d="M194.175 98.9958H192.54V100.635H194.175V98.9958Z" fill="white"/>
<path d="M194.175 101.742H192.54V103.381H194.175V101.742Z" fill="white"/>
<path d="M194.175 104.483H192.54V106.122H194.175V104.483Z" fill="white"/>
<path d="M194.175 107.224H192.54V108.863H194.175V107.224Z" fill="white"/>
<path d="M194.175 109.97H192.54V111.609H194.175V109.97Z" fill="white"/>
<path d="M194.175 112.711H192.54V114.35H194.175V112.711Z" fill="white"/>
<path d="M196.767 96.2551H195.131V97.8938H196.767V96.2551Z" fill="white"/>
<path d="M196.767 98.9958H195.131V100.635H196.767V98.9958Z" fill="white"/>
<path d="M196.767 101.742H195.131V103.381H196.767V101.742Z" fill="white"/>
<path d="M196.767 104.483H195.131V106.122H196.767V104.483Z" fill="white"/>
<path d="M196.767 107.224H195.131V108.863H196.767V107.224Z" fill="white"/>
<path d="M196.767 109.97H195.131V111.609H196.767V109.97Z" fill="white"/>
<path d="M196.767 112.711H195.131V114.35H196.767V112.711Z" fill="white"/>
<path d="M196.767 115.458H195.131V117.097H196.767V115.458Z" fill="white"/>
<path d="M196.767 118.199H195.131V119.837H196.767V118.199Z" fill="white"/>
<path d="M196.767 120.939H195.131V122.578H196.767V120.939Z" fill="white"/>
<path d="M196.767 123.686H195.131V125.325H196.767V123.686Z" fill="white"/>
<path d="M199.365 96.2551H197.729V97.8938H199.365V96.2551Z" fill="white"/>
<path d="M199.365 98.9958H197.729V100.635H199.365V98.9958Z" fill="white"/>
<path d="M199.365 101.742H197.729V103.381H199.365V101.742Z" fill="white"/>
<path d="M199.365 104.483H197.729V106.122H199.365V104.483Z" fill="white"/>
<path d="M199.365 107.224H197.729V108.863H199.365V107.224Z" fill="white"/>
<path d="M199.365 109.97H197.729V111.609H199.365V109.97Z" fill="white"/>
<path d="M199.365 112.711H197.729V114.35H199.365V112.711Z" fill="white"/>
<path d="M199.365 115.458H197.729V117.097H199.365V115.458Z" fill="white"/>
<path d="M199.365 118.199H197.729V119.837H199.365V118.199Z" fill="white"/>
<path d="M199.365 120.939H197.729V122.578H199.365V120.939Z" fill="white"/>
<path d="M199.365 123.686H197.729V125.325H199.365V123.686Z" fill="white"/>
<path d="M199.365 126.427H197.729V128.066H199.365V126.427Z" fill="white"/>
<path d="M199.365 134.655H197.729V136.294H199.365V134.655Z" fill="white"/>
<path d="M199.365 137.402H197.729V139.04H199.365V137.402Z" fill="white"/>
<path d="M201.957 96.2551H200.321V97.8938H201.957V96.2551Z" fill="white"/>
<path d="M201.957 98.9958H200.321V100.635H201.957V98.9958Z" fill="white"/>
<path d="M201.957 101.742H200.321V103.381H201.957V101.742Z" fill="white"/>
<path d="M201.957 109.97H200.321V111.609H201.957V109.97Z" fill="white"/>
<path d="M201.957 112.711H200.321V114.35H201.957V112.711Z" fill="white"/>
<path d="M201.957 115.458H200.321V117.097H201.957V115.458Z" fill="white"/>
<path d="M201.957 118.199H200.321V119.837H201.957V118.199Z" fill="white"/>
<path d="M201.957 120.939H200.321V122.578H201.957V120.939Z" fill="white"/>
<path d="M201.957 123.686H200.321V125.325H201.957V123.686Z" fill="white"/>
<path d="M201.957 126.427H200.321V128.066H201.957V126.427Z" fill="white"/>
<path d="M201.957 134.655H200.321V136.294H201.957V134.655Z" fill="white"/>
<path d="M201.957 137.402H200.321V139.04H201.957V137.402Z" fill="white"/>
<path d="M201.957 140.142H200.321V141.781H201.957V140.142Z" fill="white"/>
<path d="M229.15 79.793H227.514V81.4317H229.15V79.793Z" fill="white"/>
<path d="M229.15 82.5396H227.514V84.1783H229.15V82.5396Z" fill="white"/>
<path d="M229.15 85.2803H227.514V86.919H229.15V85.2803Z" fill="white"/>
<path d="M229.15 88.0269H227.514V89.6656H229.15V88.0269Z" fill="white"/>
<path d="M229.15 90.7676H227.514V92.4063H229.15V90.7676Z" fill="white"/>
<path d="M229.15 93.5085H227.514V95.1473H229.15V93.5085Z" fill="white"/>
<path d="M229.15 96.2551H227.514V97.8938H229.15V96.2551Z" fill="white"/>
<path d="M229.15 98.9958H227.514V100.635H229.15V98.9958Z" fill="white"/>
<path d="M229.15 101.742H227.514V103.381H229.15V101.742Z" fill="white"/>
<path d="M229.15 104.483H227.514V106.122H229.15V104.483Z" fill="white"/>
<path d="M229.15 107.224H227.514V108.863H229.15V107.224Z" fill="white"/>
<path d="M229.15 109.97H227.514V111.609H229.15V109.97Z" fill="white"/>
<path d="M229.15 112.711H227.514V114.35H229.15V112.711Z" fill="white"/>
<path d="M229.15 115.458H227.514V117.097H229.15V115.458Z" fill="white"/>
<path d="M229.15 118.199H227.514V119.837H229.15V118.199Z" fill="white"/>
<path d="M229.15 120.939H227.514V122.578H229.15V120.939Z" fill="white"/>
<path d="M229.15 123.686H227.514V125.325H229.15V123.686Z" fill="white"/>
<path d="M229.15 126.427H227.514V128.066H229.15V126.427Z" fill="white"/>
<path d="M229.15 129.174H227.514V130.812H229.15V129.174Z" fill="white"/>
<path d="M229.15 131.914H227.514V133.553H229.15V131.914Z" fill="white"/>
<path d="M229.15 134.655H227.514V136.294H229.15V134.655Z" fill="white"/>
<path d="M229.15 137.402H227.514V139.04H229.15V137.402Z" fill="white"/>
<path d="M229.15 140.142H227.514V141.781H229.15V140.142Z" fill="white"/>
<path d="M231.742 79.793H230.106V81.4317H231.742V79.793Z" fill="white"/>
<path d="M231.742 82.5396H230.106V84.1783H231.742V82.5396Z" fill="white"/>
<path d="M231.742 85.2803H230.106V86.919H231.742V85.2803Z" fill="white"/>
<path d="M231.742 88.0269H230.106V89.6656H231.742V88.0269Z" fill="white"/>
<path d="M231.742 90.7676H230.106V92.4063H231.742V90.7676Z" fill="white"/>
<path d="M231.742 93.5085H230.106V95.1473H231.742V93.5085Z" fill="white"/>
<path d="M231.742 96.2551H230.106V97.8938H231.742V96.2551Z" fill="white"/>
<path d="M231.742 98.9958H230.106V100.635H231.742V98.9958Z" fill="white"/>
<path d="M231.742 101.742H230.106V103.381H231.742V101.742Z" fill="white"/>
<path d="M231.742 104.483H230.106V106.122H231.742V104.483Z" fill="white"/>
<path d="M231.742 107.224H230.106V108.863H231.742V107.224Z" fill="white"/>
<path d="M231.742 109.97H230.106V111.609H231.742V109.97Z" fill="white"/>
<path d="M231.742 112.711H230.106V114.35H231.742V112.711Z" fill="white"/>
<path d="M231.742 115.458H230.106V117.097H231.742V115.458Z" fill="white"/>
<path d="M231.742 118.199H230.106V119.837H231.742V118.199Z" fill="white"/>
<path d="M231.742 120.939H230.106V122.578H231.742V120.939Z" fill="white"/>
<path d="M231.742 123.686H230.106V125.325H231.742V123.686Z" fill="white"/>
<path d="M231.742 126.427H230.106V128.066H231.742V126.427Z" fill="white"/>
<path d="M231.742 129.174H230.106V130.812H231.742V129.174Z" fill="white"/>
<path d="M234.334 79.793H232.698V81.4317H234.334V79.793Z" fill="white"/>
<path d="M234.334 82.5396H232.698V84.1783H234.334V82.5396Z" fill="white"/>
<path d="M234.334 85.2803H232.698V86.919H234.334V85.2803Z" fill="white"/>
<path d="M234.334 88.0269H232.698V89.6656H234.334V88.0269Z" fill="white"/>
<path d="M234.334 90.7676H232.698V92.4063H234.334V90.7676Z" fill="white"/>
<path d="M234.334 93.5085H232.698V95.1473H234.334V93.5085Z" fill="white"/>
<path d="M234.334 96.2551H232.698V97.8938H234.334V96.2551Z" fill="white"/>
<path d="M234.334 98.9958H232.698V100.635H234.334V98.9958Z" fill="white"/>
<path d="M234.334 101.742H232.698V103.381H234.334V101.742Z" fill="white"/>
<path d="M234.334 104.483H232.698V106.122H234.334V104.483Z" fill="white"/>
<path d="M234.334 107.224H232.698V108.863H234.334V107.224Z" fill="white"/>
<path d="M234.334 109.97H232.698V111.609H234.334V109.97Z" fill="white"/>
<path d="M234.334 112.711H232.698V114.35H234.334V112.711Z" fill="white"/>
<path d="M234.334 115.458H232.698V117.097H234.334V115.458Z" fill="white"/>
<path d="M234.334 118.199H232.698V119.837H234.334V118.199Z" fill="white"/>
<path d="M234.334 120.939H232.698V122.578H234.334V120.939Z" fill="white"/>
<path d="M234.334 123.686H232.698V125.325H234.334V123.686Z" fill="white"/>
<path d="M234.334 126.427H232.698V128.066H234.334V126.427Z" fill="white"/>
<path d="M234.334 129.174H232.698V130.812H234.334V129.174Z" fill="white"/>
<path d="M236.932 79.793H235.296V81.4317H236.932V79.793Z" fill="white"/>
<path d="M236.932 82.5396H235.296V84.1783H236.932V82.5396Z" fill="white"/>
<path d="M236.932 85.2803H235.296V86.919H236.932V85.2803Z" fill="white"/>
<path d="M236.932 88.0269H235.296V89.6656H236.932V88.0269Z" fill="white"/>
<path d="M236.932 90.7676H235.296V92.4063H236.932V90.7676Z" fill="white"/>
<path d="M236.932 93.5085H235.296V95.1473H236.932V93.5085Z" fill="white"/>
<path d="M236.932 96.2551H235.296V97.8938H236.932V96.2551Z" fill="white"/>
<path d="M236.932 98.9958H235.296V100.635H236.932V98.9958Z" fill="white"/>
<path d="M236.932 101.742H235.296V103.381H236.932V101.742Z" fill="white"/>
<path d="M236.932 104.483H235.296V106.122H236.932V104.483Z" fill="white"/>
<path d="M236.932 107.224H235.296V108.863H236.932V107.224Z" fill="white"/>
<path d="M236.932 109.97H235.296V111.609H236.932V109.97Z" fill="white"/>
<path d="M236.932 112.711H235.296V114.35H236.932V112.711Z" fill="white"/>
<path d="M236.932 115.458H235.296V117.097H236.932V115.458Z" fill="white"/>
<path d="M236.932 118.199H235.296V119.837H236.932V118.199Z" fill="white"/>
<path d="M239.524 79.793H237.888V81.4317H239.524V79.793Z" fill="white"/>
<path d="M239.524 82.5396H237.888V84.1783H239.524V82.5396Z" fill="white"/>
<path d="M239.524 85.2803H237.888V86.919H239.524V85.2803Z" fill="white"/>
<path d="M239.524 88.0269H237.888V89.6656H239.524V88.0269Z" fill="white"/>
<path d="M239.524 90.7676H237.888V92.4063H239.524V90.7676Z" fill="white"/>
<path d="M239.524 93.5085H237.888V95.1473H239.524V93.5085Z" fill="white"/>
<path d="M239.524 96.2551H237.888V97.8938H239.524V96.2551Z" fill="white"/>
<path d="M239.524 98.9958H237.888V100.635H239.524V98.9958Z" fill="white"/>
<path d="M239.524 101.742H237.888V103.381H239.524V101.742Z" fill="white"/>
<path d="M239.524 104.483H237.888V106.122H239.524V104.483Z" fill="white"/>
<path d="M239.524 107.224H237.888V108.863H239.524V107.224Z" fill="white"/>
<path d="M239.524 109.97H237.888V111.609H239.524V109.97Z" fill="white"/>
<path d="M239.524 112.711H237.888V114.35H239.524V112.711Z" fill="white"/>
<path d="M242.122 79.793H240.486V81.4317H242.122V79.793Z" fill="white"/>
<path d="M242.122 82.5396H240.486V84.1783H242.122V82.5396Z" fill="white"/>
<path d="M242.122 85.2803H240.486V86.919H242.122V85.2803Z" fill="white"/>
<path d="M242.122 88.0269H240.486V89.6656H242.122V88.0269Z" fill="white"/>
<path d="M242.122 90.7676H240.486V92.4063H242.122V90.7676Z" fill="white"/>
<path d="M242.122 93.5085H240.486V95.1473H242.122V93.5085Z" fill="white"/>
<path d="M242.122 96.2551H240.486V97.8938H242.122V96.2551Z" fill="white"/>
<path d="M242.122 98.9958H240.486V100.635H242.122V98.9958Z" fill="white"/>
<path d="M242.122 101.742H240.486V103.381H242.122V101.742Z" fill="white"/>
<path d="M242.122 104.483H240.486V106.122H242.122V104.483Z" fill="white"/>
<path d="M242.122 107.224H240.486V108.863H242.122V107.224Z" fill="white"/>
<path d="M242.122 109.97H240.486V111.609H242.122V109.97Z" fill="white"/>
<path d="M51.4944 99.8152H49.8585V101.454H51.4944V99.8152Z" fill="white"/>
<path d="M51.4944 102.556H49.8585V104.195H51.4944V102.556Z" fill="white"/>
<path d="M51.4944 105.302H49.8585V106.941H51.4944V105.302Z" fill="white"/>
<path d="M51.4944 108.043H49.8585V109.682H51.4944V108.043Z" fill="white"/>
<path d="M51.4944 110.79H49.8585V112.429H51.4944V110.79Z" fill="white"/>
<path d="M51.4944 113.531H49.8585V115.169H51.4944V113.531Z" fill="white"/>
<path d="M51.4944 116.271H49.8585V117.91H51.4944V116.271Z" fill="white"/>
<path d="M51.4944 119.018H49.8585V120.657H51.4944V119.018Z" fill="white"/>
<path d="M51.4944 121.759H49.8585V123.397H51.4944V121.759Z" fill="white"/>
<path d="M51.4944 124.505H49.8585V126.144H51.4944V124.505Z" fill="white"/>
<path d="M51.4944 127.246H49.8585V128.885H51.4944V127.246Z" fill="white"/>
<path d="M51.4944 129.987H49.8585V131.626H51.4944V129.987Z" fill="white"/>
<path d="M51.4944 132.734H49.8585V134.372H51.4944V132.734Z" fill="white"/>
<path d="M51.4944 135.474H49.8585V137.113H51.4944V135.474Z" fill="white"/>
<path d="M51.4944 138.221H49.8585V139.86H51.4944V138.221Z" fill="white"/>
<path d="M51.4944 140.962H49.8585V142.601H51.4944V140.962Z" fill="white"/>
<path d="M51.4944 143.703H49.8585V145.341H51.4944V143.703Z" fill="white"/>
<path d="M51.4944 146.449H49.8585V148.088H51.4944V146.449Z" fill="white"/>
<path d="M51.4944 149.19H49.8585V150.829H51.4944V149.19Z" fill="white"/>
<path d="M51.4944 151.937H49.8585V153.575H51.4944V151.937Z" fill="white"/>
<path d="M54.0864 99.8152H52.4506V101.454H54.0864V99.8152Z" fill="white"/>
<path d="M54.0864 102.556H52.4506V104.195H54.0864V102.556Z" fill="white"/>
<path d="M54.0864 105.302H52.4506V106.941H54.0864V105.302Z" fill="white"/>
<path d="M54.0864 108.043H52.4506V109.682H54.0864V108.043Z" fill="white"/>
<path d="M54.0864 110.79H52.4506V112.429H54.0864V110.79Z" fill="white"/>
<path d="M54.0864 113.531H52.4506V115.169H54.0864V113.531Z" fill="white"/>
<path d="M54.0864 116.271H52.4506V117.91H54.0864V116.271Z" fill="white"/>
<path d="M54.0864 119.018H52.4506V120.657H54.0864V119.018Z" fill="white"/>
<path d="M54.0864 121.759H52.4506V123.397H54.0864V121.759Z" fill="white"/>
<path d="M54.0864 124.505H52.4506V126.144H54.0864V124.505Z" fill="white"/>
<path d="M54.0864 127.246H52.4506V128.885H54.0864V127.246Z" fill="white"/>
<path d="M54.0864 129.987H52.4506V131.626H54.0864V129.987Z" fill="white"/>
<path d="M54.0864 132.734H52.4506V134.372H54.0864V132.734Z" fill="white"/>
<path d="M54.0864 135.474H52.4506V137.113H54.0864V135.474Z" fill="white"/>
<path d="M54.0864 138.221H52.4506V139.86H54.0864V138.221Z" fill="white"/>
<path d="M54.0864 140.962H52.4506V142.601H54.0864V140.962Z" fill="white"/>
<path d="M54.0864 143.703H52.4506V145.341H54.0864V143.703Z" fill="white"/>
<path d="M54.0864 146.449H52.4506V148.088H54.0864V146.449Z" fill="white"/>
<path d="M56.6784 99.8152H55.0426V101.454H56.6784V99.8152Z" fill="white"/>
<path d="M56.6784 102.556H55.0426V104.195H56.6784V102.556Z" fill="white"/>
<path d="M56.6784 105.302H55.0426V106.941H56.6784V105.302Z" fill="white"/>
<path d="M56.6784 108.043H55.0426V109.682H56.6784V108.043Z" fill="white"/>
<path d="M56.6784 110.79H55.0426V112.429H56.6784V110.79Z" fill="white"/>
<path d="M56.6784 113.531H55.0426V115.169H56.6784V113.531Z" fill="white"/>
<path d="M56.6784 116.271H55.0426V117.91H56.6784V116.271Z" fill="white"/>
<path d="M56.6784 119.018H55.0426V120.657H56.6784V119.018Z" fill="white"/>
<path d="M56.6784 121.759H55.0426V123.397H56.6784V121.759Z" fill="white"/>
<path d="M56.6784 124.505H55.0426V126.144H56.6784V124.505Z" fill="white"/>
<path d="M56.6784 127.246H55.0426V128.885H56.6784V127.246Z" fill="white"/>
<path d="M56.6784 129.987H55.0426V131.626H56.6784V129.987Z" fill="white"/>
<path d="M56.6784 132.734H55.0426V134.372H56.6784V132.734Z" fill="white"/>
<path d="M56.6784 135.474H55.0426V137.113H56.6784V135.474Z" fill="white"/>
<path d="M56.6784 138.221H55.0426V139.86H56.6784V138.221Z" fill="white"/>
<path d="M56.6784 140.962H55.0426V142.601H56.6784V140.962Z" fill="white"/>
<path d="M56.6784 143.703H55.0426V145.341H56.6784V143.703Z" fill="white"/>
<path d="M56.6784 146.449H55.0426V148.088H56.6784V146.449Z" fill="white"/>
<path d="M41.7888 119.837H40.153V121.476H41.7888V119.837Z" fill="white"/>
<path d="M41.7888 122.578H40.153V124.217H41.7888V122.578Z" fill="white"/>
<path d="M41.7888 125.319H40.153V126.958H41.7888V125.319Z" fill="white"/>
<path d="M41.7888 128.066H40.153V129.704H41.7888V128.066Z" fill="white"/>
<path d="M41.7888 130.806H40.153V132.445H41.7888V130.806Z" fill="white"/>
<path d="M41.7888 133.553H40.153V135.192H41.7888V133.553Z" fill="white"/>
<path d="M41.7888 136.294H40.153V137.932H41.7888V136.294Z" fill="white"/>
<path d="M41.7888 139.035H40.153V140.673H41.7888V139.035Z" fill="white"/>
<path d="M41.7888 141.781H40.153V143.42H41.7888V141.781Z" fill="white"/>
<path d="M41.7888 144.522H40.153V146.161H41.7888V144.522Z" fill="white"/>
<path d="M41.7888 147.269H40.153V148.907H41.7888V147.269Z" fill="white"/>
<path d="M41.7888 150.009H40.153V151.648H41.7888V150.009Z" fill="white"/>
<path d="M41.7888 152.75H40.153V154.389H41.7888V152.75Z" fill="white"/>
<path d="M44.3808 119.837H42.745V121.476H44.3808V119.837Z" fill="white"/>
<path d="M44.3808 122.578H42.745V124.217H44.3808V122.578Z" fill="white"/>
<path d="M44.3808 125.319H42.745V126.958H44.3808V125.319Z" fill="white"/>
<path d="M44.3808 128.066H42.745V129.704H44.3808V128.066Z" fill="white"/>
<path d="M44.3808 130.806H42.745V132.445H44.3808V130.806Z" fill="white"/>
<path d="M44.3808 133.553H42.745V135.192H44.3808V133.553Z" fill="white"/>
<path d="M44.3808 136.294H42.745V137.932H44.3808V136.294Z" fill="white"/>
<path d="M44.3808 139.035H42.745V140.673H44.3808V139.035Z" fill="white"/>
<path d="M44.3808 141.781H42.745V143.42H44.3808V141.781Z" fill="white"/>
<path d="M44.3808 144.522H42.745V146.161H44.3808V144.522Z" fill="white"/>
<path d="M44.3808 147.269H42.745V148.907H44.3808V147.269Z" fill="white"/>
<path d="M44.3808 150.009H42.745V151.648H44.3808V150.009Z" fill="white"/>
<path d="M44.3808 152.75H42.745V154.389H44.3808V152.75Z" fill="white"/>
<path d="M46.9786 119.837H45.3428V121.476H46.9786V119.837Z" fill="white"/>
<path d="M46.9786 122.578H45.3428V124.217H46.9786V122.578Z" fill="white"/>
<path d="M46.9786 125.319H45.3428V126.958H46.9786V125.319Z" fill="white"/>
<path d="M46.9786 128.066H45.3428V129.704H46.9786V128.066Z" fill="white"/>
<path d="M46.9786 130.806H45.3428V132.445H46.9786V130.806Z" fill="white"/>
<path d="M46.9786 133.553H45.3428V135.192H46.9786V133.553Z" fill="white"/>
<path d="M46.9786 136.294H45.3428V137.932H46.9786V136.294Z" fill="white"/>
<path d="M46.9786 139.035H45.3428V140.673H46.9786V139.035Z" fill="white"/>
<path d="M46.9786 141.781H45.3428V143.42H46.9786V141.781Z" fill="white"/>
<path d="M46.9786 144.522H45.3428V146.161H46.9786V144.522Z" fill="white"/>
<path d="M46.9786 147.269H45.3428V148.907H46.9786V147.269Z" fill="white"/>
<path d="M46.9786 150.009H45.3428V151.648H46.9786V150.009Z" fill="white"/>
<path d="M46.9786 152.75H45.3428V154.389H46.9786V152.75Z" fill="white"/>
<path d="M46.9786 155.497H45.3428V157.136H46.9786V155.497Z" fill="white"/>
<path d="M61.3901 120.651H59.7543V122.29H61.3901V120.651Z" fill="white"/>
<path d="M61.3901 123.398H59.7543V125.036H61.3901V123.398Z" fill="white"/>
<path d="M61.3901 126.138H59.7543V127.777H61.3901V126.138Z" fill="white"/>
<path d="M61.3901 128.885H59.7543V130.524H61.3901V128.885Z" fill="white"/>
<path d="M61.3901 131.626H59.7543V133.264H61.3901V131.626Z" fill="white"/>
<path d="M61.3901 134.367H59.7543V136.005H61.3901V134.367Z" fill="white"/>
<path d="M61.3901 137.113H59.7543V138.752H61.3901V137.113Z" fill="white"/>
<path d="M61.3901 139.854H59.7543V141.493H61.3901V139.854Z" fill="white"/>
<path d="M61.3901 142.601H59.7543V144.239H61.3901V142.601Z" fill="white"/>
<path d="M61.3901 145.341H59.7543V146.98H61.3901V145.341Z" fill="white"/>
<path d="M61.3901 153.57H59.7543V155.208H61.3901V153.57Z" fill="white"/>
<path d="M63.982 120.651H62.3462V122.29H63.982V120.651Z" fill="white"/>
<path d="M63.982 123.398H62.3462V125.036H63.982V123.398Z" fill="white"/>
<path d="M63.982 126.138H62.3462V127.777H63.982V126.138Z" fill="white"/>
<path d="M63.982 128.885H62.3462V130.524H63.982V128.885Z" fill="white"/>
<path d="M63.982 131.626H62.3462V133.264H63.982V131.626Z" fill="white"/>
<path d="M63.982 134.367H62.3462V136.005H63.982V134.367Z" fill="white"/>
<path d="M63.982 137.113H62.3462V138.752H63.982V137.113Z" fill="white"/>
<path d="M63.982 139.854H62.3462V141.493H63.982V139.854Z" fill="white"/>
<path d="M63.982 142.601H62.3462V144.239H63.982V142.601Z" fill="white"/>
<path d="M63.982 150.829H62.3462V152.467H63.982V150.829Z" fill="white"/>
<path d="M63.982 153.57H62.3462V155.208H63.982V153.57Z" fill="white"/>
<path d="M66.5798 120.651H64.944V122.29H66.5798V120.651Z" fill="white"/>
<path d="M66.5798 123.398H64.944V125.036H66.5798V123.398Z" fill="white"/>
<path d="M66.5798 126.138H64.944V127.777H66.5798V126.138Z" fill="white"/>
<path d="M66.5798 128.885H64.944V130.524H66.5798V128.885Z" fill="white"/>
<path d="M66.5798 131.626H64.944V133.264H66.5798V131.626Z" fill="white"/>
<path d="M66.5798 134.367H64.944V136.005H66.5798V134.367Z" fill="white"/>
<path d="M66.5798 137.113H64.944V138.752H66.5798V137.113Z" fill="white"/>
<path d="M66.5798 139.854H64.944V141.493H66.5798V139.854Z" fill="white"/>
<path d="M66.5798 148.082H64.944V149.721H66.5798V148.082Z" fill="white"/>
<path d="M66.5798 150.829H64.944V152.467H66.5798V150.829Z" fill="white"/>
<path d="M66.5798 153.57H64.944V155.208H66.5798V153.57Z" fill="white"/>
<path d="M90.6911 78.9792H89.0553V80.618H90.6911V78.9792Z" fill="white"/>
<path d="M90.6911 81.7202H89.0553V83.3589H90.6911V81.7202Z" fill="white"/>
<path d="M90.6911 84.4609H89.0553V86.0996H90.6911V84.4609Z" fill="white"/>
<path d="M90.6911 87.2075H89.0553V88.8462H90.6911V87.2075Z" fill="white"/>
<path d="M90.6911 89.9482H89.0553V91.587H90.6911V89.9482Z" fill="white"/>
<path d="M90.6911 92.6948H89.0553V94.3335H90.6911V92.6948Z" fill="white"/>
<path d="M90.6911 95.4355H89.0553V97.0743H90.6911V95.4355Z" fill="white"/>
<path d="M90.6911 98.1765H89.0553V99.8152H90.6911V98.1765Z" fill="white"/>
<path d="M90.6911 100.923H89.0553V102.562H90.6911V100.923Z" fill="white"/>
<path d="M90.6911 103.664H89.0553V105.303H90.6911V103.664Z" fill="white"/>
<path d="M90.6911 106.41H89.0553V108.049H90.6911V106.41Z" fill="white"/>
<path d="M90.6911 109.151H89.0553V110.79H90.6911V109.151Z" fill="white"/>
<path d="M90.6911 111.892H89.0553V113.531H90.6911V111.892Z" fill="white"/>
<path d="M90.6911 114.639H89.0553V116.277H90.6911V114.639Z" fill="white"/>
<path d="M90.6911 117.379H89.0553V119.018H90.6911V117.379Z" fill="white"/>
<path d="M90.6911 120.126H89.0553V121.765H90.6911V120.126Z" fill="white"/>
<path d="M90.6911 122.867H89.0553V124.505H90.6911V122.867Z" fill="white"/>
<path d="M90.6911 128.354H89.0553V129.993H90.6911V128.354Z" fill="white"/>
<path d="M90.6911 131.095H89.0553V132.734H90.6911V131.095Z" fill="white"/>
<path d="M90.6911 133.842H89.0553V135.48H90.6911V133.842Z" fill="white"/>
<path d="M90.6911 136.582H89.0553V138.221H90.6911V136.582Z" fill="white"/>
<path d="M90.6911 139.323H89.0553V140.962H90.6911V139.323Z" fill="white"/>
<path d="M93.2889 78.9792H91.6531V80.618H93.2889V78.9792Z" fill="white"/>
<path d="M93.2889 81.7202H91.6531V83.3589H93.2889V81.7202Z" fill="white"/>
<path d="M93.2889 84.4609H91.6531V86.0996H93.2889V84.4609Z" fill="white"/>
<path d="M93.2889 87.2075H91.6531V88.8462H93.2889V87.2075Z" fill="white"/>
<path d="M93.2889 89.9482H91.6531V91.587H93.2889V89.9482Z" fill="white"/>
<path d="M93.2889 92.6948H91.6531V94.3335H93.2889V92.6948Z" fill="white"/>
<path d="M93.2889 95.4355H91.6531V97.0743H93.2889V95.4355Z" fill="white"/>
<path d="M93.2889 98.1765H91.6531V99.8152H93.2889V98.1765Z" fill="white"/>
<path d="M93.2889 100.923H91.6531V102.562H93.2889V100.923Z" fill="white"/>
<path d="M93.2889 103.664H91.6531V105.303H93.2889V103.664Z" fill="white"/>
<path d="M93.2889 106.41H91.6531V108.049H93.2889V106.41Z" fill="white"/>
<path d="M93.2889 109.151H91.6531V110.79H93.2889V109.151Z" fill="white"/>
<path d="M93.2889 111.892H91.6531V113.531H93.2889V111.892Z" fill="white"/>
<path d="M93.2889 114.639H91.6531V116.277H93.2889V114.639Z" fill="white"/>
<path d="M93.2889 117.379H91.6531V119.018H93.2889V117.379Z" fill="white"/>
<path d="M93.2889 120.126H91.6531V121.765H93.2889V120.126Z" fill="white"/>
<path d="M93.2889 136.582H91.6531V138.221H93.2889V136.582Z" fill="white"/>
<path d="M93.2889 139.323H91.6531V140.962H93.2889V139.323Z" fill="white"/>
<path d="M95.881 78.9792H94.2451V80.618H95.881V78.9792Z" fill="white"/>
<path d="M95.881 81.7202H94.2451V83.3589H95.881V81.7202Z" fill="white"/>
<path d="M95.881 84.4609H94.2451V86.0996H95.881V84.4609Z" fill="white"/>
<path d="M95.881 87.2075H94.2451V88.8462H95.881V87.2075Z" fill="white"/>
<path d="M95.881 89.9482H94.2451V91.587H95.881V89.9482Z" fill="white"/>
<path d="M95.881 92.6948H94.2451V94.3335H95.881V92.6948Z" fill="white"/>
<path d="M95.881 95.4355H94.2451V97.0743H95.881V95.4355Z" fill="white"/>
<path d="M95.881 98.1765H94.2451V99.8152H95.881V98.1765Z" fill="white"/>
<path d="M95.881 100.923H94.2451V102.562H95.881V100.923Z" fill="white"/>
<path d="M95.881 103.664H94.2451V105.303H95.881V103.664Z" fill="white"/>
<path d="M95.881 106.41H94.2451V108.049H95.881V106.41Z" fill="white"/>
<path d="M95.881 109.151H94.2451V110.79H95.881V109.151Z" fill="white"/>
<path d="M95.881 111.892H94.2451V113.531H95.881V111.892Z" fill="white"/>
<path d="M95.881 114.639H94.2451V116.277H95.881V114.639Z" fill="white"/>
<path d="M95.881 117.379H94.2451V119.018H95.881V117.379Z" fill="white"/>
<path d="M95.881 120.126H94.2451V121.765H95.881V120.126Z" fill="white"/>
<path d="M95.881 125.608H94.2451V127.246H95.881V125.608Z" fill="white"/>
<path d="M95.881 128.354H94.2451V129.993H95.881V128.354Z" fill="white"/>
<path d="M95.881 131.095H94.2451V132.734H95.881V131.095Z" fill="white"/>
<path d="M95.881 133.842H94.2451V135.48H95.881V133.842Z" fill="white"/>
<path d="M95.881 139.323H94.2451V140.962H95.881V139.323Z" fill="white"/>
<path d="M81.2794 113.531H79.6436V115.169H81.2794V113.531Z" fill="white"/>
<path d="M81.2794 116.271H79.6436V117.91H81.2794V116.271Z" fill="white"/>
<path d="M81.2794 119.018H79.6436V120.657H81.2794V119.018Z" fill="white"/>
<path d="M81.2794 121.759H79.6436V123.397H81.2794V121.759Z" fill="white"/>
<path d="M81.2794 124.505H79.6436V126.144H81.2794V124.505Z" fill="white"/>
<path d="M81.2794 127.246H79.6436V128.885H81.2794V127.246Z" fill="white"/>
<path d="M81.2794 129.987H79.6436V131.626H81.2794V129.987Z" fill="white"/>
<path d="M81.2794 135.474H79.6436V137.113H81.2794V135.474Z" fill="white"/>
<path d="M81.2794 138.221H79.6436V139.86H81.2794V138.221Z" fill="white"/>
<path d="M81.2794 140.962H79.6436V142.601H81.2794V140.962Z" fill="white"/>
<path d="M81.2794 143.703H79.6436V145.341H81.2794V143.703Z" fill="white"/>
<path d="M81.2794 146.449H79.6436V148.088H81.2794V146.449Z" fill="white"/>
<path d="M81.2794 149.19H79.6436V150.829H81.2794V149.19Z" fill="white"/>
<path d="M81.2794 151.937H79.6436V153.575H81.2794V151.937Z" fill="white"/>
<path d="M81.2794 154.677H79.6436V156.316H81.2794V154.677Z" fill="white"/>
<path d="M83.8713 113.531H82.2355V115.169H83.8713V113.531Z" fill="white"/>
<path d="M83.8713 116.271H82.2355V117.91H83.8713V116.271Z" fill="white"/>
<path d="M83.8713 119.018H82.2355V120.657H83.8713V119.018Z" fill="white"/>
<path d="M83.8713 121.759H82.2355V123.397H83.8713V121.759Z" fill="white"/>
<path d="M83.8713 124.505H82.2355V126.144H83.8713V124.505Z" fill="white"/>
<path d="M83.8713 127.246H82.2355V128.885H83.8713V127.246Z" fill="white"/>
<path d="M83.8713 135.474H82.2355V137.113H83.8713V135.474Z" fill="white"/>
<path d="M83.8713 138.221H82.2355V139.86H83.8713V138.221Z" fill="white"/>
<path d="M83.8713 140.962H82.2355V142.601H83.8713V140.962Z" fill="white"/>
<path d="M83.8713 143.703H82.2355V145.341H83.8713V143.703Z" fill="white"/>
<path d="M83.8713 146.449H82.2355V148.088H83.8713V146.449Z" fill="white"/>
<path d="M83.8713 149.19H82.2355V150.829H83.8713V149.19Z" fill="white"/>
<path d="M83.8713 151.937H82.2355V153.575H83.8713V151.937Z" fill="white"/>
<path d="M83.8713 154.677H82.2355V156.316H83.8713V154.677Z" fill="white"/>
<path d="M86.4691 113.531H84.8333V115.169H86.4691V113.531Z" fill="white"/>
<path d="M86.4691 116.271H84.8333V117.91H86.4691V116.271Z" fill="white"/>
<path d="M86.4691 119.018H84.8333V120.657H86.4691V119.018Z" fill="white"/>
<path d="M86.4691 121.759H84.8333V123.397H86.4691V121.759Z" fill="white"/>
<path d="M86.4691 124.505H84.8333V126.144H86.4691V124.505Z" fill="white"/>
<path d="M86.4691 127.246H84.8333V128.885H86.4691V127.246Z" fill="white"/>
<path d="M86.4691 132.734H84.8333V134.372H86.4691V132.734Z" fill="white"/>
<path d="M86.4691 135.474H84.8333V137.113H86.4691V135.474Z" fill="white"/>
<path d="M86.4691 138.221H84.8333V139.86H86.4691V138.221Z" fill="white"/>
<path d="M86.4691 140.962H84.8333V142.601H86.4691V140.962Z" fill="white"/>
<path d="M86.4691 143.703H84.8333V145.341H86.4691V143.703Z" fill="white"/>
<path d="M86.4691 146.449H84.8333V148.088H86.4691V146.449Z" fill="white"/>
<path d="M86.4691 149.19H84.8333V150.829H86.4691V149.19Z" fill="white"/>
<path d="M86.4691 151.937H84.8333V153.575H86.4691V151.937Z" fill="white"/>
<path d="M86.4691 154.677H84.8333V156.316H86.4691V154.677Z" fill="white"/>
<path d="M141.137 98.1765H139.501V99.8152H141.137V98.1765Z" fill="white"/>
<path d="M141.137 100.923H139.501V102.562H141.137V100.923Z" fill="white"/>
<path d="M141.137 103.664H139.501V105.303H141.137V103.664Z" fill="white"/>
<path d="M141.137 106.41H139.501V108.049H141.137V106.41Z" fill="white"/>
<path d="M141.137 109.151H139.501V110.79H141.137V109.151Z" fill="white"/>
<path d="M141.137 111.892H139.501V113.531H141.137V111.892Z" fill="white"/>
<path d="M141.137 114.639H139.501V116.277H141.137V114.639Z" fill="white"/>
<path d="M141.137 117.379H139.501V119.018H141.137V117.379Z" fill="white"/>
<path d="M141.137 120.126H139.501V121.765H141.137V120.126Z" fill="white"/>
<path d="M141.137 122.867H139.501V124.505H141.137V122.867Z" fill="white"/>
<path d="M141.137 125.608H139.501V127.246H141.137V125.608Z" fill="white"/>
<path d="M141.137 128.354H139.501V129.993H141.137V128.354Z" fill="white"/>
<path d="M141.137 131.095H139.501V132.734H141.137V131.095Z" fill="white"/>
<path d="M141.137 136.582H139.501V138.221H141.137V136.582Z" fill="white"/>
<path d="M141.137 139.323H139.501V140.962H141.137V139.323Z" fill="white"/>
<path d="M141.137 142.07H139.501V143.708H141.137V142.07Z" fill="white"/>
<path d="M141.137 144.811H139.501V146.449H141.137V144.811Z" fill="white"/>
<path d="M141.137 150.298H139.501V151.937H141.137V150.298Z" fill="white"/>
<path d="M141.137 153.039H139.501V154.677H141.137V153.039Z" fill="white"/>
<path d="M141.137 155.785H139.501V157.424H141.137V155.785Z" fill="white"/>
<path d="M143.729 98.1765H142.093V99.8152H143.729V98.1765Z" fill="white"/>
<path d="M143.729 100.923H142.093V102.562H143.729V100.923Z" fill="white"/>
<path d="M143.729 103.664H142.093V105.303H143.729V103.664Z" fill="white"/>
<path d="M143.729 106.41H142.093V108.049H143.729V106.41Z" fill="white"/>
<path d="M143.729 109.151H142.093V110.79H143.729V109.151Z" fill="white"/>
<path d="M143.729 111.892H142.093V113.531H143.729V111.892Z" fill="white"/>
<path d="M143.729 114.639H142.093V116.277H143.729V114.639Z" fill="white"/>
<path d="M143.729 117.379H142.093V119.018H143.729V117.379Z" fill="white"/>
<path d="M143.729 120.126H142.093V121.765H143.729V120.126Z" fill="white"/>
<path d="M143.729 122.867H142.093V124.505H143.729V122.867Z" fill="white"/>
<path d="M143.729 125.608H142.093V127.246H143.729V125.608Z" fill="white"/>
<path d="M143.729 128.354H142.093V129.993H143.729V128.354Z" fill="white"/>
<path d="M143.729 131.095H142.093V132.734H143.729V131.095Z" fill="white"/>
<path d="M143.729 139.323H142.093V140.962H143.729V139.323Z" fill="white"/>
<path d="M143.729 142.07H142.093V143.708H143.729V142.07Z" fill="white"/>
<path d="M143.729 147.557H142.093V149.196H143.729V147.557Z" fill="white"/>
<path d="M143.729 150.298H142.093V151.937H143.729V150.298Z" fill="white"/>
<path d="M143.729 153.039H142.093V154.677H143.729V153.039Z" fill="white"/>
<path d="M143.729 155.785H142.093V157.424H143.729V155.785Z" fill="white"/>
<path d="M146.327 98.1765H144.691V99.8152H146.327V98.1765Z" fill="white"/>
<path d="M146.327 100.923H144.691V102.562H146.327V100.923Z" fill="white"/>
<path d="M146.327 103.664H144.691V105.303H146.327V103.664Z" fill="white"/>
<path d="M146.327 106.41H144.691V108.049H146.327V106.41Z" fill="white"/>
<path d="M146.327 109.151H144.691V110.79H146.327V109.151Z" fill="white"/>
<path d="M146.327 111.892H144.691V113.531H146.327V111.892Z" fill="white"/>
<path d="M146.327 114.639H144.691V116.277H146.327V114.639Z" fill="white"/>
<path d="M146.327 117.379H144.691V119.018H146.327V117.379Z" fill="white"/>
<path d="M146.327 120.126H144.691V121.765H146.327V120.126Z" fill="white"/>
<path d="M146.327 122.867H144.691V124.505H146.327V122.867Z" fill="white"/>
<path d="M146.327 125.608H144.691V127.246H146.327V125.608Z" fill="white"/>
<path d="M146.327 128.354H144.691V129.993H146.327V128.354Z" fill="white"/>
<path d="M146.327 131.095H144.691V132.734H146.327V131.095Z" fill="white"/>
<path d="M146.327 133.842H144.691V135.48H146.327V133.842Z" fill="white"/>
<path d="M146.327 139.323H144.691V140.962H146.327V139.323Z" fill="white"/>
<path d="M146.327 144.811H144.691V146.449H146.327V144.811Z" fill="white"/>
<path d="M146.327 147.557H144.691V149.196H146.327V147.557Z" fill="white"/>
<path d="M146.327 150.298H144.691V151.937H146.327V150.298Z" fill="white"/>
<path d="M146.327 153.039H144.691V154.677H146.327V153.039Z" fill="white"/>
<path d="M146.327 155.785H144.691V157.424H146.327V155.785Z" fill="white"/>
<path d="M130.568 113.819H128.932V115.458H130.568V113.819Z" fill="white"/>
<path d="M130.568 116.56H128.932V118.199H130.568V116.56Z" fill="white"/>
<path d="M130.568 119.307H128.932V120.945H130.568V119.307Z" fill="white"/>
<path d="M130.568 122.047H128.932V123.686H130.568V122.047Z" fill="white"/>
<path d="M130.568 124.794H128.932V126.433H130.568V124.794Z" fill="white"/>
<path d="M130.568 127.535H128.932V129.173H130.568V127.535Z" fill="white"/>
<path d="M130.568 135.763H128.932V137.402H130.568V135.763Z" fill="white"/>
<path d="M130.568 138.51H128.932V140.148H130.568V138.51Z" fill="white"/>
<path d="M130.568 141.25H128.932V142.889H130.568V141.25Z" fill="white"/>
<path d="M130.568 143.991H128.932V145.63H130.568V143.991Z" fill="white"/>
<path d="M130.568 146.738H128.932V148.377H130.568V146.738Z" fill="white"/>
<path d="M130.568 149.479H128.932V151.117H130.568V149.479Z" fill="white"/>
<path d="M130.568 152.225H128.932V153.864H130.568V152.225Z" fill="white"/>
<path d="M133.16 113.819H131.524V115.458H133.16V113.819Z" fill="white"/>
<path d="M133.16 116.56H131.524V118.199H133.16V116.56Z" fill="white"/>
<path d="M133.16 119.307H131.524V120.945H133.16V119.307Z" fill="white"/>
<path d="M133.16 122.047H131.524V123.686H133.16V122.047Z" fill="white"/>
<path d="M133.16 124.794H131.524V126.433H133.16V124.794Z" fill="white"/>
<path d="M133.16 127.535H131.524V129.173H133.16V127.535Z" fill="white"/>
<path d="M133.16 135.763H131.524V137.402H133.16V135.763Z" fill="white"/>
<path d="M133.16 138.51H131.524V140.148H133.16V138.51Z" fill="white"/>
<path d="M133.16 141.25H131.524V142.889H133.16V141.25Z" fill="white"/>
<path d="M133.16 143.991H131.524V145.63H133.16V143.991Z" fill="white"/>
<path d="M133.16 146.738H131.524V148.377H133.16V146.738Z" fill="white"/>
<path d="M133.16 149.479H131.524V151.117H133.16V149.479Z" fill="white"/>
<path d="M133.16 154.966H131.524V156.605H133.16V154.966Z" fill="white"/>
<path d="M219.347 101.742H217.711V103.381H219.347V101.742Z" fill="white"/>
<path d="M219.347 104.483H217.711V106.122H219.347V104.483Z" fill="white"/>
<path d="M219.347 107.224H217.711V108.863H219.347V107.224Z" fill="white"/>
<path d="M219.347 109.97H217.711V111.609H219.347V109.97Z" fill="white"/>
<path d="M219.347 112.711H217.711V114.35H219.347V112.711Z" fill="white"/>
<path d="M219.347 115.458H217.711V117.097H219.347V115.458Z" fill="white"/>
<path d="M219.347 118.199H217.711V119.837H219.347V118.199Z" fill="white"/>
<path d="M219.347 120.939H217.711V122.578H219.347V120.939Z" fill="white"/>
<path d="M219.347 123.686H217.711V125.325H219.347V123.686Z" fill="white"/>
<path d="M219.347 126.427H217.711V128.066H219.347V126.427Z" fill="white"/>
<path d="M219.347 129.174H217.711V130.812H219.347V129.174Z" fill="white"/>
<path d="M219.347 134.655H217.711V136.294H219.347V134.655Z" fill="white"/>
<path d="M219.347 137.402H217.711V139.04H219.347V137.402Z" fill="white"/>
<path d="M219.347 140.142H217.711V141.781H219.347V140.142Z" fill="white"/>
<path d="M219.347 142.889H217.711V144.528H219.347V142.889Z" fill="white"/>
<path d="M219.347 145.63H217.711V147.269H219.347V145.63Z" fill="white"/>
<path d="M219.347 148.371H217.711V150.009H219.347V148.371Z" fill="white"/>
<path d="M219.347 151.117H217.711V152.756H219.347V151.117Z" fill="white"/>
<path d="M219.347 153.858H217.711V155.497H219.347V153.858Z" fill="white"/>
<path d="M221.944 101.742H220.309V103.381H221.944V101.742Z" fill="white"/>
<path d="M221.944 104.483H220.309V106.122H221.944V104.483Z" fill="white"/>
<path d="M221.944 107.224H220.309V108.863H221.944V107.224Z" fill="white"/>
<path d="M221.944 109.97H220.309V111.609H221.944V109.97Z" fill="white"/>
<path d="M221.944 112.711H220.309V114.35H221.944V112.711Z" fill="white"/>
<path d="M221.944 115.458H220.309V117.097H221.944V115.458Z" fill="white"/>
<path d="M221.944 118.199H220.309V119.837H221.944V118.199Z" fill="white"/>
<path d="M221.944 120.939H220.309V122.578H221.944V120.939Z" fill="white"/>
<path d="M221.944 123.686H220.309V125.325H221.944V123.686Z" fill="white"/>
<path d="M221.944 126.427H220.309V128.066H221.944V126.427Z" fill="white"/>
<path d="M221.944 129.174H220.309V130.812H221.944V129.174Z" fill="white"/>
<path d="M221.944 131.914H220.309V133.553H221.944V131.914Z" fill="white"/>
<path d="M221.944 134.655H220.309V136.294H221.944V134.655Z" fill="white"/>
<path d="M221.944 137.402H220.309V139.04H221.944V137.402Z" fill="white"/>
<path d="M221.944 140.142H220.309V141.781H221.944V140.142Z" fill="white"/>
<path d="M221.944 142.889H220.309V144.528H221.944V142.889Z" fill="white"/>
<path d="M221.944 145.63H220.309V147.269H221.944V145.63Z" fill="white"/>
<path d="M221.944 148.371H220.309V150.009H221.944V148.371Z" fill="white"/>
<path d="M221.944 151.117H220.309V152.756H221.944V151.117Z" fill="white"/>
<path d="M221.944 153.858H220.309V155.497H221.944V153.858Z" fill="white"/>
<path d="M206.571 112.423H204.935V114.062H206.571V112.423Z" fill="white"/>
<path d="M206.571 115.169H204.935V116.808H206.571V115.169Z" fill="white"/>
<path d="M206.571 117.91H204.935V119.549H206.571V117.91Z" fill="white"/>
<path d="M206.571 120.651H204.935V122.29H206.571V120.651Z" fill="white"/>
<path d="M206.571 123.398H204.935V125.036H206.571V123.398Z" fill="white"/>
<path d="M206.571 126.138H204.935V127.777H206.571V126.138Z" fill="white"/>
<path d="M206.571 128.885H204.935V130.524H206.571V128.885Z" fill="white"/>
<path d="M206.571 131.626H204.935V133.264H206.571V131.626Z" fill="white"/>
<path d="M206.571 134.367H204.935V136.005H206.571V134.367Z" fill="white"/>
<path d="M206.571 137.113H204.935V138.752H206.571V137.113Z" fill="white"/>
<path d="M209.163 112.423H207.527V114.062H209.163V112.423Z" fill="white"/>
<path d="M209.163 115.169H207.527V116.808H209.163V115.169Z" fill="white"/>
<path d="M209.163 117.91H207.527V119.549H209.163V117.91Z" fill="white"/>
<path d="M209.163 120.651H207.527V122.29H209.163V120.651Z" fill="white"/>
<path d="M209.163 123.398H207.527V125.036H209.163V123.398Z" fill="white"/>
<path d="M209.163 126.138H207.527V127.777H209.163V126.138Z" fill="white"/>
<path d="M209.163 128.885H207.527V130.524H209.163V128.885Z" fill="white"/>
<path d="M209.163 131.626H207.527V133.264H209.163V131.626Z" fill="white"/>
<path d="M209.163 134.367H207.527V136.005H209.163V134.367Z" fill="white"/>
</g>
<path d="M243.631 160.251C243.631 160.251 246.338 151.175 240.866 149.363C235.394 147.551 232.145 143.31 232.33 138.509C232.514 133.709 226.754 129.035 222.434 133.536C218.114 138.036 218.69 130.074 212.93 128.141C207.17 126.208 202.285 130.899 203.864 135.186C205.442 139.473 199.757 142.156 192.949 138.504C186.14 134.857 178.652 141.493 180.092 146.686C181.532 151.879 180.351 152.456 176.049 150.725C171.74 148.994 164.039 153.898 166.741 160.245C169.442 166.593 243.631 160.245 243.631 160.245V160.251Z" fill="#407BFF"/>
<path opacity="0.3" d="M243.631 160.251C243.631 160.251 246.338 151.175 240.866 149.363C235.394 147.551 232.145 143.31 232.33 138.509C232.514 133.709 226.754 129.035 222.434 133.536C218.114 138.036 218.69 130.074 212.93 128.141C207.17 126.208 202.285 130.899 203.864 135.186C205.442 139.473 199.757 142.156 192.949 138.504C186.14 134.857 178.652 141.493 180.092 146.686C181.532 151.879 180.351 152.456 176.049 150.725C171.74 148.994 164.039 153.898 166.741 160.245C169.442 166.593 243.631 160.245 243.631 160.245V160.251Z" fill="white"/>
<path d="M98.8761 161.117C101.756 158.232 99.1641 153.327 96.2841 152.75C93.4041 152.173 90.5068 147.095 90.3744 143.864C90.2361 140.633 85.0521 130.691 76.9881 136.83C68.9241 142.97 71.3779 137.736 65.543 136.011C59.7081 134.286 56.0275 139.248 58.5907 142.97C58.5907 142.97 52.7328 141.498 50.3193 146.98C47.9059 152.461 50.3193 155.866 50.3193 155.866C50.3193 155.866 39.3004 155.537 40.2912 162.369C41.2819 169.195 98.8819 161.117 98.8819 161.117H98.8761Z" fill="#407BFF"/>
<path opacity="0.3" d="M98.8761 161.117C101.756 158.232 99.1641 153.327 96.2841 152.75C93.4041 152.173 90.5068 147.095 90.3744 143.864C90.2361 140.633 85.0521 130.691 76.9881 136.83C68.9241 142.97 71.3779 137.736 65.543 136.011C59.7081 134.286 56.0275 139.248 58.5907 142.97C58.5907 142.97 52.7328 141.498 50.3193 146.98C47.9059 152.461 50.3193 155.866 50.3193 155.866C50.3193 155.866 39.3004 155.537 40.2912 162.369C41.2819 169.195 98.8819 161.117 98.8819 161.117H98.8761Z" fill="white"/>
<path d="M253.532 161.29V169.195H31.1962V161.29C31.1962 159.916 32.1523 158.809 33.5232 158.809H251.205C252.576 158.809 253.532 159.916 253.532 161.29Z" fill="#263238"/>
<path d="M57.6922 158.809H43.8682V169.195H57.6922V158.809Z" fill="#407BFF"/>
<path d="M83.6121 158.809H70.3641V169.195H83.6121V158.809Z" fill="#407BFF"/>
<path d="M110.108 158.809H96.2842V169.195H110.108V158.809Z" fill="#407BFF"/>
<path d="M136.028 158.809H122.78V169.195H136.028V158.809Z" fill="#407BFF"/>
<path d="M161.948 158.809H148.7V169.195H161.948V158.809Z" fill="#407BFF"/>
<path d="M188.444 158.809H174.62V169.195H188.444V158.809Z" fill="#407BFF"/>
<path d="M214.364 158.809H201.116V169.195H214.364V158.809Z" fill="#407BFF"/>
<path d="M240.86 158.809H227.036V169.195H240.86V158.809Z" fill="#407BFF"/>
<g opacity="0.6">
<path d="M57.6922 158.809H43.8682V169.195H57.6922V158.809Z" fill="white"/>
<path d="M83.6121 158.809H70.3641V169.195H83.6121V158.809Z" fill="white"/>
<path d="M110.108 158.809H96.2842V169.195H110.108V158.809Z" fill="white"/>
<path d="M136.028 158.809H122.78V169.195H136.028V158.809Z" fill="white"/>
<path d="M161.948 158.809H148.7V169.195H161.948V158.809Z" fill="white"/>
<path d="M188.444 158.809H174.62V169.195H188.444V158.809Z" fill="white"/>
<path d="M214.364 158.809H201.116V169.195H214.364V158.809Z" fill="white"/>
<path d="M240.86 158.809H227.036V169.195H240.86V158.809Z" fill="white"/>
</g>
<path opacity="0.1" d="M253.532 161.29V169.195H31.1962V161.29C31.1962 159.916 32.1523 158.809 33.5232 158.809H251.205C252.576 158.809 253.532 159.916 253.532 161.29Z" fill="white"/>
<path d="M114.273 156.126V36.0784L154.379 31.2373L172.005 34.6013L177.765 35.6976L190.132 38.0576L198.374 36.4304L204.134 35.2937L231.264 29.9448V149.992L204.134 155.347L198.374 156.483L190.132 158.11L154.379 151.29L152.052 151.573L145.112 152.41L114.273 156.126Z" fill="#407BFF"/>
<path opacity="0.2" d="M114.273 156.126V36.0784L154.379 31.2373L172.005 34.6013L177.765 35.6976L190.132 38.0576L198.374 36.4304L204.134 35.2937L231.264 29.9448V149.992L204.134 155.347L198.374 156.483L190.132 158.11L154.379 151.29L152.052 151.573L145.112 152.41L114.273 156.126Z" fill="black"/>
<path d="M198.374 97.1839V88.2575C198.374 87.3632 197.562 86.6881 196.687 86.8612L114.273 102.741V96.8608L146.972 90.5656C147.784 90.404 148.291 89.5905 148.072 88.7884L141.788 65.8868C141.592 65.1714 140.878 64.727 140.152 64.8713L114.273 69.8682V63.9885L144.294 58.1895C145.019 58.051 145.734 58.4953 145.93 59.2108L153.803 87.9113C153.999 88.6268 154.714 89.0711 155.439 88.9327L170.853 85.961C171.521 85.8341 172.005 85.2456 172.005 84.5647V50.8499C172.005 50.1633 171.515 49.5747 170.842 49.4536L152.283 46.0261C152.122 45.9973 151.96 45.9973 151.805 46.0204L114.273 51.9347V46.0954L151.88 40.1695C152.041 40.1406 152.202 40.1464 152.358 40.1752L170.329 43.4873C171.204 43.6488 172.005 42.9795 172.005 42.0909V34.6013L177.765 35.6976V82.9029C177.765 83.7973 178.577 84.4724 179.459 84.305L197.222 80.8776C197.896 80.7506 198.374 80.1621 198.374 79.4812V36.4304L204.134 35.2937V77.8252C204.134 78.7196 204.952 79.3889 205.828 79.2216L217.803 76.9135C218.471 76.7866 218.955 76.198 218.955 75.5172V46.0723C218.955 45.3972 219.427 44.8144 220.09 44.6817L231.264 42.3679V48.2592L225.85 49.3786C225.187 49.517 224.715 50.0998 224.715 50.7749V73.8611C224.715 74.7555 225.527 75.4248 226.403 75.2575L231.264 74.3227V80.1967L205.286 85.1994C204.618 85.3321 204.134 85.9149 204.134 86.6015V126.854C204.134 127.731 204.923 128.4 205.793 128.256L231.264 124.015V129.866L205.327 134.182C204.641 134.297 204.134 134.892 204.134 135.59V155.347L198.374 156.483V105.926C198.374 105.043 197.585 104.373 196.715 104.523L175.352 108.211C174.914 108.286 174.539 108.563 174.332 108.955L152.052 151.573L145.112 152.41L153.625 136.121C154.166 135.088 153.302 133.882 152.15 134.055L114.273 139.831V133.997L157.53 127.402C157.979 127.333 158.365 127.056 158.579 126.652L170.554 103.75C170.755 103.358 171.135 103.087 171.567 103.012L197.199 98.586C197.879 98.4649 198.374 97.8763 198.374 97.1839Z" fill="#407BFF"/>
<path d="M190.12 155.173L154.915 148.457L154.477 148.371L154.034 148.422L151.707 148.705L144.766 149.542L117.153 152.871V38.6346L154.282 34.1512L171.469 37.4344L177.229 38.5307L189.596 40.8907L190.143 40.9946L190.691 40.8849L198.933 39.2578L204.693 38.1211L228.384 33.4473V147.615L203.576 152.513L197.816 153.65L190.12 155.168M190.132 158.11L198.374 156.483L204.134 155.347L231.264 149.992V29.9448L204.134 35.2937L198.374 36.4304L190.132 38.0576L177.765 35.6976L172.005 34.6013L154.379 31.2373L114.273 36.0784V156.126L145.112 152.41L152.052 151.573L154.379 151.29L190.132 158.11Z" fill="#263238"/>
<path opacity="0.1" d="M190.12 155.173L154.915 148.457L154.477 148.371L154.034 148.422L151.707 148.705L144.766 149.542L117.153 152.871V38.6346L154.282 34.1512L171.469 37.4344L177.229 38.5307L189.596 40.8907L190.143 40.9946L190.691 40.8849L198.933 39.2578L204.693 38.1211L228.384 33.4473V147.615L203.576 152.513L197.816 153.65L190.12 155.168M190.132 158.11L198.374 156.483L204.134 155.347L231.264 149.992V29.9448L204.134 35.2937L198.374 36.4304L190.132 38.0576L177.765 35.6976L172.005 34.6013L154.379 31.2373L114.273 36.0784V156.126L145.112 152.41L152.052 151.573L154.379 151.29L190.132 158.11Z" fill="white"/>
<path opacity="0.1" d="M190.132 158.11V38.0576L154.38 31.2373V151.29L190.132 158.11Z" fill="black"/>
<g opacity="0.5">
<path d="M216.818 79.6949C217.094 79.6949 217.336 79.8911 217.382 80.168C217.44 80.4796 217.233 80.7797 216.916 80.8374L201.825 83.5493V100.802C201.825 101.085 201.623 101.321 201.346 101.373L173.14 106.249L159.212 132.711C159.062 132.993 158.717 133.097 158.434 132.953C158.152 132.803 158.043 132.457 158.193 132.174L172.253 105.458C172.339 105.303 172.489 105.187 172.662 105.158L200.673 100.311V83.0589C200.673 82.7819 200.874 82.5396 201.145 82.4934L216.708 79.6949C216.743 79.6891 216.777 79.6833 216.812 79.6833L216.818 79.6949Z" fill="white"/>
<path d="M157.622 132.445C157.622 131.845 158.106 131.36 158.705 131.36C159.304 131.36 159.788 131.845 159.788 132.445C159.788 133.045 159.304 133.53 158.705 133.53C158.106 133.53 157.622 133.045 157.622 132.445Z" fill="white"/>
<path d="M215.735 80.2718C215.735 79.6717 216.219 79.187 216.818 79.187C217.417 79.187 217.901 79.6717 217.901 80.2718C217.901 80.8719 217.417 81.3566 216.818 81.3566C216.219 81.3566 215.735 80.8719 215.735 80.2718Z" fill="white"/>
</g>
<path d="M159.27 115.423C156.735 112.884 152.623 112.884 150.088 115.423C147.554 117.962 147.554 122.082 150.088 124.621L154.679 129.22L159.27 124.621C161.804 122.082 161.804 117.962 159.27 115.423ZM152.807 121.897C151.776 120.864 151.776 119.191 152.807 118.158C153.838 117.125 155.508 117.125 156.539 118.158C157.571 119.191 157.571 120.864 156.539 121.897C155.508 122.93 153.838 122.93 152.807 121.897Z" fill="white"/>
<path opacity="0.2" d="M159.27 115.423C157.991 114.142 156.315 113.507 154.639 113.519V117.379C155.33 117.368 156.021 117.621 156.545 118.152C157.576 119.185 157.576 120.859 156.545 121.891C156.021 122.416 155.324 122.67 154.639 122.665V129.179L154.679 129.219L159.27 124.621C161.804 122.082 161.804 117.962 159.27 115.423Z" fill="black"/>
<path d="M221.409 62.171C218.874 59.6321 214.762 59.6321 212.227 62.171C209.693 64.7098 209.693 68.8297 212.227 71.3685L216.818 75.9673L221.409 71.3685C223.943 68.8297 223.943 64.7098 221.409 62.171ZM214.952 68.6393C213.921 67.6064 213.921 65.9331 214.952 64.9002C215.983 63.8674 217.653 63.8674 218.684 64.9002C219.715 65.9331 219.715 67.6064 218.684 68.6393C217.653 69.6721 215.983 69.6721 214.952 68.6393Z" fill="white"/>
<path opacity="0.2" d="M221.409 62.1709C220.13 60.8899 218.454 60.2552 216.778 60.2668V64.127C217.469 64.1154 218.16 64.3693 218.684 64.9002C219.715 65.933 219.715 67.6063 218.684 68.6392C218.16 69.1643 217.463 69.4182 216.778 69.4124V75.9268L216.818 75.9672L221.409 71.3684C223.943 68.8296 223.943 64.7097 221.409 62.1709Z" fill="black"/>
<path d="M53.015 176.54L56.2003 179.76L63.9129 172.634L60.7219 169.408L53.015 176.54Z" fill="#EEC1BB"/>
<path d="M57.0124 179.841L53.1417 175.923C53.0092 175.79 52.8076 175.767 52.6464 175.865L49.1558 178.069C48.8448 178.271 48.7584 178.681 48.9542 178.992C48.983 179.033 49.0118 179.073 49.0464 179.108C50.3193 180.354 51.31 181.202 52.8825 182.789C53.8502 183.77 56.6726 186.828 58.0089 188.178C59.3452 189.529 60.8544 188.386 60.4281 187.711C58.51 184.693 57.4156 182.079 57.3408 180.573C57.3292 180.291 57.214 180.025 57.0124 179.829V179.841Z" fill="#263238"/>
<path opacity="0.2" d="M60.7219 169.414L63.9129 172.64L59.927 176.315L56.7417 173.084L60.7219 169.414Z" fill="black"/>
<path d="M56.7878 180.504C56.7647 180.464 56.7705 180.418 56.7993 180.383C56.8223 180.349 56.8684 180.331 56.9087 180.349C57.0931 180.389 58.7635 180.799 58.9305 181.335C58.9708 181.456 58.942 181.589 58.8499 181.676C58.7174 181.849 58.5043 181.947 58.2854 181.924C57.9801 181.866 57.7094 181.705 57.5078 181.468C57.2371 181.174 56.9951 180.851 56.7935 180.504H56.7878ZM57.1103 180.62C57.358 181.122 57.7843 181.514 58.3027 181.71C58.4467 181.716 58.5907 181.658 58.6771 181.543C58.7347 181.48 58.7404 181.428 58.7174 181.405C58.7059 181.358 58.6771 181.318 58.6425 181.283C58.1817 180.966 57.6575 180.741 57.1103 180.62Z" fill="#407BFF"/>
<path d="M56.7474 180.498C56.7417 180.458 56.7474 180.418 56.782 180.395C56.8338 180.354 57.8303 179.512 58.5042 179.587C58.6713 179.598 58.821 179.679 58.9247 179.812C59.0457 179.933 59.063 180.118 58.965 180.256C58.6886 180.66 57.3465 180.718 56.8396 180.562L56.805 180.527C56.805 180.527 56.7647 180.516 56.7532 180.498H56.7474ZM58.51 179.771C57.9974 179.829 57.5135 180.048 57.1276 180.389C57.7036 180.475 58.6482 180.348 58.8153 180.106C58.8326 180.083 58.8786 180.02 58.7865 179.916L58.7519 179.881C58.6886 179.818 58.6079 179.777 58.5157 179.771H58.51Z" fill="#407BFF"/>
<path d="M105.195 61.265C105.195 61.265 112.395 72.7822 113.76 74.2536C115.125 75.7249 124.145 60.6073 124.831 58.5877C125.516 56.574 134.536 56.522 135.153 56.7759C135.769 57.0298 135.354 61.3805 133.626 62.2864C131.898 63.1923 125.96 62.9557 125.96 62.9557C125.96 62.9557 120.73 79.8333 114.578 80.693C108.426 81.5527 101.722 66.2966 101.722 66.2966L105.195 61.265Z" fill="#EEC1BB"/>
<path d="M99.9187 55.5295C104.435 56.3374 110.356 68.5527 110.356 68.5527L105.137 75.4018L98.6458 69.2393L99.9187 55.5353V55.5295Z" fill="#407BFF"/>
<path opacity="0.4" d="M110.356 68.5527L105.137 75.396L104.964 75.2287L98.6458 69.2335L98.7264 68.3565L99.9187 55.5295C104.435 56.3374 110.356 68.5527 110.356 68.5527Z" fill="white"/>
<path opacity="0.2" d="M104.964 75.2287L98.6458 69.2335L98.7264 68.3565L100.921 63.9077C100.921 63.9077 104.936 67.8199 104.964 75.2287Z" fill="black"/>
<path d="M98.6457 95.4587C98.6457 95.4587 87.9609 135.428 80.6457 151.181C73.3305 166.933 63.0143 175.15 63.0143 175.15L58.2393 169.253C58.2393 169.253 71.6601 150.131 74.5631 138.331C77.4719 126.531 78.4396 102.106 78.4396 102.106L98.6399 95.4645L98.6457 95.4587Z" fill="#263238"/>
<path opacity="0.2" d="M98.6457 95.4587C98.6457 95.4587 87.9609 135.428 80.6457 151.181C73.3305 166.933 63.0143 175.15 63.0143 175.15L58.2393 169.253C58.2393 169.253 71.6601 150.131 74.5631 138.331C77.4719 126.531 78.4396 102.106 78.4396 102.106L98.6399 95.4645L98.6457 95.4587Z" fill="black"/>
<path d="M101.796 185.409L106.093 183.972L103.127 173.886L98.8242 175.329L101.796 185.409Z" fill="#EEC1BB"/>
<path d="M106.52 183.28L101.301 185.022C101.128 185.08 101.013 185.253 101.036 185.438L101.468 189.552C101.508 189.921 101.843 190.181 102.205 190.14C102.257 190.14 102.303 190.123 102.349 190.106C104.031 189.511 105.224 188.998 107.343 188.288C108.651 187.85 112.637 186.672 114.44 186.067C116.243 185.466 115.885 183.603 115.091 183.684C111.537 184.07 108.714 183.897 107.338 183.303C107.078 183.187 106.79 183.176 106.525 183.268L106.52 183.28Z" fill="#263238"/>
<path opacity="0.2" d="M98.8301 175.334L103.127 173.892L104.653 179.096L100.356 180.533L98.8301 175.334Z" fill="black"/>
<path d="M107.015 183.776C106.969 183.776 106.929 183.753 106.911 183.712C106.888 183.672 106.9 183.626 106.929 183.597C107.05 183.447 108.15 182.131 108.708 182.218C108.835 182.235 108.939 182.322 108.979 182.443C109.077 182.639 109.066 182.876 108.95 183.06C108.766 183.308 108.495 183.482 108.196 183.557C107.81 183.672 107.418 183.747 107.015 183.776ZM107.263 183.534C107.821 183.534 108.357 183.326 108.766 182.945C108.841 182.818 108.841 182.662 108.783 182.535C108.749 182.455 108.703 182.426 108.68 182.437C108.634 182.431 108.582 182.437 108.541 182.455C108.052 182.731 107.62 183.101 107.268 183.539L107.263 183.534Z" fill="#407BFF"/>
<path d="M106.998 183.805C106.957 183.793 106.929 183.764 106.917 183.73C106.9 183.666 106.594 182.397 106.957 181.826C107.044 181.681 107.182 181.583 107.343 181.549C107.505 181.497 107.677 181.56 107.758 181.704C107.994 182.131 107.453 183.361 107.09 183.753L107.038 183.77C107.038 183.77 107.009 183.799 106.986 183.805H106.998ZM107.124 181.901C106.952 182.391 106.929 182.916 107.067 183.418C107.401 182.939 107.706 182.039 107.556 181.774C107.539 181.751 107.505 181.676 107.372 181.722L107.32 181.739C107.234 181.768 107.165 181.826 107.119 181.901H107.124Z" fill="#407BFF"/>
<path d="M74.5689 92.8332C74.5689 92.8332 71.735 103.692 75.0355 115.567C77.518 124.5 98.7206 178.554 98.7206 178.554L106.093 176.425L90.501 112.111C90.501 112.111 96.3302 103.848 98.6457 95.4528L74.5689 92.8274V92.8332Z" fill="#263238"/>
<path d="M107.297 177.296L98.0294 180.395L95.7196 177.21L106.664 174.221L107.297 177.296Z" fill="#407BFF"/>
<path opacity="0.3" d="M107.297 177.296L98.0294 180.395L95.7196 177.21L106.664 174.221L107.297 177.296Z" fill="white"/>
<path d="M62.7091 177.89L55.8374 170.937L57.6633 167.452L65.1801 175.957L62.7091 177.89Z" fill="#407BFF"/>
<path opacity="0.3" d="M62.7091 177.89L55.8374 170.937L57.6633 167.452L65.1801 175.957L62.7091 177.89Z" fill="white"/>
<path d="M77.4086 53.4522C77.8521 58.5069 77.9155 63.5903 77.6045 68.6565C77.4086 72.1936 77.0688 75.5345 76.6886 78.5638C75.7958 85.6495 72.1901 98.7938 72.1901 98.7938L90.8006 103.693L92.4883 95.4586L94.2221 103.693L97.92 101.413C103.674 83.1048 103.824 64.6347 103.127 59.3262C102.891 57.5375 101.641 56.0546 99.9245 55.5179C99.0777 55.2525 98.0928 54.964 97.0502 54.7101C96.6413 54.6351 96.2438 54.5255 95.8291 54.4447C92.4422 53.8735 89.0208 53.5042 85.5878 53.3253C84.9369 53.2849 84.2745 53.2676 83.6352 53.2561C80.3577 53.1695 77.4144 53.4407 77.4144 53.4407L77.4086 53.4522Z" fill="#407BFF"/>
<path opacity="0.4" d="M97.9142 101.419L94.2221 103.698L92.4883 95.4643L90.8006 103.698L72.1901 98.7937C72.1901 98.7937 75.8016 85.6494 76.6886 78.5637C76.7808 77.8424 76.8672 77.1038 76.9536 76.348C77.2243 73.9303 77.4605 71.3511 77.6102 68.6564C77.7024 67.1793 77.76 65.6963 77.783 64.2192C77.8464 60.6244 77.7254 57.0296 77.4086 53.4522C77.4086 53.4522 80.352 53.181 83.6294 53.2675C84.2745 53.2791 84.9369 53.2964 85.5821 53.3368C89.015 53.5099 92.4365 53.8849 95.8233 54.4562C96.2381 54.537 96.6355 54.6466 97.0445 54.7216C98.087 54.9755 99.072 55.264 99.9187 55.5294C101.641 56.0603 102.891 57.549 103.121 59.3319C103.824 64.6404 103.674 83.1105 97.9142 101.419Z" fill="white"/>
<path d="M87.8515 41.866C88.1337 45.2415 88.128 51.352 85.582 53.3081C87.4022 55.6738 90.1555 57.1337 93.1334 57.3126C95.9731 57.5607 96.336 55.5931 95.8233 54.4275C92.2406 53.1465 92.6323 50.4288 93.5539 47.9304L87.8515 41.866Z" fill="#EEC1BB"/>
<path opacity="0.2" d="M90.1785 44.3412L93.5481 47.9187C93.3293 48.5015 93.1565 49.0958 93.0355 49.7074C91.6531 49.3554 89.9021 47.6013 89.9078 46.1126C89.8905 45.5068 89.9827 44.9067 90.1785 44.3354V44.3412Z" fill="black"/>
<path d="M87.9954 36.8633C87.7765 41.3582 87.4309 43.9778 89.4412 46.5051C92.4536 50.3249 98.1791 48.8766 99.7458 44.5318C101.14 40.6196 101.249 33.9205 97.0732 31.6702C94.101 30.0372 90.3743 31.1278 88.7442 34.1052C88.2834 34.9534 88.0242 35.8997 87.9954 36.8633Z" fill="#EEC1BB"/>
<path d="M94.6251 38.8481C94.5618 39.2059 94.7461 39.5232 94.9823 39.5521C95.2242 39.5751 95.4431 39.2982 95.4834 38.9404C95.5237 38.5769 95.3567 38.2596 95.1263 38.2365C94.8901 38.2134 94.6655 38.4846 94.6251 38.8481Z" fill="#263238"/>
<path d="M98.7321 39.2924C98.6687 39.6501 98.8588 39.9732 99.0892 39.9963C99.3253 40.0194 99.55 39.7424 99.5903 39.3847C99.6306 39.0212 99.4636 38.7038 99.2332 38.6807C98.997 38.6577 98.7724 38.9462 98.7321 39.2924Z" fill="#263238"/>
<path d="M97.4073 39.3328C97.7183 40.4926 98.1906 41.6004 98.8069 42.6333C98.2655 42.9391 97.6089 42.991 97.0271 42.7717L97.4073 39.3328Z" fill="#D4827D"/>
<path d="M93.4962 37.3767C93.5711 37.394 93.6575 37.3767 93.7093 37.3132C94.0722 36.9093 94.6079 36.6958 95.1493 36.7478C95.2645 36.7708 95.3739 36.6901 95.397 36.5747C95.42 36.4592 95.3394 36.3496 95.2242 36.3265C94.5387 36.2458 93.859 36.5054 93.3982 37.0189C93.3176 37.0997 93.3176 37.2382 93.3982 37.319C93.427 37.3421 93.4559 37.3594 93.4904 37.3709L93.4962 37.3767Z" fill="#263238"/>
<path d="M95.1494 44.2433C94.0953 44.0355 93.214 43.3201 92.782 42.3391C92.759 42.2814 92.7935 42.218 92.8511 42.1949C92.9087 42.1718 92.9721 42.1949 92.9951 42.2526C92.9951 42.2526 92.9951 42.2526 92.9951 42.2584C93.4156 43.1585 94.2335 43.8105 95.2012 44.0182C95.2588 44.0298 95.2991 44.0875 95.2876 44.1452C95.2876 44.1452 95.2876 44.1509 95.2876 44.1567C95.2761 44.2144 95.2185 44.2548 95.1609 44.2433C95.1609 44.2433 95.1551 44.2433 95.1494 44.2433Z" fill="#263238"/>
<path d="M100.65 38.0691C100.69 38.0922 100.731 38.098 100.777 38.0922C100.886 38.0518 100.95 37.9306 100.909 37.821C100.69 37.1632 100.166 36.6554 99.5038 36.4535C99.3886 36.4246 99.2734 36.4996 99.2446 36.6093C99.2216 36.7247 99.2907 36.8401 99.4059 36.8689C99.9243 37.042 100.333 37.4517 100.5 37.971C100.535 38.0287 100.587 38.0633 100.65 38.0749V38.0691Z" fill="#263238"/>
<path d="M88.7558 40.6599C88.7558 40.6599 91.5954 36.9844 90.8697 33.5973C90.8697 33.5973 93.0873 33.1703 95.2876 34.6302C95.2876 34.6302 95.3337 33.4357 95.1897 33.0665C95.1897 33.0665 99.1929 33.3492 101.186 35.9111C101.186 35.9111 101.22 33.505 99.7343 31.797C99.7343 31.797 100.65 31.6009 101.491 32.0048C101.491 32.0048 98.2713 28.6062 92.3788 29.5005C86.4863 30.3891 84.2572 33.6031 84.8735 38.8423C85.4898 44.0816 88.0818 45.5587 88.0818 45.5587C88.0818 45.5587 87.4655 41.5485 87.8284 40.7176C88.1913 39.8867 88.7558 40.6599 88.7558 40.6599Z" fill="#263238"/>
<path d="M85.4495 41.5659C85.9448 42.5814 86.8261 43.3604 87.8917 43.7297C89.3087 44.2086 90.0978 42.9565 89.7695 41.5716C89.4699 40.3426 88.3755 38.577 86.9183 38.7154C85.461 38.8539 84.8504 40.3138 85.4437 41.5716L85.4495 41.5659Z" fill="#EEC1BB"/>
<path d="M97.0789 29.5928C95.5295 29.8525 94.1759 30.216 92.9778 30.6488C91.9353 31.0238 91.0137 31.4393 90.213 31.8893C90.2073 31.8893 90.213 31.8951 90.2015 31.8951C85.8642 34.2897 84.7583 37.3825 84.7583 37.3825C84.7583 37.3825 84.6258 36.9844 84.4357 36.3727C84.2457 35.7726 84.0037 34.9648 83.7791 34.1339C83.3529 32.5702 82.9957 30.943 83.2031 30.4757C85.0521 26.3039 90.9157 25.1325 91.7049 25.3634C92.1829 25.5076 94.0146 26.9905 95.4085 28.1619C96.117 28.7446 96.7103 29.2582 96.958 29.4774C97.0444 29.5467 97.0847 29.5871 97.0847 29.5871L97.0789 29.5928Z" fill="#407BFF"/>
<path opacity="0.6" d="M96.9522 29.4891C96.0709 29.6045 94.798 29.9218 92.9778 30.6489C92.1656 30.972 91.2498 31.3817 90.213 31.8894C90.2072 31.8894 90.213 31.8952 90.2015 31.8952C86.9068 33.4993 85.2594 35.1092 84.43 36.3728C84.2399 35.7727 83.998 34.9649 83.7733 34.134C85.3976 32.5011 89.7234 28.7159 95.397 28.1677C96.1055 28.7505 96.6988 29.264 96.9464 29.4833L96.9522 29.4891Z" fill="white"/>
<path d="M84.8735 38.8423C84.8735 38.8423 80.9279 41.6235 80.6744 40.1406C80.0351 36.3496 90.5183 28.0291 100.754 28.2253C109.158 28.3811 100.114 30.9546 100.114 30.9546C96.7736 29.7948 84.6143 35.0918 84.8735 38.8481V38.8423Z" fill="#407BFF"/>
<path opacity="0.3" d="M84.8735 38.8423C84.8735 38.8423 80.9279 41.6235 80.6744 40.1406C80.0351 36.3496 90.5183 28.0291 100.754 28.2253C109.158 28.3811 100.114 30.9546 100.114 30.9546C96.7736 29.7948 84.6143 35.0918 84.8735 38.8481V38.8423Z" fill="black"/>
<path d="M86.0891 51.0864C86.0891 51.0864 88.0706 53.1521 92.7765 55.3736C92.7765 55.3736 93.8939 54.5139 94.0379 51.8885L97.0504 54.7216L96.3822 59.4704L94.3835 57.2604L93.3525 71.0625C93.3525 71.0625 94.0033 61.8246 91.7339 57.7105L90.219 60.0474C90.219 60.0474 84.747 58.1548 83.1458 53.2502L86.0949 51.0864H86.0891Z" fill="#407BFF"/>
<path opacity="0.6" d="M97.0444 54.7216L96.3763 59.4704L94.3775 57.2604L93.3407 71.0625C93.3407 71.0625 93.9916 61.8246 91.7279 57.7047L90.213 60.0474C90.213 60.0474 84.7411 58.149 83.1398 53.2502L86.0889 51.0864C86.0889 51.0864 88.0703 53.1521 92.7763 55.3736L92.7878 55.3621C92.9145 55.2582 93.9052 54.3523 94.0377 51.8885L97.0444 54.7216Z" fill="white"/>
<path opacity="0.2" d="M93.5481 62.5574C93.381 59.078 92.7762 55.3736 92.7762 55.3736L92.7878 55.362C92.9145 55.2582 93.9052 54.3523 94.0377 51.8884C94.3602 52.5866 94.3314 53.9426 93.6978 54.8889L93.5481 62.5574Z" fill="black"/>
<path d="M68.5439 102.256C68.5439 102.256 69.2351 103.323 69.3043 105.222C69.3791 107.126 68.9932 110.842 68.5439 111.309C68.279 111.58 63.8495 110.34 63.4175 109.238C63.2217 108.736 63.9878 103.623 64.8979 102.256C65.8079 100.888 68.5439 102.256 68.5439 102.256Z" fill="#EEC1BB"/>
<path opacity="0.2" d="M82.9958 65.5233C82.9958 65.5233 80.9107 73.6014 76.9536 76.348C77.2243 73.9303 77.4605 71.3511 77.6103 68.6565C77.7024 67.1793 77.76 65.6964 77.783 64.2192L82.9958 65.5233Z" fill="black"/>
<path d="M72.19 63.9076C72.19 63.9076 66.8389 73.3475 65.8655 76.5384C64.8978 79.735 64.8978 102.256 64.8978 102.256H68.5439C68.5439 102.256 70.8249 79.8851 72.19 76.9942C73.5551 74.1034 78.4453 67.4332 78.4453 67.4332L72.19 63.9019V63.9076Z" fill="#EEC1BB"/>
<path d="M78.3245 53.3946C75.8765 53.0022 69.3043 67.3813 69.3043 67.3813L76.2394 71.732C76.2394 71.732 80.7552 67.5141 82.9958 65.5234C85.2422 63.5327 82.3104 54.0351 78.3245 53.3946Z" fill="#407BFF"/>
<path opacity="0.4" d="M78.3245 53.3946C75.8765 53.0022 69.3043 67.3813 69.3043 67.3813L76.2394 71.732C76.2394 71.732 80.7552 67.5141 82.9958 65.5234C85.2422 63.5327 82.3104 54.0351 78.3245 53.3946Z" fill="white"/>
<path d="M69.3042 66.3772L77.397 71.7261L75.6057 73.3417L68.4287 68.6622L69.3042 66.3772Z" fill="#407BFF"/>
<path opacity="0.6" d="M69.3042 66.3772L77.397 71.7261L75.6057 73.3417L68.4287 68.6622L69.3042 66.3772Z" fill="white"/>
<path d="M103.778 74.9055L109.964 67.4275L111.375 69.3893L105.949 76.0249L103.778 74.9055Z" fill="#407BFF"/>
<path opacity="0.6" d="M103.778 74.9055L109.964 67.4275L111.375 69.3893L105.949 76.0249L103.778 74.9055Z" fill="white"/>
<path d="M127.457 57.1913L133.563 48.7092C133.643 48.5938 133.782 48.5419 133.92 48.5649L137.906 49.2631C138.171 49.3093 138.292 49.6209 138.136 49.8344L131.892 58.3337C131.812 58.4434 131.674 58.5011 131.535 58.478L127.688 57.7567C127.428 57.7106 127.307 57.4047 127.463 57.1913H127.457Z" fill="#263238"/>
<path d="M127.019 56.9432L133.125 48.4611C133.206 48.3457 133.344 48.2938 133.482 48.3169L137.468 49.0151C137.733 49.0612 137.854 49.3728 137.699 49.5863L131.455 58.0857C131.374 58.1953 131.236 58.253 131.098 58.2299L127.25 57.5087C126.991 57.4625 126.87 57.1567 127.025 56.9432H127.019Z" fill="#263238"/>
<path d="M133.373 48.7439L137.192 49.4305L131.092 57.6472L127.388 56.9663L133.373 48.7439Z" fill="white"/>
<path d="M149.558 16.5641C149.558 7.98969 142.623 1.04248 134.064 1.04248C125.505 1.04248 118.57 7.98969 118.57 16.5641C118.57 24.4518 124.445 30.9605 132.048 31.953L132.803 40.1061L134.225 32.0857C142.71 31.9991 149.558 25.0865 149.558 16.5698V16.5641Z" fill="#407BFF"/>
<path opacity="0.8" d="M149.558 16.5641C149.558 7.98969 142.623 1.04248 134.064 1.04248C125.505 1.04248 118.57 7.98969 118.57 16.5641C118.57 24.4518 124.445 30.9605 132.048 31.953L132.803 40.1061L134.225 32.0857C142.71 31.9991 149.558 25.0865 149.558 16.5698V16.5641Z" fill="white"/>
<path d="M141.621 16.564L126.507 10.24L128.984 16.564L126.507 22.8938L141.621 16.564Z" fill="#407BFF"/>
<path opacity="0.3" d="M128.984 16.564H141.621L126.507 22.8938L128.984 16.564Z" fill="black"/>
</g>
<defs>
<clipPath id="clip0_309_1052">
<rect width="288" height="190" fill="white" transform="translate(0 0.666748)"/>
</clipPath>
</defs>
</svg>
