<svg width="223" height="209" viewBox="0 0 223 209" fill="none" xmlns="http://www.w3.org/2000/svg">
<path d="M210.046 10.7774C210.312 8.8431 207.584 7.25217 205.534 7.08776C204.567 7.01039 203.537 7.15546 202.633 6.8363C200.626 6.13514 199.823 3.54323 197.865 2.71634C196.414 2.09738 194.717 2.64864 193.295 3.36431C191.873 4.07999 190.456 4.97458 188.894 5.06162C187.516 5.1535 186.017 4.64092 184.808 5.31308C183.909 5.79664 183.44 6.85081 182.613 7.46494C181.742 8.00639 180.732 8.28199 179.707 8.25798C178.697 8.23182 177.691 8.39586 176.742 8.74155C175.829 9.16225 175.069 10.1294 175.263 11.1207L210.046 10.7774Z" fill="#19181C"/>
<path d="M69.6037 13.0308C70.0196 10.0036 65.7352 7.51812 62.5437 7.257C61.0108 7.13611 59.4247 7.36822 57.974 6.86531C54.8357 5.76762 53.5784 1.71052 50.5174 0.4194C48.2253 -0.547728 45.5899 0.313016 43.3704 1.43005C41.1508 2.54708 38.9554 3.95425 36.4699 4.09449C34.3132 4.23472 31.9727 3.43201 30.082 4.48618C28.6748 5.27439 27.9398 6.904 26.6439 7.87113C25.3479 8.83825 23.7425 9.00267 22.1467 9.08971C20.551 9.17675 18.9407 9.19126 17.5093 9.8489C16.078 10.5066 14.8884 12.0201 15.1882 13.5675L69.6037 13.0308Z" fill="#F5F5F5"/>
<path d="M180.675 30.207C181.081 27.2524 176.913 24.82 173.779 24.5686C172.285 24.4477 170.738 24.675 169.321 24.1817C166.255 23.1131 165.027 19.1527 162.038 17.8954C159.799 16.9283 157.227 17.7939 155.056 18.8625C152.884 19.9312 150.742 21.3287 148.319 21.4835C146.216 21.6188 143.924 20.8403 142.082 21.8655C140.708 22.6343 139.988 24.2156 138.697 25.1537C137.405 26.0918 135.844 26.2611 134.306 26.3433C132.768 26.4255 131.177 26.44 129.775 27.0831C128.372 27.7263 127.217 29.206 127.507 30.7147L180.675 30.207Z" fill="#F5F5F5"/>
<path d="M175.157 207.864C164.949 203.154 160.78 191.761 159.243 181.123C158.981 179.343 158.454 177.52 159.015 175.803C159.576 174.087 161.346 172.694 163.063 173.153C164.484 173.535 165.331 174.962 166.288 176.089C167.565 177.593 169.242 178.706 171.124 179.299C172.352 179.682 173.807 179.783 174.808 178.976C176.177 177.863 175.979 175.731 175.655 173.975C175.045 170.707 174.438 167.438 173.832 164.169C173.503 162.418 173.179 160.624 173.425 158.85C173.672 157.075 174.601 155.324 176.187 154.556C177.773 153.787 180.012 154.381 180.674 156.035C180.868 156.75 181.015 157.477 181.114 158.211C181.293 158.932 181.777 159.662 182.507 159.754C183.237 159.846 183.856 159.212 184.291 158.603C185.785 156.504 186.603 154.004 187.347 151.524C188.092 149.043 188.798 146.524 190.084 144.294C191.371 142.065 193.377 140.126 195.887 139.531C198.397 138.936 201.332 140.015 202.41 142.365C203.489 144.715 202.497 147.495 201.288 149.778C199.489 153.17 197.209 156.284 194.519 159.024C193.977 159.462 193.591 160.062 193.416 160.735C193.247 161.973 194.562 162.936 195.79 163.115C197.173 163.313 198.571 162.926 199.968 162.839C201.366 162.752 202.957 163.09 203.706 164.29C204.751 165.953 203.585 168.105 202.333 169.609C199.818 172.609 196.805 175.152 193.426 177.128C192.217 177.834 190.935 178.492 190.041 179.585C189.146 180.678 188.817 182.37 189.668 183.492C190.519 184.614 192.207 184.725 193.513 184.232C194.818 183.739 195.902 182.781 197.101 182.07C199.349 180.726 202.497 180.329 204.417 182.138C205.679 183.328 206.11 185.218 205.868 186.945C205.574 188.667 204.934 190.312 203.987 191.78C200.935 197.012 196.641 201.553 191.414 204.498C186.187 207.443 181.075 208.898 175.147 207.883" fill="#19181C"/>
<path d="M176.699 200.746C177.422 194.671 178.491 188.642 179.9 182.689C180.268 181.103 180.629 179.54 180.984 177.999C181.346 176.461 181.699 174.933 182.139 173.463C182.992 170.641 184 167.867 185.157 165.155C186.245 162.559 187.367 160.136 188.435 157.878C189.504 155.619 190.553 153.526 191.583 151.678C193.201 148.733 195.051 145.921 197.115 143.269C197.841 142.331 198.431 141.625 198.832 141.146L199.316 140.61C199.364 140.546 199.419 140.488 199.48 140.435C199.439 140.505 199.392 140.572 199.34 140.634L198.904 141.19C198.518 141.673 197.937 142.399 197.236 143.351C195.213 146.023 193.395 148.844 191.796 151.79C190.781 153.651 189.755 155.74 188.692 157.998C187.628 160.257 186.52 162.684 185.442 165.276C184.3 167.98 183.304 170.744 182.458 173.555C182.023 175.005 181.67 176.534 181.312 178.076C180.955 179.619 180.597 181.181 180.234 182.762C178.823 188.703 177.746 194.718 177.009 200.779" fill="#E0E0E0"/>
<path d="M182.231 173.434C182.105 173.205 182.003 172.963 181.927 172.713C181.748 172.23 181.511 171.562 181.23 170.707C180.664 169.004 179.973 166.625 179.214 164C178.455 161.374 177.729 159.009 177.144 157.321C176.854 156.475 176.607 155.793 176.438 155.324C176.332 155.085 176.253 154.836 176.201 154.58C176.344 154.798 176.462 155.032 176.554 155.276C176.762 155.731 177.038 156.403 177.362 157.239C178.005 158.917 178.769 161.277 179.528 163.908C180.287 166.538 180.94 168.845 181.462 170.639L182.062 172.675C182.146 172.921 182.203 173.175 182.231 173.434Z" fill="#E0E0E0"/>
<path d="M204.045 165.165C203.76 165.279 203.465 165.368 203.165 165.431C202.594 165.59 201.767 165.808 200.747 166.113C198.721 166.707 195.95 167.626 192.937 168.777C189.925 169.928 187.241 171.089 185.326 171.983C184.359 172.423 183.595 172.8 183.063 173.057C182.794 173.207 182.513 173.333 182.222 173.434C182.468 173.25 182.73 173.088 183.005 172.95C183.522 172.655 184.277 172.244 185.225 171.775C187.12 170.808 189.799 169.628 192.817 168.468C195.393 167.475 198.019 166.617 200.684 165.895C201.709 165.615 202.546 165.412 203.126 165.31C203.427 165.232 203.735 165.183 204.045 165.165Z" fill="#E0E0E0"/>
<path d="M176.902 200.281C176.824 200.208 176.756 200.125 176.699 200.035L176.162 199.285C175.703 198.632 175.065 197.675 174.286 196.481C172.734 194.063 170.693 190.721 168.483 186.974C166.273 183.226 164.281 179.836 162.782 177.418L160.993 174.561C160.799 174.246 160.64 173.99 160.509 173.777C160.445 173.691 160.394 173.594 160.359 173.492C160.437 173.565 160.506 173.648 160.562 173.739L161.094 174.488C161.578 175.136 162.192 176.098 162.971 177.293C164.523 179.682 166.564 183.052 168.773 186.804C170.983 190.557 172.98 193.932 174.484 196.355L176.269 199.213L176.752 199.996C176.816 200.083 176.866 200.18 176.902 200.281Z" fill="#E0E0E0"/>
<path d="M205.162 185.228C205.078 185.299 204.985 185.359 204.886 185.407L204.064 185.852L201.042 187.472C198.489 188.835 194.983 190.765 191.109 192.902C187.236 195.04 183.711 196.935 181.129 198.246C179.838 198.903 178.783 199.425 178.053 199.769L177.207 200.165C177.111 200.218 177.009 200.257 176.902 200.281C176.985 200.209 177.078 200.148 177.178 200.102L177.995 199.658L181.022 198.038C183.576 196.674 187.081 194.745 190.955 192.607C194.828 190.47 198.348 188.574 200.931 187.288C202.227 186.63 203.276 186.108 204.006 185.765L204.852 185.368C204.95 185.31 205.054 185.262 205.162 185.228Z" fill="#E0E0E0"/>
<path d="M220.21 86.4938L210.931 78.868L210.878 82.9928L184.992 82.6689L184.905 89.4436L210.795 89.7627L210.747 93.7376L220.21 86.4938Z" fill="#19181C"/>
<path d="M206.414 97.4562L200.423 92.5384L200.389 95.198L183.677 94.9901L183.624 99.3615L200.336 99.5694L200.302 102.137L206.414 97.4562Z" fill="#19181C"/>
<path d="M9.54551 36.0339C9.54551 36.0339 4.14893 37.7119 9.2457 49.2981C14.3425 60.8843 17.9982 66.7064 17.9982 66.7064C17.9982 66.7064 18.8638 69.3757 16.6442 69.6561C14.4247 69.9366 9.62287 68.8873 8.4865 71.5179C7.31144 74.2113 9.18767 76.9773 13.1626 79.5305C17.1375 82.0837 25.653 87.9687 26.4171 88.5055C27.1811 89.0422 27.8678 90.2898 26.4171 90.725C24.9664 91.1602 13.975 91.668 14.5311 96.8518C15.0872 102.036 27.331 107.311 28.656 107.911C29.9809 108.511 30.2759 109.11 30.1067 109.845C29.9374 110.58 26.2381 110.406 23.1433 110.677C20.0485 110.948 16.4701 111.813 17.0408 114.778C17.6114 117.742 24.6666 124.309 42.5584 127.108L50.9386 127.887L55.9145 121.04C65.668 105.783 65.4262 96.1458 63.579 93.757C61.7318 91.3682 58.7433 93.462 56.4706 95.6139C54.1978 97.7657 51.8864 100.648 51.2287 100.275C50.5711 99.9031 50.3245 99.3083 50.7452 97.8963C51.1659 96.4843 55.339 83.8342 51.8187 80.0044C48.2983 76.1746 40.6629 84.0277 39.3524 84.8401C38.0419 85.6524 37.5729 84.2985 37.6793 83.3894C37.7857 82.4803 39.0042 72.1755 39.7296 67.5091C40.4549 62.8427 39.6425 59.6173 36.8282 58.6889C34.1057 57.7943 31.7121 62.0738 30.0293 63.5632C28.3465 65.0526 26.9006 62.6058 26.9006 62.6058C26.9006 62.6058 24.9664 56.0245 19.6713 44.535C14.3763 33.0455 9.42945 36.0726 9.42945 36.0726" fill="#19181C"/>
<path d="M51.2576 129.865C47.3891 121.412 40.7836 106.272 35.0388 93.3024C29.2941 80.3332 24.0861 68.6068 20.2659 60.1347L15.7349 50.1056L14.5067 47.3783C14.3713 47.0688 14.2649 46.8367 14.1924 46.6626C14.1198 46.4886 14.0908 46.416 14.0908 46.416C14.0908 46.416 14.1392 46.4982 14.2165 46.653C14.2939 46.8077 14.4051 47.0543 14.5502 47.3541C14.85 47.9828 15.2756 48.8919 15.8268 50.0621C16.9342 52.4122 18.5058 55.831 20.4352 60.0574C24.3037 68.5101 29.5359 80.2317 35.2758 93.196C41.0157 106.16 47.6067 121.315 51.4268 129.787" fill="#E0E0E0"/>
<path d="M15.1396 73.2442C15.3376 73.2911 15.5303 73.3575 15.7151 73.4424C16.0826 73.5827 16.6 73.8003 17.2432 74.0808C18.5246 74.6368 20.2751 75.4492 22.19 76.3777L27.0885 78.7955L28.5779 79.516C28.7663 79.5921 28.9462 79.6877 29.1147 79.8013C28.915 79.7575 28.7204 79.6926 28.5344 79.6079C28.1717 79.4677 27.6495 79.2452 27.0112 78.9648C25.7345 78.37 23.9985 77.5382 22.0643 76.6291L17.1513 74.2597L15.6619 73.5488C15.4762 73.4686 15.3009 73.3663 15.1396 73.2442Z" fill="#E0E0E0"/>
<path d="M29.719 79.2742C29.6513 79.2452 31.1697 75.5604 33.1039 71.0536C35.0382 66.5468 36.663 62.8959 36.7307 62.9249C36.7984 62.9539 35.28 66.6387 33.3457 71.1455C31.4115 75.6523 29.8012 79.3032 29.719 79.2742Z" fill="#E0E0E0"/>
<path d="M37.6406 99.5839C37.7434 99.4086 37.8668 99.2463 38.0081 99.1004L39.0816 97.7947C39.9859 96.6971 41.2287 95.169 42.5343 93.4427C43.8399 91.7163 44.9811 90.1012 45.7935 88.931L46.7606 87.5432C46.8693 87.3694 46.9957 87.2073 47.1378 87.0596C47.0582 87.2528 46.9594 87.4375 46.8429 87.6109C46.6398 87.9542 46.3593 88.4426 45.9483 89.0616C45.1794 90.2608 44.0624 91.8904 42.7471 93.6264C41.4318 95.3624 40.1697 96.876 39.2267 97.9495C38.7432 98.4862 38.366 98.9166 38.0903 99.2019C37.9523 99.3426 37.8018 99.4705 37.6406 99.5839Z" fill="#E0E0E0"/>
<path d="M23.2549 97.0259C23.4462 97.0145 23.6381 97.0291 23.8255 97.0694L25.3729 97.2822C26.6737 97.4707 28.4725 97.7657 30.4552 98.08C32.4378 98.3943 34.2318 98.7135 35.5277 98.9504L37.0606 99.2454C37.2509 99.2724 37.4375 99.321 37.6167 99.3905C37.4291 99.3979 37.2412 99.3865 37.0558 99.3566L35.5132 99.1439C34.2076 98.9553 32.4088 98.6603 30.4261 98.346C28.4435 98.0317 26.6495 97.7077 25.3536 97.4707L23.8255 97.1758C23.63 97.1485 23.4385 97.0981 23.2549 97.0259Z" fill="#E0E0E0"/>
<path d="M27.9697 115.841C28.2145 115.841 28.4588 115.862 28.6999 115.904L30.6825 116.17C32.3557 116.407 34.6623 116.746 37.2058 117.137C39.7494 117.529 42.0414 117.901 43.7194 118.182L45.6875 118.53C45.9311 118.56 46.171 118.615 46.4032 118.694C46.1585 118.694 45.9142 118.673 45.673 118.632L43.6904 118.366C42.0173 118.133 39.7107 117.79 37.1671 117.398C34.6236 117.007 32.3315 116.634 30.6535 116.354L28.6854 116.006C28.4418 115.976 28.2019 115.921 27.9697 115.841Z" fill="#E0E0E0"/>
<path d="M45.9824 118.506C46.1153 118.279 46.2674 118.064 46.437 117.863L47.7378 116.161C48.8306 114.71 50.3393 112.732 51.9399 110.488C53.5405 108.245 54.9429 106.18 55.9438 104.686L57.1286 102.901C57.2745 102.677 57.4361 102.464 57.6121 102.263C57.5055 102.505 57.3794 102.738 57.235 102.959C56.9787 103.394 56.6015 104.018 56.1179 104.782C55.1508 106.315 53.7775 108.404 52.172 110.653C50.5666 112.901 49.0337 114.874 47.9022 116.286C47.3316 116.987 46.8673 117.553 46.5337 117.935C46.3675 118.142 46.183 118.333 45.9824 118.506Z" fill="#E0E0E0"/>
<path d="M171.234 187.849C171.718 188.062 172.155 188.37 172.517 188.756C172.879 189.141 173.16 189.596 173.342 190.093C173.702 191.092 173.83 192.16 173.715 193.216C173.545 195.252 172.457 197.341 171.263 199.019C169.508 197.569 169.034 194.991 168.874 193.661C168.623 191.558 169.45 187.607 171.234 187.859" fill="#FF725E"/>
<path d="M173.356 202.269C173.218 201.694 173.235 201.092 173.405 200.526C173.575 199.959 173.892 199.448 174.323 199.043C174.764 198.648 175.278 198.344 175.837 198.15C176.396 197.956 176.987 197.875 177.578 197.912C177.849 197.902 178.119 197.951 178.37 198.055C178.62 198.159 178.845 198.317 179.029 198.516C179.166 198.731 179.245 198.978 179.257 199.233C179.269 199.487 179.213 199.741 179.096 199.967C178.849 200.416 178.489 200.793 178.052 201.06C176.601 202.027 175.015 202.714 173.322 202.264" fill="#FF725E"/>
<path d="M171.355 208.56C171.36 208.42 171.377 208.281 171.404 208.144C171.447 207.849 171.505 207.467 171.578 207.008C171.729 205.747 172.083 204.519 172.627 203.371C173.195 202.223 174.057 201.247 175.127 200.542C175.454 200.342 175.803 200.179 176.167 200.059C176.267 200.024 176.368 199.995 176.472 199.972C176.539 199.972 176.578 199.948 176.578 199.972C176.092 200.155 175.625 200.387 175.185 200.663C174.154 201.379 173.322 202.346 172.767 203.473C172.231 204.609 171.866 205.818 171.684 207.061C171.597 207.544 171.525 207.922 171.467 208.188C171.441 208.315 171.404 208.44 171.355 208.56Z" fill="#263238"/>
<path d="M170.871 190.886C170.878 190.947 170.878 191.008 170.871 191.069C170.871 191.205 170.9 191.379 170.919 191.592C170.958 192.046 171.006 192.704 171.06 193.526C171.161 195.151 171.272 197.394 171.34 199.885C171.408 202.375 171.413 204.619 171.398 206.249C171.398 207.061 171.398 207.723 171.364 208.183C171.364 208.396 171.364 208.57 171.364 208.705C171.371 208.766 171.371 208.828 171.364 208.889C171.364 208.889 171.364 208.826 171.364 208.705C171.364 208.584 171.364 208.396 171.364 208.183C171.364 207.699 171.364 207.051 171.364 206.249C171.364 204.619 171.33 202.38 171.263 199.89C171.195 197.399 171.103 195.156 171.026 193.531C170.987 192.733 170.958 192.08 170.934 191.597C170.934 191.379 170.934 191.205 170.934 191.069C170.907 191.01 170.886 190.949 170.871 190.886Z" fill="#263238"/>
<path d="M170.436 203.594C170.191 202.37 169.658 201.221 168.881 200.244C168.104 199.267 167.105 198.489 165.968 197.975C165.388 197.718 164.638 197.564 164.179 198.004C163.719 198.444 163.85 199.203 164.101 199.788C164.64 200.997 165.524 202.019 166.643 202.727C167.762 203.434 169.065 203.795 170.388 203.763" fill="#FF725E"/>
<path d="M166.307 199.895C166.434 199.932 166.557 199.98 166.674 200.04C166.817 200.101 166.956 200.17 167.09 200.248C167.273 200.342 167.45 200.445 167.622 200.557C167.811 200.683 168.024 200.818 168.232 200.987C168.439 201.157 168.662 201.34 168.889 201.543C169.363 202.001 169.783 202.51 170.142 203.062C170.493 203.617 170.779 204.211 170.993 204.832C171.086 205.104 171.161 205.382 171.22 205.663C171.277 205.906 171.319 206.151 171.346 206.398C171.372 206.604 171.388 206.81 171.394 207.017C171.407 207.178 171.407 207.34 171.394 207.501C171.397 207.632 171.387 207.763 171.365 207.893C171.331 207.893 171.365 207.327 171.244 206.442C171.205 206.22 171.172 205.958 171.104 205.721C171.036 205.484 170.959 205.19 170.867 204.909C170.649 204.299 170.363 203.715 170.016 203.168C169.662 202.629 169.252 202.128 168.792 201.674C168.591 201.476 168.38 201.289 168.159 201.113C167.956 200.939 167.748 200.804 167.564 200.673C166.815 200.141 166.292 199.938 166.307 199.895Z" fill="#263238"/>
<path d="M26.1502 196.553C26.595 194.822 25.4587 193.086 24.2159 191.829C22.9732 190.571 21.4209 189.45 20.7633 187.791C19.6898 185.102 21.1308 181.625 19.3126 179.382C18.1955 178.081 16.2613 177.641 15.3183 176.243C14.8775 175.464 14.5856 174.61 14.4576 173.724C13.4422 169.257 11.2442 165.145 8.09388 161.819C7.88205 165.799 8.74561 169.762 10.5939 173.294C11.3338 174.706 12.2429 176.079 12.4895 177.646C12.886 180.204 11.4595 182.834 12.0881 185.344C12.8038 188.216 16.0292 190.136 16.1839 193.081C16.3096 195.576 14.1336 197.772 14.298 200.267C14.4285 201.327 14.808 202.341 15.4054 203.226C17.3396 206.437 20.1733 208.647 24.477 208.574L29.7431 208.758L26.1502 196.553Z" fill="#FF725E"/>
<g opacity="0.3">
<path d="M26.1502 196.553C26.595 194.822 25.4587 193.086 24.2159 191.829C22.9732 190.571 21.4209 189.45 20.7633 187.791C19.6898 185.102 21.1308 181.625 19.3126 179.382C18.1955 178.081 16.2613 177.641 15.3183 176.243C14.8775 175.464 14.5856 174.61 14.4576 173.724C13.4422 169.257 11.2442 165.145 8.09388 161.819C7.88205 165.799 8.74561 169.762 10.5939 173.294C11.3338 174.706 12.2429 176.079 12.4895 177.646C12.886 180.204 11.4595 182.834 12.0881 185.344C12.8038 188.216 16.0292 190.136 16.1839 193.081C16.3096 195.576 14.1336 197.772 14.298 200.267C14.4285 201.327 14.808 202.341 15.4054 203.226C17.3396 206.437 20.1733 208.647 24.477 208.574L29.7431 208.758L26.1502 196.553Z" fill="black"/>
</g>
<path d="M30.8073 208.898C31.289 208.972 31.7797 208.962 32.258 208.869C32.8414 208.78 33.4148 208.635 33.9698 208.434C34.7354 208.17 35.4513 207.779 36.0878 207.279C36.4716 206.972 36.7711 206.572 36.9583 206.118C37.116 205.609 37.1991 205.079 37.2049 204.546C37.2141 203.977 37.2561 203.409 37.3306 202.844C37.4307 202.243 37.6493 201.668 37.9737 201.152C38.5927 200.059 39.6227 199.024 39.9564 197.544C40.29 196.065 40.0579 194.512 39.8113 192.931C39.5647 191.35 39.3277 189.628 39.937 187.979C40.5463 186.331 41.6585 184.846 42.2339 182.989C42.8094 181.132 42.5386 179.096 42.6643 177.109C42.7002 176.099 42.9318 175.105 43.3461 174.183C43.7765 173.255 44.3665 172.375 44.8258 171.393C45.764 169.411 45.9284 167.162 46.1847 164.957C46.3072 163.845 46.4329 162.716 46.5618 161.572C46.6394 160.427 46.8355 159.292 47.147 158.187C47.5022 157.077 47.922 155.989 48.4042 154.928C48.655 154.378 48.8604 153.809 49.0183 153.226C49.1054 152.626 49.1619 152.023 49.1876 151.417C49.2446 150.2 49.1977 148.98 49.0474 147.771C48.9023 146.557 48.6847 145.353 48.5638 144.135C48.5638 144.062 48.5638 143.99 48.5638 143.922L48.5348 143.68L48.322 143.787C47.2043 144.355 46.233 145.175 45.4835 146.18C44.7543 147.163 44.1682 148.244 43.7427 149.391C42.8626 151.654 42.5483 154.024 42.1034 156.287C41.6585 158.55 41.1024 160.774 39.9418 162.655C39.3616 163.593 38.6652 164.449 38.0511 165.368C37.3997 166.259 36.9538 167.283 36.7455 168.366C36.436 170.595 37.6643 172.554 37.408 174.522C37.2842 175.493 36.9544 176.426 36.4408 177.259C35.9573 178.1 35.4012 178.879 34.8693 179.677C34.3262 180.439 33.852 181.248 33.4524 182.095C33.0818 182.929 32.864 183.823 32.8093 184.735C32.6787 186.509 32.9302 188.192 32.8093 189.783C32.653 191.308 32.1961 192.788 31.465 194.135C30.8315 195.431 30.1207 196.606 29.5307 197.743C29.2357 198.308 28.9601 198.865 28.7328 199.421C28.5124 199.956 28.3503 200.514 28.2493 201.084C28.0899 202.079 28.0768 203.093 28.2106 204.092C28.3476 205.483 28.8682 206.809 29.7145 207.922C29.8422 208.095 29.9846 208.257 30.14 208.405C30.2451 208.514 30.3619 208.612 30.4882 208.695C30.6816 208.84 30.788 208.908 30.788 208.908C30.4232 208.605 30.0924 208.263 29.8015 207.888C28.9793 206.776 28.4775 205.459 28.3508 204.082C28.2301 203.096 28.2529 202.098 28.4185 201.118C28.5206 200.56 28.6827 200.016 28.9021 199.493C29.1245 198.952 29.3856 198.4 29.7048 197.839C30.3044 196.713 31.0201 195.547 31.6681 194.242C32.4019 192.876 32.8603 191.379 33.0172 189.836C33.1526 188.212 32.9108 186.524 33.0414 184.788C33.0986 183.906 33.3115 183.042 33.67 182.235C34.0606 181.4 34.5285 180.603 35.0675 179.856C35.5994 179.077 36.1652 178.294 36.6584 177.438C37.1928 176.573 37.5358 175.603 37.6643 174.594C37.9157 172.491 36.6971 170.523 37.0163 168.453C37.2192 167.414 37.6503 166.433 38.2784 165.581C38.878 164.681 39.584 163.825 40.174 162.863C41.3732 160.929 41.9535 158.661 42.3887 156.388C42.8239 154.115 43.1527 151.765 44.0183 149.551C44.432 148.434 45.0036 147.382 45.7156 146.427C46.4307 145.46 47.3612 144.674 48.4332 144.13L48.1866 143.994C48.1866 144.062 48.1866 144.135 48.1866 144.207C48.322 145.44 48.5396 146.649 48.6702 147.848C48.8204 149.04 48.8673 150.242 48.8104 151.441C48.7873 152.029 48.7341 152.615 48.6508 153.197C48.4967 153.758 48.2995 154.306 48.0609 154.836C47.5711 155.909 47.1464 157.01 46.7891 158.134C46.4736 159.252 46.2743 160.399 46.1943 161.558C46.0686 162.689 45.9477 163.816 45.822 164.942C45.5705 167.157 45.4061 169.367 44.5067 171.287C44.0618 172.254 43.4719 173.12 43.056 174.082C42.6289 175.038 42.3892 176.067 42.35 177.114C42.2339 179.145 42.4999 181.132 41.9486 182.917C41.3974 184.701 40.2562 186.2 39.6759 187.902C39.0956 189.604 39.3132 191.398 39.5647 192.97C39.8161 194.541 40.0724 196.099 39.7339 197.501C39.3954 198.903 38.4283 199.919 37.7997 201.06C37.4701 201.605 37.25 202.21 37.1517 202.839C37.0826 203.412 37.0455 203.989 37.0405 204.566C37.0401 205.083 36.9635 205.598 36.8132 206.094C36.6349 206.521 36.3542 206.898 35.996 207.191C35.3784 207.691 34.6823 208.085 33.936 208.357C33.3886 208.561 32.8237 208.715 32.2483 208.816C31.8938 208.879 31.5348 208.913 31.1748 208.918C30.933 208.894 30.8073 208.898 30.8073 208.898Z" fill="#263238"/>
<path d="M47.4466 146.857C47.4256 146.909 47.4094 146.962 47.3982 147.017C47.3644 147.142 47.3257 147.297 47.2822 147.5C47.1758 147.916 47.0549 148.54 46.8566 149.323C46.6584 150.107 46.17 150.987 45.7638 152.075C45.3576 153.163 44.9079 154.406 44.5113 155.808C44.1148 157.21 43.7522 158.772 43.3798 160.445C43.0618 162.23 42.4936 163.96 41.6922 165.586C41.2618 166.442 40.7782 167.307 40.3914 168.255C40.0125 169.226 39.7574 170.242 39.6322 171.277C39.3713 173.417 38.9952 175.541 38.5055 177.641L35.5316 189.807C34.5934 193.54 33.7472 196.901 33.0315 199.735C32.3159 202.569 31.7791 204.822 31.3777 206.432C31.194 207.201 31.0538 207.815 30.9474 208.255C30.9039 208.449 30.87 208.608 30.841 208.739C30.8356 208.794 30.8356 208.849 30.841 208.903C30.8654 208.854 30.8849 208.802 30.899 208.749C30.9377 208.623 30.9812 208.468 31.0344 208.265C31.1553 207.825 31.3197 207.221 31.518 206.456C31.9387 204.851 32.5383 202.588 33.2733 199.783C34.0083 196.979 34.8787 193.598 35.841 189.875C36.8033 186.152 37.7753 182.022 38.8488 177.704C39.3313 175.596 39.701 173.463 39.9562 171.316C40.0734 170.306 40.3188 169.314 40.6864 168.366C41.0587 167.443 41.5374 166.582 41.9678 165.716C42.8962 164 43.2783 162.157 43.6506 160.494C44.0229 158.83 44.3518 157.263 44.7338 155.861C45.1158 154.459 45.5268 153.211 45.933 152.133C46.3392 151.055 46.7841 150.155 46.9775 149.348C47.171 148.54 47.258 147.926 47.345 147.505C47.3789 147.307 47.4031 147.152 47.4272 147.022C47.4402 146.968 47.4467 146.913 47.4466 146.857Z" fill="#263238"/>
<path d="M31.7351 208.913C35.1781 206.872 36.1646 200.663 34.7284 196.93C33.2922 193.197 30.7825 189.778 30.3763 185.808C30.0765 182.742 31.0823 179.604 30.3763 176.621C29.4092 172.583 25.473 169.454 25.5407 165.3C25.5697 162.974 26.8947 160.779 26.7883 158.453C26.6577 155.6 24.4672 153.337 23.1084 150.822C21.0339 146.954 20.8985 142.423 20.207 138.109C19.5155 133.796 17.852 129.168 14.027 127.05C13.4613 130.711 12.499 133.221 12.7988 138.172C12.91 139.952 14.9796 143.366 15.2601 147.273C15.4294 149.609 15.5454 151.944 15.6905 154.28C15.8356 156.615 15.9758 158.869 16.793 160.997C17.4168 162.626 18.4178 164.111 18.882 165.794C19.7573 168.956 18.6064 172.389 19.3124 175.595C19.912 178.313 21.7931 180.653 22.1751 183.41C22.7167 187.278 20.207 191.302 21.4933 195.015C22.1267 196.848 23.6354 198.318 24.0658 200.214C24.3946 201.664 24.032 203.236 24.3366 204.711C24.8202 207.085 29.3512 208.932 31.7738 208.782" fill="#FF725E"/>
<path d="M14.9414 130.667C14.9349 130.737 14.9349 130.806 14.9414 130.875C14.9414 131.03 14.9897 131.228 15.0187 131.475C15.1009 132.007 15.188 132.781 15.3669 133.786C15.5458 134.792 16.0777 135.933 16.4936 137.307C16.9095 138.68 17.3689 140.252 17.7557 142.017C18.1426 143.782 18.4762 145.735 18.8244 147.819C19.1726 149.904 19.5449 152.21 20.5846 154.401C21.0681 155.498 21.6097 156.601 22.0353 157.786C22.4319 158.99 22.6756 160.239 22.7606 161.504C22.9527 164.191 23.2901 166.866 23.7713 169.517C24.8206 174.943 25.8264 180.117 26.7403 184.822L29.3177 197.293C30.0576 200.823 30.6572 203.686 31.0731 205.692C31.2858 206.66 31.4503 207.428 31.5566 207.97C31.6147 208.217 31.6582 208.41 31.6969 208.56C31.7356 208.71 31.7452 208.763 31.7549 208.758C31.7522 208.69 31.7441 208.622 31.7307 208.555C31.7017 208.4 31.6679 208.202 31.6243 207.956C31.5228 207.409 31.3777 206.64 31.194 205.663C30.7974 203.652 30.2268 200.784 29.545 197.245C28.8632 193.705 27.9928 189.459 27.0547 184.764C26.1165 180.068 25.1397 174.889 24.1001 169.473C23.6192 166.831 23.2802 164.164 23.0846 161.485C22.9939 160.195 22.7421 158.921 22.3351 157.694C21.9144 156.499 21.3679 155.392 20.8844 154.309C19.8495 152.152 19.482 149.899 19.1145 147.805C18.747 145.711 18.4134 143.748 18.0023 141.978C17.6439 140.385 17.2049 138.812 16.687 137.263C16.2518 135.885 15.7199 134.758 15.5071 133.772C15.2944 132.785 15.2025 132.002 15.1009 131.48C15.0574 131.233 15.0187 131.035 14.9897 130.885C14.9828 130.811 14.9666 130.738 14.9414 130.667Z" fill="#263238"/>
<path d="M121.679 208.753H54.3811C46.2476 208.72 39.3906 201.785 39.3906 193.652L40.1063 24.1576C40.1145 22.2192 40.5053 20.3015 41.2561 18.5144C42.007 16.7273 43.1032 15.106 44.4819 13.7435C45.8606 12.381 47.4948 11.3039 49.2906 10.5742C51.0864 9.84449 53.0085 9.4764 54.9469 9.49105L122.554 9.80537C124.487 9.81361 126.4 10.2027 128.183 10.9503C129.966 11.698 131.585 12.7896 132.946 14.1628C134.307 15.536 135.384 17.1639 136.116 18.9535C136.848 20.7431 137.22 22.6593 137.211 24.5928L136.495 194.092C136.487 196.028 136.097 197.943 135.348 199.729C134.598 201.514 133.504 203.134 132.128 204.495C130.752 205.857 129.12 206.934 127.327 207.665C125.534 208.396 123.615 208.765 121.679 208.753Z" fill="#263238"/>
<path d="M122.584 16.2464L109.474 16.1836C108.611 16.2001 107.79 16.5581 107.191 17.179C106.592 17.8 106.264 18.6332 106.278 19.496V21.8751C106.292 22.7379 105.964 23.5711 105.364 24.1921C104.765 24.813 103.944 25.171 103.081 25.1875L77.53 25.0715C77.1025 25.0602 76.6815 24.9648 76.291 24.7908C75.9005 24.6167 75.548 24.3674 75.2539 24.0571C74.9598 23.7468 74.7296 23.3815 74.5767 22.9823C74.4238 22.583 74.351 22.1575 74.3626 21.7301V19.3509C74.3847 18.4873 74.063 17.6502 73.4682 17.0236C72.8733 16.397 72.0541 16.0323 71.1904 16.0095H66.5821L55.1071 15.9563C53.7526 15.9506 52.4102 16.2117 51.1566 16.7248C49.903 17.2378 48.7627 17.9928 47.8009 18.9465C46.8391 19.9003 46.0745 21.0341 45.5509 22.2833C45.0273 23.5326 44.7548 24.8727 44.7491 26.2272L44.048 191.669C44.0416 193.023 44.3021 194.366 44.8147 195.619C45.3272 196.873 46.0817 198.013 47.0351 198.975C47.9884 199.937 49.122 200.701 50.3709 201.225C51.6199 201.749 52.9597 202.021 54.314 202.027L121.786 202.336C123.141 202.343 124.484 202.083 125.738 201.571C126.993 201.058 128.134 200.303 129.096 199.349C130.059 198.395 130.824 197.261 131.348 196.011C131.871 194.761 132.143 193.421 132.149 192.066L132.85 26.6044C132.861 23.8697 131.786 21.2423 129.861 19.2999C127.936 17.3576 125.318 16.2592 122.584 16.2464Z" fill="#F5F5F5"/>
<path d="M93.9462 171.05C93.8688 173.047 93.7963 174.918 93.7334 176.48H103.405L102.22 170.528L93.9462 171.05Z" fill="#F5F5F5"/>
<path d="M54.5557 173.54L54.6379 176.48H92.7669C92.8298 174.831 92.9023 172.999 92.9748 171.113L54.5557 173.54Z" fill="#F5F5F5"/>
<path d="M102.729 170.494L103.918 176.48H121.791L121.573 169.304L102.729 170.494Z" fill="#F5F5F5"/>
<path d="M94.9134 86.842L98.2936 67.2528L89.4443 66.5952V86.842H94.9134Z" fill="#F5F5F5"/>
<path d="M53.7576 162.665L44.154 166.427L44.125 173.231L54.0429 172.607L53.7576 162.665Z" fill="#F5F5F5"/>
<path d="M53.7144 161.137L53.1873 142.892H53.1825V136.461L44.2752 137.403L44.1592 164.87L53.7096 161.127L53.7144 161.137Z" fill="#F5F5F5"/>
<path d="M53.1827 122.094L44.348 120.928L44.2852 135.943L53.1827 135V122.094Z" fill="#F5F5F5"/>
<path d="M119.039 136.731L118.667 141.959L108.231 143.085L109.039 147.22L120.881 146.325L120.707 140.397L121.65 136.465L119.039 136.731Z" fill="#F5F5F5"/>
<path d="M100.228 147.882L108.55 147.259L106.737 137.969L99.4736 138.704L100.228 147.882Z" fill="#F5F5F5"/>
<path d="M100.311 148.849L100.944 156.591L102.076 167.215L102.535 169.536L121.544 168.337L120.91 147.297L100.311 148.849Z" fill="#F5F5F5"/>
<path d="M67.5917 112.287L68.3218 113.544L53.665 122.084V142.394L69.1391 141.301L98.9508 138.269L97.8628 124.986L69.376 121.262L69.5646 119.811L97.7419 123.491L95.8947 100.991L68.0027 103.68L67.9108 102.713L95.8125 100.029L94.8453 88.2878H68.0027L44.4676 92.5867L44.3516 119.468L53.2733 120.633L67.5917 112.287ZM55.1641 140.46C55.1641 140.46 55.2753 123.733 55.1641 123.109L67.1274 116.746L68.6797 139.604L55.1641 140.46Z" fill="#F5F5F5"/>
<path d="M118.056 136.828L107.22 137.921L108.042 142.133L117.757 141.083L118.056 136.828Z" fill="#F5F5F5"/>
<path d="M94.0821 167.467C94.0482 168.347 94.0144 169.222 93.9854 170.078L102.051 169.57L101.635 167.486L94.0821 167.467Z" fill="#F5F5F5"/>
<path d="M76.708 86.842L78.1297 80.4009H88.9615V66.5613L55.0975 64.0516V77.045L44.522 79.4386L44.4736 91.107L67.8927 86.842H76.708Z" fill="#F5F5F5"/>
<path d="M99.3047 48.3358L99.0146 47.151L111.945 42.0349L103.536 25.1489C103.376 25.1747 103.214 25.1877 103.052 25.1875L88.7969 25.1198L89.1837 48.7516L99.3047 48.3358Z" fill="#F5F5F5"/>
<path d="M118.899 39.2835V16.2271L109.474 16.1836C108.611 16.2001 107.79 16.5581 107.191 17.1791C106.592 17.8 106.263 18.6332 106.278 19.496V21.8751C106.277 22.4064 106.152 22.9301 105.912 23.4039C105.671 23.8777 105.323 24.2883 104.895 24.6024L113.309 41.4982L118.899 39.2835Z" fill="#F5F5F5"/>
<path d="M70.2903 40.2699L69.1975 15.9998H66.5814L56.354 15.9515L52.002 37.6587L70.2903 40.2699ZM67.9596 18.4563L68.3077 38.2244L54.7147 36.237L57.6887 18.4563H67.9596Z" fill="#F5F5F5"/>
<path d="M70.7843 40.3618V40.5697C70.7843 42.4605 70.8423 45.8889 70.8713 49.5157L88.681 48.7903L88.3135 25.1198L77.5348 25.0715C77.1074 25.0602 76.6864 24.9648 76.2959 24.7908C75.9053 24.6167 75.5529 24.3674 75.2588 24.0571C74.9646 23.7468 74.7345 23.3815 74.5816 22.9823C74.4286 22.583 74.3559 22.1575 74.3675 21.7301V19.3509C74.3896 18.4873 74.0678 17.6502 73.473 17.0236C72.8782 16.397 72.0589 16.0323 71.1953 16.0095H69.6914L70.7794 40.3618H70.7843Z" fill="#F5F5F5"/>
<path d="M50.561 37.4604L54.8744 15.9708C52.1805 16.0163 49.6117 17.1156 47.7187 19.0329C45.8258 20.9503 44.7596 23.533 44.7486 26.2272L44.7002 36.943L44.7486 36.6287L50.561 37.4604Z" fill="#F5F5F5"/>
<path d="M53.6464 63.9452L44.5892 63.2731L44.5264 77.9492L53.6464 75.8893V63.9452Z" fill="#F5F5F5"/>
<path d="M50.4643 37.915L44.7002 37.0881L44.5986 60.8504L45.8414 60.9423L50.4643 37.915Z" fill="#F5F5F5"/>
<path d="M68.7571 160.861L68.9119 141.78L53.6699 142.858L54.2115 161.548L68.7571 160.861Z" fill="#F5F5F5"/>
<path d="M71.5621 156.456L93.1484 166.795C93.4095 160.025 93.6319 153.738 93.6319 153.318H94.1155L94.3476 152.863C94.6523 153.018 94.6523 153.018 94.4927 157.621C94.4008 160.189 94.2751 163.608 94.1445 167.031H101.562L100.465 156.664L99.014 138.772L70.8174 141.615L71.5621 156.456Z" fill="#F5F5F5"/>
<path d="M124.459 124.792L124.213 122.278L98.3467 124.966L99.4347 138.221L121.771 135.967L124.459 124.792Z" fill="#F5F5F5"/>
<path d="M88.9604 81.8516H79.2939L78.1914 86.842H88.9604V81.8516Z" fill="#F5F5F5"/>
<path d="M120.465 83.5344L96.263 81.8613L95.2959 87.577L96.3162 99.9853L121.839 97.5336L120.465 83.5344ZM97.1528 87.5673L98.4536 83.9599L119.474 85.2898L120.712 95.609L97.8878 98.317L97.1528 87.5673Z" fill="#F5F5F5"/>
<path d="M122.975 109.468L121.911 98.4959L96.374 100.952L97.3363 112.63L122.975 109.468Z" fill="#F5F5F5"/>
<path d="M54.0718 173.574L44.1635 174.198L44.1249 173.555L44.1104 176.48H54.154L54.0718 173.574Z" fill="#F5F5F5"/>
<path d="M132.67 33.8337L132.815 34.2012L132.849 26.6044C132.861 23.8697 131.786 21.2423 129.86 19.2999C127.935 17.3576 125.318 16.2593 122.583 16.2465H119.367V39.1045L132.67 33.8337Z" fill="#F5F5F5"/>
<path d="M93.1196 167.322L71.0932 156.77L70.3147 141.644L69.3959 141.741L69.2364 161.321L54.2217 162.031V162.471L54.5118 172.563L92.9987 170.146C93.0471 169.203 93.0857 168.26 93.1196 167.322ZM55.1646 163.279L76.1803 161.804L89.8507 168.149L55.1646 170.025V163.279Z" fill="#F5F5F5"/>
<path d="M126.409 59.2208L127.313 53.9016C119.411 51.0824 118.865 42.8425 118.889 40.3618L113.729 42.4024L121.496 57.9877L126.409 59.2208Z" fill="#F5F5F5"/>
<path d="M98.2259 123.52L108.966 122.403L106.853 112.916L97.4521 114.076L98.2259 123.52Z" fill="#F5F5F5"/>
<path d="M120.499 67.4172L100.441 67.4124L98.7777 67.2867L96.5098 80.4251L120.32 82.0692L119.769 76.3583L122.114 67.925L120.499 67.4172Z" fill="#F5F5F5"/>
<path d="M120.01 65.0236L120.262 58.7372L112.38 42.9102L100.155 47.7458L104.357 65.0236H120.01ZM111.901 44.8541L119.125 58.597L118.081 62.8765L105.721 62.393L102.631 49.3948L111.901 44.8541Z" fill="#F5F5F5"/>
<path d="M123.13 140.648L123.502 152.96L132.192 152.471L132.221 152.955L123.517 153.443L123.957 168.182L132.177 167.665L132.235 168.627L123.986 169.149L124.208 176.48H132.216L132.39 135.382L124.199 136.209L123.13 140.648Z" fill="#F5F5F5"/>
<path d="M70.3049 40.7632L51.9004 38.1181L47.2969 61.0487L70.3871 62.7605C70.4789 59.2208 70.4209 48.4035 70.3049 40.7632Z" fill="#F5F5F5"/>
<path d="M100.576 64.9994H103.362L99.4206 48.8145L89.1787 49.2352L89.4253 64.1725L100.576 64.9994Z" fill="#F5F5F5"/>
<path d="M70.8564 62.7943L88.9369 64.1338L88.6951 49.2545L70.9048 49.9799C70.9048 55.0138 70.9338 60.3814 70.8564 62.7943Z" fill="#F5F5F5"/>
<path d="M123.116 110.914L107.332 112.858L109.455 122.355L124.073 120.832L123.116 110.914Z" fill="#F5F5F5"/>
<path d="M127.394 53.418L128.405 47.417L132.757 47.7555L132.815 34.8395L119.377 40.1587C119.101 49.2207 124.812 52.4171 127.394 53.418Z" fill="#F5F5F5"/>
<path d="M122.22 76.5759L122.766 82.2385L132.612 82.9203L132.66 71.2567L124.42 68.6503L122.22 76.5759Z" fill="#F5F5F5"/>
<path d="M126.902 124.986L124.319 135.735L132.39 134.918L132.438 123.651C129.963 122.998 127.801 122.466 126.636 122.239L126.902 124.986Z" fill="#F5F5F5"/>
<path d="M121.457 65.1783L132.671 68.7228L132.7 62.3446L121.684 59.4964L121.457 65.1783Z" fill="#F5F5F5"/>
<path d="M126.515 120.74C127.419 120.875 129.131 121.223 132.463 122.118L132.569 97.4562L124.349 98.2493L126.515 120.74Z" fill="#F5F5F5"/>
<path d="M124.227 97.3015L132.554 96.4988L132.603 84.3758L122.907 83.7036L124.227 97.3015Z" fill="#F5F5F5"/>
<path d="M128.323 53.6985C129.9 54.1756 131.368 54.5496 132.729 54.8204V48.7033L129.184 48.4276L128.323 53.6985Z" fill="#F5F5F5"/>
<path d="M127.352 59.4626L132.705 60.8504L132.729 55.3184C131.341 55.0428 129.827 54.6656 128.241 54.1772L127.352 59.4626Z" fill="#F5F5F5"/>
<path d="M132.235 168.627L132.177 167.66L123.957 168.177L123.517 153.438L132.221 152.955L132.192 152.471L123.488 152.955L123.13 140.648L124.199 136.209L132.39 135.382V134.899L124.319 135.716L126.902 124.986L126.636 122.239C127.801 122.466 129.963 122.998 132.438 123.651V122.142C129.107 121.267 127.395 120.899 126.491 120.764L124.315 98.2879L132.535 97.4949V96.5278L124.208 97.3305L122.888 83.7327L132.559 84.4048V82.9541L122.714 82.2723L122.168 76.6098L124.368 68.6841L132.588 71.2906V68.7567L121.375 65.217L121.602 59.5303L132.617 62.3785V60.8843L127.264 59.4964L128.154 54.2111C129.76 54.6946 131.254 55.0766 132.642 55.3523V54.8687C131.281 54.5979 129.813 54.224 128.236 53.7468L129.121 48.476L132.666 48.7516V47.7845L128.314 47.446L127.395 53.418C124.813 52.4509 119.102 49.2449 119.377 40.1587L132.816 34.8395V34.2254L132.671 33.8578L119.382 39.1142V16.2561H118.899V39.3125L113.299 41.5272L104.885 24.6314C104.486 24.9193 104.023 25.1067 103.536 25.1779L111.945 42.0639L99.0145 47.1317L99.3047 48.3164L89.1498 48.7323L88.7968 25.1198H88.3132L88.7001 48.771L70.8904 49.4963C70.8614 45.8502 70.8227 42.4411 70.8034 40.5504V40.3618L69.7105 16.0192H69.227L70.3198 40.2893L52.0266 37.6635L56.3787 15.9563H55.1311C55.0537 15.9563 54.9763 15.9563 54.8989 15.9563L50.5614 37.4604L44.7586 36.6287L44.7103 36.943V37.1122L50.4743 37.9391L45.8515 60.9665L44.6087 60.8746V63.2924L53.6659 63.9646V75.9086L44.5458 77.9686V79.458L55.1214 77.0643V64.0564L88.9709 66.5661V80.4009H78.1391L76.7077 86.842H67.8923L44.4733 91.1022V92.5867L68.0035 88.2927H94.8317L95.7988 100.034L67.9117 102.742L68.0035 103.709L95.8955 101.025L97.7427 123.525L69.5655 119.845L69.3769 121.296L97.8636 125.019L98.9517 138.269L69.1302 141.282L53.6562 142.374V122.084L68.313 113.535L67.5828 112.277L53.2742 120.633L44.3524 119.454V120.904L53.1823 122.084V134.99L44.2847 135.958V137.408L53.192 136.441V142.877L53.7191 161.122L44.1687 164.865V166.422L53.7723 162.66L54.0576 172.602L44.1396 173.226V173.55L44.1783 174.193L54.0866 173.569L54.1688 176.471H54.6523L54.5701 173.531L92.9893 171.113C92.9168 172.999 92.8442 174.831 92.7814 176.48H93.7485C93.8114 174.923 93.8839 173.047 93.9613 171.05L102.254 170.528L103.439 176.48H103.923L102.733 170.494L121.592 169.304L121.81 176.48H124.228M94.0048 170.078C94.0338 169.222 94.0677 168.347 94.1015 167.467H101.655L102.071 169.551L94.0048 170.078ZM102.554 169.536L102.071 167.215L100.944 156.577L100.31 148.84L120.91 147.288L121.544 168.327L102.554 169.536ZM107.24 137.921L118.081 136.828L117.777 141.083L108.062 142.133L107.24 137.921ZM106.756 137.969L108.57 147.259L100.248 147.882L99.4932 138.695L106.756 137.969ZM120.901 146.33L109.039 147.229L108.231 143.095L118.667 141.968L119.034 136.741L121.65 136.475L120.712 140.397L120.901 146.33ZM106.877 112.916L108.99 122.403L98.2263 123.535L97.4526 114.091L106.877 112.916ZM109.479 122.355L107.356 112.858L123.14 110.923L124.107 120.841L109.479 122.355ZM120.345 82.0692L96.5338 80.4251L98.8018 67.2866L100.465 67.4124H120.528L122.114 67.925L119.769 76.3583L120.345 82.0692ZM118.894 40.3279C118.87 42.8183 119.416 51.0582 127.318 53.8677L126.408 59.2208L121.495 57.9539L113.729 42.3686L118.894 40.3279ZM112.385 42.9005L120.262 58.7372L120.011 65.0236H104.358L100.156 47.7652L112.385 42.9005ZM99.4352 48.8145L103.362 65.0236H100.576L89.4254 64.1967L89.1788 49.2594L99.4352 48.8145ZM88.7098 49.2545L88.9516 64.1338L70.8711 62.7943C70.9484 60.3765 70.9339 55.0138 70.8711 49.9799L88.7098 49.2545ZM51.9154 38.1326L70.3198 40.7777C70.4117 48.418 70.4939 59.245 70.402 62.775L47.3118 61.0632L51.9154 38.1326ZM98.3085 67.2673L94.9236 86.8565H89.4448V66.5951L98.3085 67.2673ZM79.2948 81.8516H88.9661V86.842H78.1922L79.2948 81.8516ZM95.2766 87.577L96.2437 81.8613L120.446 83.5344L121.8 97.5336L96.2775 99.9853L95.2766 87.577ZM121.911 98.4959L122.975 109.468L97.3462 112.63L96.3791 100.952L121.911 98.4959ZM98.3472 124.986L124.213 122.297L124.46 124.811L121.771 135.987L99.4352 138.221L98.3472 124.986ZM100.465 156.659L101.563 167.027H94.116C94.2466 163.603 94.3723 160.184 94.4642 157.616C94.6238 153.013 94.6238 153.013 94.3191 152.858L94.087 153.313H93.6034C93.6034 153.714 93.3955 160.034 93.1199 166.79L71.5432 156.451L70.7792 141.591L98.9758 138.748L100.465 156.659ZM68.9078 141.799L68.7579 160.881L54.2123 161.567L53.6707 142.877L68.9078 141.799ZM54.2365 162.5V162.06L69.2511 161.35L69.4107 141.77L70.3295 141.673L71.108 156.799L93.1344 167.351C93.1005 168.289 93.0618 169.232 93.028 170.17L54.5411 172.588L54.2365 162.5Z" fill="white"/>
<path d="M76.1807 161.804L55.165 163.279V170.025L89.8559 168.144L76.1807 161.804Z" fill="#EBEBEB"/>
<path d="M119.474 85.2897L98.4531 83.9599L97.1523 87.5673L97.8632 98.317L120.687 95.609L119.474 85.2897Z" fill="#EBEBEB"/>
<path d="M44.1099 170.078L44.0615 188.25V191.954C44.1281 194.634 45.2359 197.181 47.1498 199.057C49.0637 200.933 51.6331 201.99 54.3131 202.003L121.785 202.312C123.14 202.319 124.483 202.059 125.738 201.547C126.992 201.034 128.133 200.279 129.096 199.325C130.058 198.371 130.823 197.237 131.347 195.987C131.87 194.737 132.143 193.397 132.148 192.041L132.215 170.078H44.1099Z" fill="#EBEBEB"/>
<path d="M68.3078 38.2244L67.9597 18.4563H57.6936L54.7148 36.237L68.3078 38.2244Z" fill="#EBEBEB"/>
<path d="M118.082 62.8524L119.126 58.5728L111.902 44.8299L102.632 49.3899L105.722 62.3882L118.082 62.8524Z" fill="#EBEBEB"/>
<path d="M55.165 123.09C55.2763 123.714 55.165 140.44 55.165 140.44L68.7048 139.584L67.1526 116.726L55.165 123.09Z" fill="#EBEBEB"/>
<path d="M100.232 136.673L99.5166 126.306L122.694 123.327V125.116L119.889 134.647L100.232 136.673Z" fill="#EBEBEB"/>
<path d="M121.838 163.076L121.548 156.306L101.175 157.273C100.641 157.299 100.11 157.186 99.6329 156.944L70.7399 142.394C70.4108 142.227 70.1315 141.977 69.9302 141.668C69.729 141.359 69.613 141.002 69.5939 140.634L65.6625 64.3611C65.6541 64.182 65.6839 64.0032 65.7497 63.8365C65.8156 63.6698 65.9161 63.519 66.0445 63.394C66.1722 63.2706 66.324 63.1751 66.4905 63.1135C66.657 63.0519 66.8345 63.0255 67.0117 63.0361L79.3909 63.9549V50.4151H80.8416V64.1387C80.8425 64.3146 80.8068 64.4888 80.7369 64.6503C80.667 64.8118 80.5643 64.957 80.4354 65.0768C80.306 65.1964 80.1534 65.2882 79.987 65.3465C79.8206 65.4047 79.6441 65.4281 79.4683 65.4153L67.0939 64.4965L71.0204 140.576C71.0262 140.688 71.0614 140.798 71.1225 140.893C71.1835 140.988 71.2684 141.065 71.3686 141.117L100.266 155.706C100.517 155.836 100.797 155.896 101.079 155.88L121.621 154.884C121.79 154.875 121.959 154.899 122.119 154.957C122.278 155.014 122.425 155.103 122.549 155.218C122.674 155.331 122.775 155.469 122.846 155.621C122.917 155.774 122.958 155.939 122.965 156.108L123.26 163.037L121.838 163.076Z" fill="white"/>
<path d="M115.877 42.1026C115.877 42.6612 115.711 43.2072 115.401 43.6716C115.09 44.136 114.649 44.4979 114.133 44.7117C113.617 44.9254 113.049 44.9813 112.502 44.8724C111.954 44.7634 111.451 44.4945 111.056 44.0995C110.661 43.7046 110.392 43.2014 110.283 42.6536C110.174 42.1058 110.23 41.5379 110.443 41.0219C110.657 40.5059 111.019 40.0649 111.484 39.7545C111.948 39.4442 112.494 39.2786 113.053 39.2786C113.424 39.278 113.791 39.3506 114.134 39.4923C114.477 39.634 114.788 39.842 115.051 40.1043C115.313 40.3667 115.521 40.6783 115.663 41.0212C115.805 41.3641 115.877 41.7316 115.877 42.1026Z" fill="#FF725E"/>
<g opacity="0.6">
<path d="M114.509 44.5066C115.837 43.6885 116.25 41.9488 115.432 40.6209C114.613 39.2931 112.874 38.8799 111.546 39.6981C110.218 40.5163 109.805 42.256 110.623 43.5838C111.441 44.9116 113.181 45.3248 114.509 44.5066Z" fill="white"/>
</g>
<path d="M114.909 42.0059C114.91 42.3782 114.8 42.7423 114.594 43.0523C114.388 43.3623 114.094 43.6041 113.751 43.7472C113.407 43.8904 113.029 43.9283 112.664 43.8563C112.298 43.7842 111.963 43.6055 111.699 43.3426C111.436 43.0797 111.256 42.7445 111.183 42.3795C111.11 42.0145 111.147 41.636 111.289 41.292C111.431 40.948 111.673 40.654 111.982 40.447C112.291 40.2401 112.655 40.1297 113.028 40.1297C113.526 40.1297 114.003 40.3272 114.356 40.6789C114.709 41.0306 114.907 41.5079 114.909 42.0059Z" fill="#FF725E"/>
<path d="M122.448 164.111L122.1 156.19C122.097 156.133 122.084 156.078 122.06 156.027C122.036 155.975 122.002 155.929 121.96 155.891C121.919 155.853 121.87 155.823 121.816 155.804C121.763 155.785 121.707 155.776 121.65 155.779L100.402 156.901L97.8443 124.676L94.5996 87.5577V87.5238L98.2312 67.6977C98.2968 67.3361 98.487 67.0089 98.7688 66.773C99.0507 66.5371 99.4062 66.4075 99.7737 66.4066L118.986 66.3437C119.335 66.3432 119.67 66.21 119.924 65.9711C120.178 65.7322 120.332 65.4055 120.354 65.0574L120.683 59.7382C120.725 59.0583 120.592 58.379 120.296 57.7653L112.791 42.1075L113.231 41.8995L120.736 57.5573C121.066 58.2468 121.215 59.0092 121.167 59.7721L120.838 65.0913C120.806 65.5613 120.597 66.0017 120.254 66.3239C119.91 66.646 119.457 66.8259 118.986 66.8273L99.7737 66.8901C99.5188 66.8897 99.2719 66.9791 99.0764 67.1427C98.8809 67.3064 98.7495 67.5337 98.7051 67.7847L95.0832 87.577L98.2795 124.618L100.804 156.379L121.597 155.3C121.717 155.292 121.837 155.308 121.95 155.348C122.063 155.388 122.167 155.451 122.255 155.532C122.345 155.612 122.418 155.71 122.469 155.818C122.521 155.927 122.55 156.045 122.554 156.166L122.903 164.091L122.448 164.111Z" fill="#FF725E"/>
<path d="M123.768 163.468C123.769 163.707 123.699 163.942 123.567 164.141C123.434 164.341 123.245 164.496 123.024 164.588C122.803 164.68 122.56 164.705 122.325 164.658C122.09 164.612 121.874 164.497 121.705 164.327C121.535 164.158 121.42 163.942 121.374 163.707C121.327 163.472 121.351 163.229 121.444 163.008C121.536 162.786 121.691 162.598 121.891 162.465C122.09 162.333 122.325 162.263 122.564 162.264C122.722 162.264 122.879 162.295 123.025 162.355C123.171 162.416 123.304 162.504 123.416 162.616C123.528 162.728 123.616 162.861 123.677 163.007C123.737 163.153 123.768 163.309 123.768 163.468Z" fill="#FF725E"/>
<path d="M100.499 141.161C100.514 141.384 100.462 141.606 100.35 141.8C100.239 141.994 100.072 142.15 99.872 142.249C99.6716 142.349 99.4464 142.386 99.2246 142.358C99.0029 142.329 98.7947 142.235 98.6261 142.088C98.4576 141.941 98.3364 141.748 98.2778 141.532C98.2192 141.316 98.2259 141.088 98.2969 140.876C98.3679 140.664 98.5001 140.478 98.6769 140.341C98.8536 140.204 99.067 140.122 99.29 140.107C99.4387 140.096 99.5879 140.115 99.7293 140.162C99.8706 140.21 100.001 140.285 100.113 140.382C100.226 140.48 100.318 140.6 100.384 140.733C100.45 140.867 100.489 141.012 100.499 141.161Z" fill="#FF725E"/>
<path d="M99.4736 142.118C98.9324 142.155 98.4281 142.406 98.0717 142.815C97.7153 143.224 97.536 143.758 97.5732 144.299L101.654 144.019C101.617 143.477 101.367 142.973 100.958 142.617C100.549 142.26 100.015 142.081 99.4736 142.118Z" fill="#FF725E"/>
<path d="M115.585 129.144H105.547C105.14 129.144 104.75 129.306 104.463 129.593C104.175 129.881 104.014 130.271 104.014 130.677V136.963C104.014 137.164 104.053 137.364 104.13 137.549C104.208 137.735 104.321 137.904 104.463 138.046C104.605 138.188 104.774 138.3 104.96 138.377C105.146 138.453 105.345 138.492 105.547 138.491H105.75V139.995L107.491 138.491H115.585C115.786 138.492 115.986 138.453 116.172 138.377C116.358 138.3 116.527 138.188 116.669 138.046C116.811 137.904 116.924 137.735 117.001 137.549C117.079 137.364 117.118 137.164 117.118 136.963V130.677C117.118 130.271 116.957 129.881 116.669 129.593C116.382 129.306 115.992 129.144 115.585 129.144Z" fill="#FF725E"/>
<g opacity="0.4">
<path d="M115.586 129.144H105.548C105.141 129.144 104.751 129.306 104.464 129.593C104.176 129.881 104.015 130.271 104.015 130.677V136.963C104.015 137.164 104.054 137.364 104.131 137.549C104.209 137.735 104.322 137.904 104.464 138.046C104.606 138.188 104.775 138.3 104.961 138.377C105.147 138.453 105.346 138.492 105.548 138.491H105.751V139.995L107.491 138.491H115.586C115.787 138.492 115.987 138.453 116.173 138.377C116.359 138.3 116.528 138.188 116.67 138.046C116.812 137.904 116.925 137.735 117.002 137.549C117.08 137.364 117.119 137.164 117.119 136.963V130.677C117.119 130.271 116.958 129.881 116.67 129.593C116.383 129.306 115.993 129.144 115.586 129.144Z" fill="white"/>
</g>
<path d="M108.734 134.086V134.908H108.396V134.077L107.429 132.524H107.796L108.56 133.782L109.324 132.524H109.663L108.734 134.086Z" fill="white"/>
<path d="M109.589 134.004C109.585 133.817 109.637 133.633 109.739 133.475C109.84 133.317 109.986 133.194 110.158 133.119C110.33 133.045 110.52 133.023 110.704 133.058C110.888 133.092 111.058 133.18 111.192 133.311C111.326 133.442 111.417 133.61 111.455 133.793C111.493 133.977 111.476 134.167 111.405 134.341C111.334 134.514 111.213 134.663 111.058 134.767C110.903 134.872 110.719 134.928 110.532 134.928C110.408 134.934 110.285 134.914 110.169 134.87C110.053 134.826 109.947 134.759 109.859 134.672C109.77 134.585 109.701 134.481 109.654 134.366C109.608 134.251 109.586 134.128 109.589 134.004ZM111.137 134.004C111.128 133.885 111.084 133.77 111.011 133.675C110.938 133.581 110.838 133.51 110.725 133.471C110.611 133.433 110.489 133.428 110.373 133.459C110.257 133.49 110.153 133.554 110.074 133.643C109.994 133.733 109.943 133.844 109.926 133.963C109.909 134.081 109.927 134.202 109.979 134.31C110.03 134.418 110.113 134.509 110.215 134.571C110.318 134.632 110.437 134.662 110.556 134.657C110.64 134.658 110.723 134.641 110.799 134.608C110.876 134.575 110.944 134.526 111.001 134.464C111.057 134.403 111.099 134.33 111.125 134.25C111.151 134.171 111.16 134.087 111.151 134.004H111.137Z" fill="white"/>
<path d="M113.618 133.105V134.908H113.309V134.657C113.238 134.752 113.145 134.828 113.038 134.878C112.93 134.929 112.813 134.952 112.694 134.947C112.589 134.958 112.483 134.945 112.384 134.909C112.284 134.874 112.194 134.816 112.12 134.741C112.045 134.666 111.989 134.575 111.955 134.475C111.92 134.375 111.909 134.269 111.921 134.164V133.124H112.245V134.125C112.245 134.478 112.424 134.657 112.728 134.657C112.807 134.662 112.885 134.649 112.958 134.62C113.031 134.591 113.097 134.547 113.15 134.489C113.204 134.432 113.244 134.364 113.268 134.289C113.292 134.214 113.299 134.135 113.289 134.057V133.124L113.618 133.105Z" fill="white"/>
<path d="M56.0642 179.42C56.1336 179.42 56.1899 179.096 56.1899 178.695C56.1899 178.294 56.1336 177.97 56.0642 177.97C55.9948 177.97 55.9385 178.294 55.9385 178.695C55.9385 179.096 55.9948 179.42 56.0642 179.42Z" fill="#263238"/>
<path d="M56.0642 182.322C56.1336 182.322 56.1899 181.997 56.1899 181.596C56.1899 181.196 56.1336 180.871 56.0642 180.871C55.9948 180.871 55.9385 181.196 55.9385 181.596C55.9385 181.997 55.9948 182.322 56.0642 182.322Z" fill="#263238"/>
<path d="M56.0642 185.223C56.1336 185.223 56.1899 184.898 56.1899 184.498C56.1899 184.097 56.1336 183.772 56.0642 183.772C55.9948 183.772 55.9385 184.097 55.9385 184.498C55.9385 184.898 55.9948 185.223 56.0642 185.223Z" fill="#263238"/>
<path d="M56.0642 188.125C56.1336 188.125 56.1899 187.8 56.1899 187.399C56.1899 186.999 56.1336 186.674 56.0642 186.674C55.9948 186.674 55.9385 186.999 55.9385 187.399C55.9385 187.8 55.9948 188.125 56.0642 188.125Z" fill="#263238"/>
<path d="M56.0642 190.62C56.1336 190.62 56.1899 190.386 56.1899 190.097C56.1899 189.809 56.1336 189.575 56.0642 189.575C55.9948 189.575 55.9385 189.809 55.9385 190.097C55.9385 190.386 55.9948 190.62 56.0642 190.62Z" fill="#263238"/>
<path d="M58.1191 193.105C58.1198 192.789 58.0476 192.477 57.908 192.193C57.7684 191.909 57.5651 191.661 57.3141 191.469C57.063 191.277 56.771 191.145 56.4607 191.084C56.1503 191.023 55.8301 191.034 55.5249 191.117C55.2197 191.2 54.9377 191.352 54.701 191.562C54.4643 191.772 54.2792 192.033 54.1601 192.326C54.041 192.619 53.9911 192.936 54.0143 193.251C54.0376 193.567 54.1333 193.873 54.2941 194.145C54.3715 194.28 54.473 194.372 54.5697 194.512L55.7641 196.094C55.7988 196.14 55.8438 196.177 55.8954 196.203C55.947 196.229 56.0038 196.242 56.0615 196.242C56.1192 196.242 56.1761 196.229 56.2277 196.203C56.2793 196.177 56.3242 196.14 56.3589 196.094L57.5291 194.541C57.6427 194.412 57.7492 194.276 57.8483 194.135C58.0277 193.822 58.1211 193.466 58.1191 193.105ZM56.0639 194C55.8851 194 55.7103 193.947 55.5616 193.847C55.4128 193.748 55.2969 193.607 55.2285 193.442C55.1601 193.276 55.1422 193.095 55.177 192.919C55.2119 192.744 55.2981 192.583 55.4245 192.456C55.551 192.33 55.7121 192.244 55.8875 192.209C56.0629 192.174 56.2447 192.192 56.41 192.26C56.5752 192.329 56.7164 192.444 56.8158 192.593C56.9152 192.742 56.9682 192.917 56.9682 193.096C56.9682 193.335 56.8729 193.565 56.7033 193.735C56.5338 193.905 56.3038 194 56.0639 194Z" fill="#455A64"/>
<path d="M108.23 194C108.23 194.068 97.8048 194.126 84.9516 194.126C72.0985 194.126 61.6729 194.068 61.6729 194C61.6729 193.932 72.0937 193.874 84.9516 193.874C97.8096 193.874 108.23 193.932 108.23 194Z" fill="#263238"/>
<path d="M89.8508 191.959C89.8508 192.027 83.5355 192.085 75.7501 192.085C67.9647 192.085 61.6445 192.027 61.6445 191.959C61.6445 191.892 67.955 191.833 75.7501 191.833C83.5452 191.833 89.8508 191.887 89.8508 191.959Z" fill="#FF725E"/>
<path d="M69.2798 196.311C68.0412 196.436 66.7956 196.478 65.5515 196.437C64.3057 196.478 63.0586 196.436 61.8184 196.311C63.0584 196.184 64.3057 196.142 65.5515 196.186C66.7956 196.142 68.0413 196.184 69.2798 196.311Z" fill="#263238"/>
<path d="M58.1191 177.075C58.1198 176.759 58.0476 176.447 57.908 176.163C57.7684 175.879 57.5651 175.631 57.3141 175.439C57.063 175.247 56.771 175.115 56.4607 175.054C56.1503 174.993 55.8301 175.004 55.5249 175.087C55.2197 175.17 54.9377 175.322 54.701 175.532C54.4643 175.742 54.2792 176.003 54.1601 176.296C54.041 176.589 53.9911 176.906 54.0143 177.221C54.0376 177.537 54.1333 177.842 54.2941 178.115C54.3715 178.245 54.473 178.342 54.5697 178.482L55.7641 180.059C55.7988 180.105 55.8438 180.142 55.8954 180.168C55.947 180.194 56.0038 180.207 56.0615 180.207C56.1192 180.207 56.1761 180.194 56.2277 180.168C56.2793 180.142 56.3242 180.105 56.3589 180.059L57.5291 178.506C57.6358 178.379 57.7359 178.247 57.8289 178.11C58.0164 177.797 58.1166 177.44 58.1191 177.075ZM56.0639 177.97C55.8851 177.97 55.7103 177.917 55.5616 177.817C55.4128 177.718 55.2969 177.577 55.2285 177.411C55.1601 177.246 55.1422 177.064 55.177 176.889C55.2119 176.714 55.2981 176.552 55.4245 176.426C55.551 176.3 55.7121 176.213 55.8875 176.179C56.0629 176.144 56.2447 176.162 56.41 176.23C56.5752 176.298 56.7164 176.414 56.8158 176.563C56.9152 176.712 56.9682 176.887 56.9682 177.065C56.9682 177.305 56.8729 177.535 56.7033 177.705C56.5338 177.874 56.3038 177.97 56.0639 177.97Z" fill="#FF725E"/>
<path d="M118.061 177.97C118.061 178.042 105.435 178.095 89.8646 178.095C74.2939 178.095 61.6729 178.042 61.6729 177.97C61.6729 177.897 74.2939 177.844 89.8646 177.844C105.435 177.844 118.061 177.902 118.061 177.97Z" fill="#263238"/>
<path d="M101.563 175.929C101.563 176.002 92.6265 176.055 81.6061 176.055C70.5856 176.055 61.6445 176.002 61.6445 175.929C61.6445 175.857 70.5808 175.803 81.6061 175.803C92.6313 175.803 101.563 175.861 101.563 175.929Z" fill="#FF725E"/>
<path d="M83.6948 180.281C83.6948 180.349 78.8011 180.407 72.7614 180.407C66.7217 180.407 61.8184 180.349 61.8184 180.281C61.8184 180.213 66.7169 180.155 72.7614 180.155C78.806 180.155 83.6948 180.213 83.6948 180.281Z" fill="#263238"/>
<path d="M198.781 61.8417L196.576 56.9336C193.461 56.6796 190.554 55.2699 188.426 52.9815C186.298 50.6932 185.102 47.6916 185.075 44.5667C185.047 41.4418 186.189 38.4195 188.276 36.0937C190.363 33.7679 193.245 32.3068 196.355 31.9975C199.464 31.6882 202.577 32.5531 205.082 34.4222C207.586 36.2913 209.301 39.0295 209.889 42.0987C210.478 45.1678 209.897 48.346 208.261 51.0088C206.625 53.6715 204.053 55.6262 201.049 56.4887L198.781 61.8417Z" fill="white"/>
<path d="M198.782 61.8417C198.946 61.4355 199.614 59.8204 200.997 56.4645L201.055 56.5515H200.571L201.055 56.4161C203.157 55.8053 205.062 54.6511 206.577 53.0699C207.031 52.5977 207.442 52.0863 207.805 51.5418C207.989 51.2613 208.182 50.976 208.366 50.6811L208.85 49.7429C209.57 48.2179 209.97 46.5617 210.027 44.8761C210.084 43.1905 209.795 41.5112 209.18 39.9411C208.564 38.3711 207.633 36.9435 206.446 35.7461C205.258 34.5486 203.838 33.6066 202.273 32.9778C200.476 32.2514 198.531 31.9646 196.601 32.1412C194.636 32.2986 192.736 32.9218 191.059 33.9594C189.464 34.966 188.112 36.3156 187.104 37.9101C186.146 39.4147 185.532 41.112 185.305 42.8812C184.899 46.0681 185.731 49.2893 187.631 51.8803C188.45 52.964 189.428 53.9178 190.532 54.7092C192.32 55.9525 194.403 56.7045 196.572 56.89H196.63V56.9239C197.97 60.009 198.608 61.4694 198.777 61.8562C198.598 61.4742 197.931 60.0284 196.519 56.9722L196.567 57.0061C194.369 56.8416 192.255 56.0956 190.44 54.8446C189.308 54.0525 188.305 53.0901 187.467 51.9915C185.523 49.3646 184.665 46.0898 185.073 42.8473C185.301 41.0431 185.923 39.3112 186.896 37.7747C187.935 36.105 189.351 34.7023 191.031 33.6794C192.711 32.6565 194.607 32.0419 196.567 31.8849C198.53 31.7184 200.504 32.0217 202.326 32.7698C204.074 33.4806 205.643 34.5688 206.92 35.9565C208.124 37.2775 209.03 38.8405 209.58 40.5407C210.577 43.607 210.366 46.9382 208.99 49.8542C208.826 50.1733 208.656 50.4876 208.506 50.8213C208.356 51.155 208.124 51.4064 207.936 51.6917C207.565 52.2436 207.144 52.76 206.679 53.2343C205.137 54.8282 203.2 55.9832 201.064 56.5805V56.4597H201.171L201.132 56.5515C199.657 59.8349 198.956 61.4404 198.782 61.8417Z" fill="#263238"/>
<path d="M202.916 43.9885C202.918 43.2637 202.753 42.5482 202.433 41.8977C202.113 41.2472 201.648 40.6793 201.072 40.2382C200.497 39.797 199.828 39.4946 199.117 39.3544C198.406 39.2142 197.672 39.24 196.972 39.4299C196.273 39.6197 195.627 39.9684 195.084 40.4489C194.541 40.9293 194.117 41.5286 193.844 42.1999C193.57 42.8713 193.456 43.5966 193.509 44.3195C193.562 45.0424 193.781 45.7433 194.149 46.3677C194.328 46.6723 194.555 46.8899 194.782 47.2091L197.514 50.831C197.594 50.9361 197.696 51.0214 197.814 51.0802C197.932 51.1389 198.062 51.1695 198.194 51.1695C198.326 51.1695 198.456 51.1389 198.573 51.0802C198.691 51.0214 198.794 50.9361 198.873 50.831L201.562 47.2671C201.806 46.9788 202.034 46.6769 202.244 46.3628C202.677 45.6461 202.909 44.826 202.916 43.9885ZM198.211 46.0388C197.8 46.0398 197.398 45.9188 197.056 45.6912C196.715 45.4637 196.448 45.1397 196.29 44.7605C196.133 44.3812 196.091 43.9637 196.171 43.5608C196.251 43.158 196.449 42.7879 196.739 42.4975C197.03 42.2071 197.4 42.0094 197.802 41.9295C198.205 41.8496 198.623 41.8911 199.002 42.0487C199.381 42.2063 199.705 42.473 199.933 42.8148C200.16 43.1567 200.281 43.5585 200.28 43.9692C200.28 44.242 200.225 44.5121 200.12 44.7638C200.015 45.0156 199.861 45.2441 199.668 45.4364C199.474 45.6286 199.245 45.7808 198.992 45.8842C198.74 45.9876 198.469 46.0401 198.196 46.0388H198.211Z" fill="#FF725E"/>
<path d="M163.498 38.9111C163.933 37.3008 165.147 36.4933 166.728 35.9662C167.523 35.7034 168.37 35.6365 169.197 35.7712C170.024 35.9059 170.806 36.2382 171.476 36.7399C172.366 37.4121 173.063 38.3985 174.117 38.766C175.853 39.3705 177.888 38.0697 179.557 38.8482C180.057 39.0795 180.46 39.4778 180.698 39.9745C180.937 40.4712 180.994 41.0353 180.861 41.5699C180.729 42.1044 180.414 42.576 179.971 42.9036C179.528 43.2312 178.985 43.3942 178.435 43.3647C179.566 43.7806 179.919 45.3957 179.257 46.4063C178.594 47.417 177.236 47.7942 176.046 47.5717C174.87 47.2845 173.794 46.6808 172.937 45.8261C172.042 45.0185 171.235 44.1046 170.277 43.3744C169.347 42.588 168.169 42.1548 166.95 42.151C165.316 42.238 163.918 43.4711 163.188 44.9315C162.458 46.3918 162.294 48.0698 162.221 49.6994C162.148 51.329 162.1 52.9877 161.617 54.5351C161.559 54.7188 161.471 54.9219 161.288 54.9799C161.027 55.0621 160.804 54.7817 160.669 54.5351C159.181 51.7722 158.249 48.7444 157.927 45.623C157.743 43.8144 157.792 42.1026 158.783 40.5794C159.774 39.0562 162.289 37.9391 163.522 38.8966" fill="#263238"/>
<path d="M160.364 46.4837L159.527 64.7866C159.387 67.9008 159.812 72.5236 164.745 72.5236C169.024 72.2045 170.286 68.2054 170.417 65.2992C170.48 63.921 170.533 62.7702 170.548 62.6299C170.548 62.6299 175.228 62.4075 175.775 57.7943C176.041 55.5747 176.21 50.9518 176.316 46.7738C176.373 44.6027 175.608 42.4901 174.175 40.8585C172.741 39.2269 170.745 38.1964 168.584 37.973L168.139 37.9246C163.328 37.6973 160.441 41.6626 160.364 46.4837Z" fill="#FFBE9D"/>
<path d="M170.543 62.5429C168.409 62.3553 166.38 61.5353 164.716 60.1879C164.716 60.1879 165.78 63.6503 170.417 63.7276L170.543 62.5429Z" fill="#EB996E"/>
<path d="M175.112 50.1878C175.096 50.3598 175.013 50.5186 174.881 50.6299C174.749 50.7412 174.578 50.796 174.406 50.7826C174.322 50.7801 174.239 50.7609 174.163 50.7262C174.086 50.6914 174.017 50.6417 173.96 50.5801C173.903 50.5184 173.858 50.446 173.83 50.367C173.801 50.288 173.788 50.2041 173.792 50.1201C173.809 49.9482 173.892 49.7897 174.024 49.6779C174.155 49.566 174.325 49.5096 174.498 49.5205C174.582 49.523 174.665 49.5423 174.742 49.5774C174.819 49.6124 174.888 49.6626 174.945 49.7247C175.003 49.7869 175.047 49.8599 175.075 49.9395C175.104 50.019 175.116 50.1034 175.112 50.1878Z" fill="#263238"/>
<path d="M175.069 48.9161C174.977 48.9934 174.523 48.5727 173.812 48.5002C173.101 48.4277 172.55 48.7226 172.482 48.6308C172.415 48.5389 172.55 48.4422 172.792 48.3019C173.121 48.1218 173.497 48.0474 173.87 48.0892C174.231 48.1302 174.569 48.2842 174.837 48.5292C175.055 48.7178 175.113 48.8822 175.069 48.9161Z" fill="#263238"/>
<path d="M168.149 49.6898C168.133 49.8608 168.051 50.0189 167.92 50.13C167.789 50.2412 167.619 50.2967 167.448 50.2845C167.364 50.2827 167.281 50.264 167.204 50.2294C167.127 50.1949 167.058 50.1452 167.001 50.0834C166.943 50.0216 166.899 49.9489 166.87 49.8697C166.842 49.7904 166.829 49.7062 166.834 49.6221C166.849 49.4501 166.931 49.2908 167.062 49.1787C167.193 49.0665 167.363 49.0104 167.535 49.0224C167.62 49.0249 167.703 49.0442 167.78 49.0793C167.856 49.1144 167.926 49.1645 167.983 49.2267C168.04 49.2889 168.084 49.3619 168.113 49.4414C168.141 49.5209 168.154 49.6054 168.149 49.6898Z" fill="#263238"/>
<path d="M168.101 48.3067C168.014 48.3841 167.554 47.9634 166.848 47.8909C166.142 47.8184 165.581 48.1182 165.513 48.0214C165.446 47.9247 165.581 47.8329 165.823 47.6926C166.152 47.5125 166.529 47.4382 166.901 47.4799C167.261 47.5231 167.599 47.6768 167.868 47.9199C168.101 48.0988 168.149 48.2729 168.101 48.3067Z" fill="#263238"/>
<path d="M170.112 53.8291C170.497 53.7483 170.89 53.719 171.283 53.742C171.466 53.742 171.64 53.742 171.684 53.6066C171.717 53.4207 171.695 53.229 171.621 53.0554C171.495 52.6008 171.37 52.1269 171.234 51.6047C170.697 49.5689 170.335 47.9006 170.417 47.8812C170.499 47.8619 170.997 49.4963 171.529 51.5321C171.655 52.0157 171.781 52.4993 171.892 52.9828C171.977 53.2154 171.977 53.4708 171.892 53.7033C171.859 53.7643 171.813 53.817 171.757 53.8572C171.701 53.8975 171.636 53.9243 171.568 53.9355C171.465 53.9495 171.361 53.9495 171.258 53.9355C170.873 53.9453 170.489 53.9096 170.112 53.8291Z" fill="#263238"/>
<path d="M168.584 45.5553C168.497 45.739 167.801 45.5553 166.959 45.5891C166.118 45.623 165.422 45.7535 165.33 45.5891C165.291 45.5021 165.426 45.3328 165.717 45.1733C166.101 44.9822 166.525 44.8829 166.954 44.8831C167.385 44.8779 167.811 44.974 168.197 45.1636C168.483 45.299 168.618 45.4682 168.584 45.5553Z" fill="#263238"/>
<path d="M175.026 46.8415C174.886 46.9915 174.417 46.769 173.832 46.7013C173.246 46.6336 172.739 46.7013 172.642 46.5127C172.598 46.4257 172.695 46.2758 172.927 46.1452C173.236 45.9895 173.586 45.9337 173.928 45.9856C174.273 46.0266 174.597 46.1756 174.852 46.4112C175.04 46.5949 175.089 46.769 175.026 46.8415Z" fill="#263238"/>
<path d="M160.364 49.9315C160.291 49.888 157.303 48.6598 157.071 51.8174C156.838 54.9751 160.054 54.5592 160.064 54.4674C160.074 54.3755 160.364 49.9315 160.364 49.9315Z" fill="#FFBE9D"/>
<path d="M159.179 53.2004C159.179 53.2004 159.121 53.2343 159.024 53.2681C158.959 53.2951 158.889 53.309 158.819 53.309C158.748 53.309 158.679 53.2951 158.613 53.2681C158.419 53.1238 158.267 52.9303 158.173 52.7076C158.078 52.4849 158.045 52.241 158.077 52.0012C158.086 51.7287 158.159 51.4621 158.289 51.2227C158.326 51.126 158.386 51.0398 158.463 50.9716C158.541 50.9033 158.634 50.855 158.734 50.831C158.798 50.8189 158.864 50.8297 158.921 50.8615C158.977 50.8934 159.021 50.9442 159.044 51.0051C159.082 51.0969 159.044 51.1598 159.073 51.1646C159.102 51.1695 159.145 51.1211 159.131 50.9857C159.116 50.9065 159.077 50.8338 159.02 50.7778C158.979 50.7419 158.931 50.7144 158.88 50.697C158.828 50.6796 158.774 50.6725 158.72 50.6762C158.589 50.6931 158.465 50.7427 158.358 50.8205C158.251 50.8983 158.166 51.0017 158.11 51.1211C157.955 51.3859 157.867 51.6848 157.854 51.9915C157.821 52.271 157.869 52.5542 157.993 52.8066C158.118 53.059 158.313 53.2698 158.555 53.4132C158.638 53.4436 158.727 53.4551 158.815 53.4467C158.903 53.4384 158.987 53.4104 159.063 53.3648C159.169 53.2778 159.189 53.2053 159.179 53.2004Z" fill="#EB996E"/>
<path d="M177.376 45.9131C176.33 46.0683 175.263 45.9739 174.261 45.6378C173.26 45.3016 172.352 44.7331 171.612 43.9789C170.591 42.9102 169.875 41.4498 168.517 40.8695C168.051 40.6909 167.555 40.6066 167.057 40.6216C166.559 40.6365 166.069 40.7504 165.615 40.9566C164.711 41.375 163.901 41.974 163.236 42.7168C163.879 45.1346 163.004 47.6975 162.138 50.0621C162.07 50.3339 161.914 50.5754 161.694 50.7488C161.292 50.9954 160.76 50.7149 160.47 50.3377C160.055 49.7005 159.835 48.956 159.837 48.1955C159.686 46.4756 159.88 44.7428 160.407 43.0988C160.943 41.4474 161.952 39.9897 163.309 38.9063C165.056 37.605 167.241 37.0344 169.402 37.3153C171.55 37.6098 173.551 38.5762 175.117 40.0765C175.875 40.7295 176.458 41.5603 176.815 42.4943" fill="#263238"/>
<path d="M170.33 55.8358C170.233 56.1196 170.096 56.3882 169.924 56.6337C169.837 56.7565 169.724 56.8593 169.594 56.9351C169.464 57.011 169.319 57.0583 169.17 57.0738C169.009 57.0732 168.851 57.0327 168.71 56.9559C168.569 56.8791 168.45 56.7683 168.362 56.6337C168.195 56.3597 168.117 56.0402 168.14 55.7198C168.14 55.4297 168.285 55.0863 168.57 55.0525C168.691 55.0469 168.811 55.0736 168.918 55.1298L170.427 55.7391" fill="#EB996E"/>
<path d="M169.725 57.069C169.454 57.0854 169.181 57.0509 168.922 56.9674C168.66 56.8622 168.444 56.6667 168.313 56.4161C168.247 56.2634 168.213 56.0989 168.213 55.9326C168.213 55.7663 168.247 55.6018 168.313 55.449C168.35 55.3684 168.395 55.2922 168.448 55.2217C168.507 55.1589 168.497 55.1637 168.56 55.1734C168.623 55.1831 168.719 55.2362 168.801 55.2653C168.884 55.2943 168.971 55.3378 169.048 55.3668C169.372 55.4974 169.662 55.6134 169.909 55.7053C170.169 55.8291 170.446 55.9123 170.731 55.9519C170.507 55.7731 170.255 55.6311 169.986 55.5312C169.749 55.4152 169.464 55.2846 169.145 55.1395L168.903 55.0331C168.814 54.9884 168.722 54.9496 168.627 54.9171C168.555 54.8956 168.478 54.8956 168.405 54.9171C168.337 54.9463 168.279 54.993 168.236 55.0525C168.166 55.1393 168.109 55.2353 168.066 55.3378C167.985 55.5295 167.947 55.737 167.955 55.9453C167.964 56.1535 168.018 56.3573 168.115 56.5419C168.195 56.6906 168.303 56.8219 168.435 56.9282C168.566 57.0344 168.717 57.1135 168.879 57.1608C169.092 57.2202 169.318 57.2202 169.532 57.1608C169.662 57.1318 169.735 57.0835 169.725 57.069Z" fill="#263238"/>
<path d="M198.111 187.259L201.636 197.482C201.636 197.482 213.207 197.336 214.044 199.159L194.464 206.708L188.323 191.002L198.111 187.259Z" fill="#FF725E"/>
<path d="M195.253 198.971C195.087 199.101 194.974 199.288 194.938 199.496C194.901 199.704 194.943 199.918 195.055 200.098C195.178 200.268 195.362 200.385 195.569 200.423C195.776 200.462 195.99 200.42 196.167 200.306C196.342 200.167 196.46 199.968 196.499 199.748C196.537 199.528 196.493 199.301 196.375 199.111C196.227 198.946 196.021 198.845 195.8 198.829C195.579 198.812 195.36 198.882 195.19 199.024" fill="#E0E0E0"/>
<g opacity="0.6">
<path d="M194.464 206.708L193.908 205.102L212.888 198.487C212.888 198.487 213.908 198.531 214.044 199.184L194.464 206.708Z" fill="white"/>
</g>
<path d="M201.912 197.259C201.946 197.356 201.487 197.583 201.134 198.071C200.781 198.56 200.689 199.039 200.583 199.039C200.476 199.039 200.413 198.429 200.849 197.844C201.284 197.259 201.903 197.162 201.912 197.259Z" fill="#263238"/>
<path d="M204.296 197.317C204.354 197.404 204.001 197.723 203.813 198.255C203.624 198.787 203.716 199.247 203.619 199.28C203.523 199.314 203.252 198.797 203.474 198.139C203.697 197.482 204.258 197.225 204.296 197.317Z" fill="#263238"/>
<path d="M206.409 199.324C206.327 199.382 206.012 198.952 206.056 198.357C206.099 197.762 206.467 197.356 206.539 197.419C206.612 197.482 206.438 197.868 206.409 198.386C206.38 198.903 206.501 199.28 206.409 199.324Z" fill="#263238"/>
<path d="M200.853 195.02C200.853 195.122 200.37 195.16 199.833 195.402C199.296 195.644 198.948 195.982 198.866 195.92C198.784 195.857 199.059 195.359 199.683 195.078C200.307 194.798 200.873 194.923 200.853 195.02Z" fill="#263238"/>
<path d="M126.282 185.915L126.065 186.2L121.824 191.717L116.577 195.315L123.603 208.855H131.34C131.34 208.855 130.784 206.993 127.061 206.031L126.814 198.603L133.497 191.263" fill="#FF725E"/>
<g opacity="0.6">
<path d="M116.577 195.33L123.603 208.865L131.34 208.874L130.47 207.709L124.179 207.361L117.694 194.566L116.577 195.33Z" fill="white"/>
</g>
<path d="M126.997 202.646C126.939 202.728 126.514 202.472 125.895 202.491C125.276 202.511 124.86 202.752 124.797 202.675C124.734 202.598 125.165 202.158 125.89 202.148C126.615 202.138 127.084 202.588 126.997 202.646Z" fill="#263238"/>
<path d="M126.892 200.804C126.815 200.862 126.467 200.402 125.852 200.281C125.238 200.16 124.74 200.441 124.692 200.364C124.643 200.286 124.755 200.199 124.972 200.078C125.264 199.929 125.598 199.883 125.92 199.948C126.241 200.013 126.531 200.185 126.742 200.436C126.897 200.63 126.926 200.784 126.892 200.804Z" fill="#263238"/>
<path d="M126.94 198.439C126.857 198.482 126.591 198.033 126.055 197.849C125.518 197.665 125.029 197.849 124.991 197.747C124.952 197.646 125.068 197.602 125.286 197.52C125.571 197.42 125.881 197.42 126.166 197.52C126.452 197.621 126.695 197.815 126.857 198.071C126.998 198.275 126.998 198.42 126.94 198.439Z" fill="#263238"/>
<path d="M129.014 196.606C128.922 196.635 128.705 196.195 128.226 195.886C127.747 195.576 127.259 195.528 127.259 195.431C127.259 195.334 127.829 195.209 128.414 195.6C129 195.992 129.106 196.592 129.014 196.606Z" fill="#263238"/>
<g opacity="0.6">
<path d="M122.753 195.102C122.753 195.284 122.699 195.462 122.598 195.613C122.497 195.764 122.353 195.882 122.185 195.951C122.018 196.021 121.833 196.039 121.655 196.003C121.476 195.968 121.313 195.881 121.184 195.752C121.056 195.624 120.968 195.46 120.933 195.282C120.897 195.103 120.915 194.919 120.985 194.751C121.055 194.583 121.172 194.439 121.323 194.338C121.474 194.237 121.652 194.184 121.834 194.184C122.077 194.184 122.311 194.28 122.483 194.453C122.656 194.625 122.753 194.859 122.753 195.102Z" fill="white"/>
</g>
<path d="M152.047 130.208L175.969 165.266L188.899 195.924L199.852 190.068L188.778 159.367L172.511 127.118L152.047 130.208Z" fill="#263238"/>
<path d="M142.167 127.118L138.178 155.339L121.848 190.949L131.572 196.606L152.341 161.311L163.869 127.118H142.167Z" fill="#263238"/>
<path d="M131.572 196.606C131.594 196.547 131.624 196.49 131.659 196.437C131.722 196.316 131.814 196.152 131.93 195.953C132.177 195.513 132.535 194.885 132.989 194.087C133.927 192.457 135.272 190.122 136.935 187.244L150.03 164.725L152.472 160.537V160.561L159.653 138.941C160.562 136.233 161.297 134.052 161.81 132.534L162.399 130.808L162.559 130.363C162.575 130.311 162.596 130.261 162.622 130.213C162.612 130.267 162.599 130.32 162.583 130.372L162.443 130.822L161.892 132.563L159.812 138.994C158.018 144.459 155.523 152.051 152.709 160.644L150.267 164.831C145.131 173.608 140.48 181.548 137.109 187.317C135.417 190.175 134.048 192.496 133.095 194.116C132.612 194.904 132.249 195.523 131.993 195.958L131.698 196.442C131.66 196.5 131.618 196.555 131.572 196.606Z" fill="#455A64"/>
<path d="M174.029 111.837L173.222 99.7241L170.156 71.1648L171.244 65.2122L159.155 60.3765L157.704 63.2779C150.451 64.3708 147.39 78.6988 147.39 78.6988L147.138 107.834L139.087 127.582L141.176 129.425C144.479 131.407 175.248 130.16 175.248 130.16L174.029 111.837Z" fill="#FF725E"/>
<g opacity="0.3">
<path d="M142.168 120.005C144.277 122.674 146.733 125.05 149.47 127.07C150.974 128.196 152.753 129.265 154.605 128.97C156.457 128.675 157.729 127.205 158.904 125.817L165.514 118.022C165.93 117.613 166.226 117.098 166.37 116.533C166.404 116.16 166.335 115.785 166.171 115.449C166.008 115.112 165.756 114.827 165.442 114.623C164.81 114.219 164.087 113.981 163.338 113.931C158.696 113.38 154.151 115.687 149.484 115.725C147.889 115.725 145.287 115.421 143.778 115.948L142.168 120.005Z" fill="black"/>
</g>
<path d="M167.085 100.996C168.283 102.17 169.028 103.729 169.192 105.398C169.356 107.067 168.926 108.741 167.98 110.126L163.845 116.175L157.844 124.018C157.437 124.548 156.922 124.986 156.333 125.301C155.744 125.617 155.095 125.804 154.428 125.85C153.761 125.895 153.093 125.799 152.466 125.567C151.84 125.334 151.27 124.971 150.794 124.502L123.429 103.419C122.59 102.773 122.035 101.827 121.879 100.78C121.723 99.7333 121.979 98.6666 122.592 97.8044L133.714 82.1466C134.026 81.7069 134.42 81.333 134.876 81.0463C135.332 80.7596 135.84 80.5658 136.371 80.4759C136.902 80.3861 137.446 80.402 137.971 80.5227C138.496 80.6434 138.992 80.8666 139.43 81.1795L167.085 100.996Z" fill="#455A64"/>
<path d="M152.912 125.687C152.928 125.635 152.953 125.586 152.984 125.542L153.226 125.131C153.444 124.773 153.773 124.251 154.193 123.583C155.059 122.253 156.34 120.338 157.926 117.984C159.513 115.629 161.423 112.838 163.492 109.705C164.033 108.918 164.518 108.094 164.943 107.239C165.15 106.807 165.256 106.334 165.252 105.856C165.215 105.372 165.033 104.91 164.73 104.531C164.121 103.747 163.207 103.206 162.361 102.597L159.745 100.74L141.669 87.8478L136.229 83.8826L134.735 82.8236L134.353 82.5383C134.27 82.4706 134.227 82.4367 134.232 82.4319C134.279 82.4576 134.324 82.4867 134.367 82.5189L134.764 82.7801L136.268 83.8246L141.775 87.6931L159.895 100.522L162.511 102.384C163.352 103.008 164.276 103.544 164.928 104.386C165.259 104.801 165.456 105.307 165.494 105.836C165.5 106.355 165.387 106.867 165.165 107.335C164.728 108.199 164.232 109.031 163.681 109.826C161.602 112.959 159.672 115.735 158.072 118.08C154.861 122.761 152.912 125.687 152.912 125.687Z" fill="#263238"/>
<path d="M163.299 64.2499C163.299 64.2499 155.528 60.1396 143.792 78.7568L145.871 81.1746C145.871 81.1746 155.673 63.9404 162.148 66.0245C168.623 68.1087 159.116 95.2753 159.116 95.2753C159.116 95.2753 173.362 68.1957 163.299 64.2499Z" fill="#263238"/>
<path d="M137.336 85.1979C135.723 86.8251 134.71 88.9517 134.463 91.2296C134.216 93.5075 134.75 95.8017 135.977 97.7367C136.069 97.8769 136.156 98.0075 136.248 98.1332L146.823 114.545L155.673 109.091L147.089 93.5539C147.089 93.5539 151.074 89.4436 155.407 84.8207C161.243 78.5876 167.457 70.9424 163.003 66.5516C163.003 66.5516 159.971 64.1338 155.305 67.7557C151.93 70.3428 142.37 80.0382 137.336 85.1979Z" fill="#FF725E"/>
<path d="M193.019 73.5295L197.628 72.3834C197.628 72.3834 198.871 73.5005 198.227 74.6562C197.584 75.8119 196.501 78.7278 196.501 78.7278L192.937 79.8787L191.931 82.7801L185.8 80.164L187.444 74.7239L190.882 70.4685L193.474 70.072L195.22 71.5517C195.22 71.5517 193.769 72.6107 192.802 71.4695L191.612 71.9289L191.719 72.6445C191.742 72.7902 191.794 72.9296 191.873 73.0542C191.952 73.1788 192.055 73.2858 192.177 73.3688C192.299 73.4517 192.437 73.5087 192.582 73.5364C192.727 73.564 192.876 73.5617 193.019 73.5295Z" fill="#FFBE9D"/>
<path d="M197.599 72.572L200.611 71.1213C200.804 71.0614 201.008 71.05 201.207 71.0879C201.405 71.1259 201.591 71.2121 201.748 71.3389L201.898 71.6532L198.29 74.013L197.599 72.572Z" fill="#FFBE9D"/>
<path d="M191.264 77.2674C191.332 77 191.436 76.743 191.573 76.5034C191.866 75.9257 192.023 75.2891 192.033 74.6417C192.022 74.2935 191.931 73.9526 191.767 73.6455C191.685 73.5018 191.615 73.3514 191.559 73.1958C191.513 73.0538 191.493 72.9047 191.501 72.7558C191.485 72.4747 191.52 72.1931 191.602 71.924C191.66 72.1942 191.686 72.47 191.68 72.7461C191.699 73.0311 191.8 73.3046 191.97 73.5343C192.166 73.8677 192.274 74.2454 192.284 74.632C192.275 75.3143 192.085 75.9819 191.733 76.5663C191.62 76.8264 191.461 77.0639 191.264 77.2674Z" fill="#EB996E"/>
<path d="M204.9 66.2712C204.944 66.3582 205.568 67.2866 205.568 67.2866L191.825 77.4028L190.964 76.3051L204.9 66.2712Z" fill="#263238"/>
<path d="M196.433 78.5247C196.49 78.4405 196.529 78.3458 196.548 78.2461C196.568 78.1463 196.567 78.0437 196.546 77.9444C196.524 77.845 196.483 77.751 196.425 77.6679C196.366 77.5848 196.292 77.5144 196.205 77.4609C195.845 77.2565 195.434 77.1624 195.021 77.1901C194.348 77.1495 193.673 77.1868 193.009 77.3013C192.788 77.3318 192.578 77.4184 192.4 77.5527C192.312 77.6203 192.247 77.7127 192.212 77.8179C192.178 77.9231 192.176 78.0363 192.206 78.1427C192.303 78.399 192.608 78.4908 192.869 78.544C193.582 78.6847 194.309 78.7415 195.035 78.7133" fill="#FFBE9D"/>
<path d="M195.035 78.7133C194.611 78.8071 194.174 78.8235 193.744 78.7616C193.541 78.7616 193.323 78.7278 193.091 78.6891C192.826 78.6713 192.567 78.5971 192.332 78.4715C192.261 78.426 192.2 78.3658 192.154 78.2949C192.109 78.224 192.078 78.144 192.066 78.0605C192.048 77.8872 192.098 77.7136 192.206 77.5769C192.43 77.3359 192.735 77.1875 193.062 77.161C193.634 77.0652 194.215 77.0344 194.793 77.0692C195.278 77.0346 195.762 77.1315 196.196 77.3496C196.342 77.4396 196.458 77.5693 196.533 77.7235C196.608 77.8777 196.637 78.05 196.616 78.22C196.573 78.4618 196.438 78.5344 196.433 78.5247C196.428 78.515 196.51 78.4183 196.52 78.2104C196.519 78.0658 196.48 77.9239 196.407 77.7991C196.334 77.6743 196.23 77.571 196.104 77.4995C195.689 77.3243 195.237 77.2562 194.789 77.3013C194.227 77.283 193.665 77.3187 193.111 77.4077C192.845 77.4281 192.595 77.541 192.405 77.7268C192.367 77.7645 192.339 77.81 192.321 77.8601C192.304 77.9101 192.297 77.9634 192.303 78.0162C192.308 78.069 192.326 78.1198 192.353 78.1651C192.381 78.2104 192.418 78.249 192.463 78.2781C192.669 78.3882 192.893 78.4587 193.125 78.486C193.352 78.5295 193.565 78.5634 193.759 78.5876C194.542 78.6843 195.035 78.6746 195.035 78.7133Z" fill="#EB996E"/>
<path d="M197.599 75.7103C196.501 75.4444 195.718 75.3332 194.62 75.0624C194.271 74.937 193.892 74.9269 193.537 75.0333C193.193 75.1736 192.981 75.6523 193.232 75.9231C193.327 76.0136 193.441 76.0814 193.566 76.1214L196.844 77.4076" fill="#FFBE9D"/>
<path d="M196.835 77.4077C196.396 77.3113 195.967 77.1753 195.553 77.0015L194.214 76.4937L193.406 76.1794C193.318 76.1475 193.238 76.0955 193.174 76.0275C193.109 75.9595 193.061 75.8774 193.034 75.7877C193.012 75.6949 193.009 75.5985 193.025 75.5045C193.042 75.4105 193.078 75.3209 193.13 75.2413C193.226 75.0826 193.372 74.9614 193.546 74.898C193.702 74.8464 193.866 74.825 194.03 74.8351C194.321 74.8711 194.609 74.9293 194.891 75.0092L196.307 75.338C196.75 75.4152 197.183 75.5401 197.599 75.7104C197.151 75.6776 196.706 75.6114 196.269 75.5121C195.863 75.4396 195.374 75.3573 194.818 75.2365C194.549 75.1635 194.274 75.1118 193.996 75.0817C193.865 75.0611 193.732 75.0779 193.61 75.1301C193.489 75.1823 193.384 75.2678 193.309 75.3767C193.244 75.48 193.219 75.6044 193.242 75.7249C193.261 75.779 193.292 75.8281 193.333 75.8684C193.374 75.9086 193.424 75.9389 193.479 75.957L194.267 76.2761L195.611 76.8322C196.037 76.9833 196.447 77.1761 196.835 77.4077Z" fill="#EB996E"/>
<path d="M198.295 73.9985L195.326 73.4618C194.968 73.358 194.587 73.3716 194.238 73.5005C193.909 73.6649 193.73 74.1533 193.996 74.4096C194.096 74.492 194.213 74.5514 194.339 74.5836L197.695 75.662" fill="#FFBE9D"/>
<path d="M197.695 75.662C197.252 75.5971 196.817 75.4902 196.394 75.3428L195.007 74.927L194.185 74.6707C194.094 74.6454 194.011 74.6001 193.941 74.5381C193.87 74.4762 193.815 74.3992 193.778 74.3128C193.749 74.2225 193.738 74.127 193.746 74.0322C193.754 73.9375 193.782 73.8454 193.827 73.7616C193.908 73.5944 194.044 73.461 194.214 73.3844C194.365 73.3146 194.53 73.2798 194.697 73.2828C194.99 73.2914 195.282 73.3303 195.568 73.3989L196.989 73.6842C197.432 73.752 197.867 73.8605 198.29 74.0082C197.843 74.001 197.398 73.9508 196.96 73.8583L195.51 73.6262C195.238 73.5676 194.961 73.5352 194.683 73.5295C194.552 73.5174 194.421 73.5435 194.305 73.6044C194.189 73.6654 194.094 73.7586 194.03 73.8728C193.706 74.4627 194.596 74.5063 195.055 74.7045L196.428 75.1881C196.864 75.3071 197.288 75.4657 197.695 75.662Z" fill="#EB996E"/>
<path d="M192.279 82.3594L183.333 101.47C182.916 102.363 182.279 103.137 181.483 103.718C180.686 104.3 179.756 104.671 178.778 104.797C177.523 104.957 176.25 104.706 175.15 104.082C174.05 103.458 173.181 102.494 172.675 101.334L166.002 86.0538L169.793 69.5642L178.739 88.7956L186.07 78.4086L192.279 82.3594Z" fill="#FF725E"/>
<path d="M176.128 95.2463C176.429 94.0909 176.815 92.9594 177.284 91.8614C177.67 90.7392 178.133 89.6453 178.671 88.5876C178.37 89.7428 177.984 90.8742 177.516 91.9726C177.13 93.0948 176.666 94.1887 176.128 95.2463Z" fill="#263238"/>
<path d="M174.146 111.634C174.119 111.5 174.101 111.365 174.093 111.228C174.068 110.938 174.03 110.541 173.986 110.048C173.894 108.994 173.769 107.514 173.614 105.696C173.295 102.002 172.855 96.9388 172.371 91.3488C171.888 85.7588 171.36 80.6765 170.954 77.0111C170.746 75.1978 170.577 73.7229 170.471 72.659C170.413 72.1755 170.364 71.7693 170.33 71.4792C170.308 71.3418 170.298 71.2025 170.301 71.0633C170.301 71.0633 170.335 71.2035 170.384 71.4695C170.432 71.7354 170.49 72.1513 170.567 72.6445C170.717 73.6649 170.92 75.1446 171.143 76.9724C171.593 80.633 172.11 85.7008 172.632 91.3053C173.154 96.9098 173.536 101.987 173.802 105.662C173.923 107.485 174.025 108.97 174.093 110.014C174.122 110.498 174.141 110.909 174.155 111.204C174.167 111.347 174.164 111.492 174.146 111.634Z" fill="#263238"/>
<path d="M153.812 110.188L154.978 112.606C154.978 112.606 157.289 112.882 158.247 113.327C159.204 113.772 162.642 116.765 162.642 116.765C162.527 117.003 162.333 117.193 162.093 117.304C161.853 117.414 161.582 117.437 161.327 117.369C160.567 116.94 159.84 116.455 159.151 115.919C158.96 115.951 158.781 116.03 158.629 116.15C158.477 116.269 158.357 116.424 158.28 116.601C158.204 116.778 158.172 116.972 158.189 117.164C158.206 117.357 158.271 117.542 158.377 117.703C159.064 118.728 159.852 119.923 159.929 120.121C160.007 120.319 161.525 120.953 162.666 121.407C162.814 121.471 162.937 121.58 163.019 121.718C163.102 121.856 163.139 122.016 163.125 122.176C163.112 122.336 163.049 122.488 162.945 122.61C162.841 122.732 162.701 122.819 162.545 122.858C162.479 122.878 162.409 122.878 162.342 122.858C162.342 122.858 162.894 124.018 160.892 123.685C160.892 123.685 159.567 124.589 158.537 124.033C158.537 124.033 156.646 124.458 155.809 124.178C154.973 123.898 151.506 119.009 151.506 119.009L148.488 113.544L153.812 110.188Z" fill="#FFBE9D"/>
<path d="M156.944 118.956C157.029 119.295 157.162 119.621 157.341 119.923C157.698 120.709 158.237 121.4 158.912 121.939C159.627 122.409 160.452 122.684 161.306 122.737C161.649 122.791 161.998 122.791 162.341 122.737C162.012 122.641 161.673 122.584 161.33 122.568C160.526 122.46 159.755 122.176 159.072 121.736C158.432 121.221 157.901 120.583 157.51 119.86C157.357 119.537 157.167 119.234 156.944 118.956Z" fill="#EB996E"/>
<path d="M155.959 120.082C155.989 120.408 156.097 120.721 156.273 120.996C156.432 121.308 156.614 121.607 156.82 121.891C157.065 122.253 157.381 122.562 157.748 122.8C158.128 122.994 158.529 123.143 158.943 123.245L159.91 123.501C160.209 123.604 160.522 123.664 160.838 123.68C160.568 123.516 160.274 123.394 159.968 123.317C159.692 123.221 159.363 123.109 159.001 122.998C158.609 122.89 158.23 122.743 157.869 122.558C157.533 122.339 157.241 122.058 157.008 121.731C156.798 121.466 156.604 121.188 156.428 120.899C156.128 120.406 156.012 120.073 155.959 120.082Z" fill="#EB996E"/>
<path d="M154.918 121.475C154.831 121.538 155.445 122.413 156.253 123.409C156.367 123.547 156.516 123.652 156.683 123.714C156.82 123.776 156.961 123.829 157.104 123.873C157.344 123.95 157.59 124.005 157.839 124.038C158.265 124.091 158.535 124.038 158.531 124.004C158.526 123.97 158.274 123.946 157.873 123.844C157.64 123.788 157.41 123.717 157.186 123.632C157.052 123.587 156.922 123.533 156.795 123.472C156.668 123.422 156.555 123.342 156.466 123.24C156.06 122.727 155.678 122.273 155.397 121.968C155.117 121.663 154.947 121.46 154.918 121.475Z" fill="#EB996E"/>
<path d="M169.068 64.4578C169.012 65.2606 168.892 66.0577 168.71 66.8418C168.61 67.6427 168.448 68.4349 168.227 69.2112C168.193 68.3992 168.266 67.5863 168.445 66.7934C168.55 65.991 168.76 65.2059 169.068 64.4578Z" fill="#263238"/>
<path d="M165.35 65.923C165.367 65.4557 165.468 64.9953 165.649 64.5642C165.754 64.108 165.939 63.6741 166.196 63.2827C166.173 63.7498 166.07 64.2094 165.891 64.6416C165.79 65.0979 165.606 65.5321 165.35 65.923Z" fill="#263238"/>
<path d="M162.612 64.5787C162.694 64.1499 162.859 63.741 163.096 63.3746C163.256 62.9694 163.494 62.5997 163.797 62.2866C163.717 62.7159 163.552 63.1251 163.313 63.4907C163.151 63.8944 162.913 64.2635 162.612 64.5787Z" fill="#263238"/>
<path d="M159.02 64.1628C159.273 63.6368 159.599 63.1486 159.987 62.7121C160.308 62.2245 160.697 61.7849 161.142 61.4065C160.892 61.9344 160.566 62.4231 160.175 62.8572C159.854 63.3448 159.465 63.7844 159.02 64.1628Z" fill="#263238"/>
<path d="M147.139 93.7086C146.861 93.5282 146.593 93.3329 146.336 93.1235C145.035 92.2106 143.47 91.7502 141.882 91.813C141.561 91.8521 141.238 91.8698 140.915 91.8662C141.221 91.7306 141.548 91.652 141.882 91.6341C142.695 91.5546 143.516 91.6317 144.3 91.8614C145.083 92.0926 145.814 92.4736 146.452 92.9833C146.724 93.1805 146.956 93.4265 147.139 93.7086Z" fill="#263238"/>
<path d="M144.541 87.5287C144.835 87.7132 145.097 87.9453 145.315 88.2153C146.447 89.4709 147.156 91.051 147.341 92.7318C147.401 93.0741 147.401 93.4243 147.341 93.7666C147.121 91.4365 146.138 89.2439 144.546 87.5287H144.541Z" fill="#263238"/>
<path d="M155.707 108.975C155.636 108.884 155.573 108.786 155.518 108.685L155.011 107.819L153.168 104.589C151.616 101.818 149.469 97.9881 147.042 93.6651L146.998 93.5829L147.061 93.5152L148.937 91.5422L158.865 81.1504L161.892 78.0169L162.724 77.1755C162.819 77.0751 162.92 76.9814 163.028 76.8951C162.947 77.0073 162.858 77.1139 162.762 77.2142L161.964 78.0846L158.99 81.2713C156.452 83.96 152.97 87.6447 149.121 91.7115L147.24 93.6893V93.5442C149.658 97.8963 151.761 101.726 153.294 104.507C154.039 105.88 154.643 106.987 155.074 107.775L155.557 108.66C155.617 108.76 155.668 108.865 155.707 108.975Z" fill="#263238"/>
<g opacity="0.3">
<path d="M151.074 89.4726L154.527 91.9484C155.017 91.69 155.445 91.3268 155.779 90.8846C158.374 87.2564 160.27 83.1764 161.369 78.8535L151.074 89.4726Z" fill="black"/>
</g>
<path d="M156.06 84.0373C155.998 83.3934 155.807 82.7686 155.499 82.1998C155.149 81.5978 154.684 81.0704 154.131 80.6475C153.443 80.1351 152.686 79.7232 151.882 79.4241C151.031 79.0808 150.185 78.8438 149.43 78.5392C148.746 78.2936 148.128 77.8912 147.627 77.3641C147.29 77.0028 147.062 76.5535 146.969 76.0682C146.923 75.8938 146.923 75.7106 146.969 75.5363C146.969 75.5363 146.969 75.7297 147.061 76.0488C147.188 76.4987 147.425 76.9094 147.752 77.2432C148.251 77.7311 148.852 78.1012 149.513 78.3264C150.248 78.6117 151.103 78.839 151.969 79.1872C152.795 79.4973 153.57 79.9275 154.271 80.4638C154.841 80.9126 155.31 81.476 155.649 82.1176C155.877 82.5492 156.022 83.0201 156.075 83.5054C156.103 83.6821 156.098 83.8624 156.06 84.0373Z" fill="#F5F5F5"/>
<path d="M171.873 86.194C171.656 86.1929 171.44 86.1784 171.225 86.1505C170.644 86.107 170.06 86.107 169.479 86.1505C168.739 86.2037 167.869 86.3294 166.897 86.4793C165.839 86.6605 164.769 86.7639 163.696 86.7888C162.607 86.8166 161.526 86.6053 160.528 86.1698C159.72 85.7886 159.026 85.2016 158.517 84.4677C158.173 83.9725 157.961 83.3987 157.898 82.7994C157.88 82.6387 157.88 82.4765 157.898 82.3158C157.898 82.2046 157.898 82.1514 157.927 82.1514C157.956 82.1514 157.927 82.3835 157.994 82.7897C158.092 83.3605 158.323 83.9003 158.667 84.3661C159.173 85.0566 159.849 85.6045 160.63 85.9571C161.598 86.3675 162.644 86.5638 163.696 86.5325C164.757 86.5117 165.815 86.4163 166.863 86.2472C167.83 86.1118 168.72 86.0006 169.469 85.9716C170.059 85.9419 170.65 85.9661 171.234 86.0441C171.453 86.0643 171.668 86.1147 171.873 86.194Z" fill="#F5F5F5"/>
<path d="M175.118 81.6872C174.756 82.3454 174.257 82.9178 173.653 83.3651C173.05 83.8124 172.357 84.1242 171.622 84.2791C171.622 84.2066 172.541 83.8826 173.503 83.1621C174.465 82.4416 175.055 81.6437 175.118 81.6872Z" fill="#F5F5F5"/>
<path d="M176.496 84.9464C175.993 85.7565 175.333 86.4578 174.554 87.0092C173.776 87.5606 172.896 87.951 171.965 88.1573C172.801 87.7518 173.61 87.2931 174.388 86.784C175.13 86.2185 175.834 85.6046 176.496 84.9464Z" fill="#F5F5F5"/>
<path d="M172.502 91.6196C171.635 91.1396 170.679 90.8417 169.692 90.7444C168.619 90.6573 167.54 90.6573 166.467 90.7444C165.141 90.855 163.807 90.8453 162.483 90.7153C160.068 90.4495 157.732 89.6926 155.621 88.4909C154.985 88.1275 154.374 87.722 153.793 87.2772C153.574 87.1206 153.37 86.9441 153.184 86.7501C153.417 86.8831 153.64 87.0334 153.851 87.1998C154.45 87.6095 155.07 87.9888 155.708 88.3362C157.816 89.4782 160.124 90.2023 162.507 90.4687C163.82 90.5936 165.142 90.6082 166.457 90.5122C167.541 90.4325 168.63 90.447 169.712 90.5558C170.446 90.6399 171.161 90.8493 171.825 91.1747C172.004 91.2617 172.176 91.3636 172.338 91.4794C172.454 91.5567 172.507 91.6196 172.502 91.6196Z" fill="#F5F5F5"/>
<path d="M154.077 85.6911C154.055 85.8062 154.02 85.9182 153.971 86.0248L153.937 86.1166L153.898 86.0248C153.569 85.3312 153.02 84.7654 152.337 84.4145C151.811 84.1321 151.254 83.9114 150.678 83.7568C150.054 83.5683 149.363 83.4087 148.666 83.1572C147.182 82.6148 145.863 81.6987 144.836 80.4976C144.528 80.1378 144.253 79.751 144.014 79.3419C143.914 79.1937 143.837 79.0305 143.787 78.8583C143.826 78.8293 144.174 79.4918 144.972 80.3671C146.013 81.5064 147.311 82.3802 148.758 82.9154C149.435 83.1621 150.122 83.3265 150.755 83.5247C151.345 83.6898 151.912 83.9287 152.443 84.2356C153.151 84.6143 153.696 85.2385 153.976 85.9909H153.903C154.01 85.783 154.077 85.6863 154.077 85.6911Z" fill="#F5F5F5"/>
<path d="M222.773 208.874C222.773 208.942 172.965 209 111.504 209C50.0434 209 0.226562 208.942 0.226562 208.874C0.226562 208.807 50.0337 208.749 111.504 208.749C172.975 208.749 222.773 208.807 222.773 208.874Z" fill="#263238"/>
</svg>
