<svg width="127" height="20" viewBox="0 0 127 20" fill="none" xmlns="http://www.w3.org/2000/svg">
<path d="M7.16477 19.2557C5.81818 19.2557 4.65909 18.983 3.6875 18.4375C2.72159 17.8864 1.97727 17.108 1.45455 16.1023C0.931818 15.0909 0.670455 13.8949 0.670455 12.5142C0.670455 11.1676 0.931818 9.9858 1.45455 8.96875C1.97727 7.9517 2.71307 7.15909 3.66193 6.59091C4.61648 6.02273 5.7358 5.73864 7.01989 5.73864C7.88352 5.73864 8.6875 5.87784 9.43182 6.15625C10.1818 6.42898 10.8352 6.84091 11.392 7.39205C11.9545 7.94318 12.392 8.63636 12.7045 9.47159C13.017 10.3011 13.1733 11.2727 13.1733 12.3864V13.3835H2.11932V11.1335H9.75568C9.75568 10.6108 9.64205 10.1477 9.41477 9.74432C9.1875 9.34091 8.87216 9.02557 8.46875 8.7983C8.07102 8.56534 7.60795 8.44886 7.07955 8.44886C6.52841 8.44886 6.03977 8.5767 5.61364 8.83239C5.19318 9.08239 4.86364 9.42045 4.625 9.84659C4.38636 10.267 4.2642 10.7358 4.25852 11.2528V13.392C4.25852 14.0398 4.37784 14.5994 4.61648 15.071C4.8608 15.5426 5.20455 15.9062 5.64773 16.1619C6.09091 16.4176 6.61648 16.5455 7.22443 16.5455C7.62784 16.5455 7.99716 16.4886 8.33239 16.375C8.66761 16.2614 8.95455 16.0909 9.19318 15.8636C9.43182 15.6364 9.61364 15.358 9.73864 15.0284L13.0966 15.25C12.9261 16.0568 12.5767 16.7614 12.0483 17.3636C11.5256 17.9602 10.8494 18.4261 10.0199 18.7614C9.19602 19.0909 8.24432 19.2557 7.16477 19.2557ZM27.3956 5.90909L22.8189 19H18.728L14.1513 5.90909H17.9865L20.7053 15.2756H20.8416L23.5518 5.90909H27.3956ZM34.7976 19.2557C33.451 19.2557 32.2919 18.983 31.3203 18.4375C30.3544 17.8864 29.6101 17.108 29.0874 16.1023C28.5646 15.0909 28.3033 13.8949 28.3033 12.5142C28.3033 11.1676 28.5646 9.9858 29.0874 8.96875C29.6101 7.9517 30.3459 7.15909 31.2947 6.59091C32.2493 6.02273 33.3686 5.73864 34.6527 5.73864C35.5163 5.73864 36.3203 5.87784 37.0646 6.15625C37.8146 6.42898 38.468 6.84091 39.0249 7.39205C39.5874 7.94318 40.0249 8.63636 40.3374 9.47159C40.6499 10.3011 40.8061 11.2727 40.8061 12.3864V13.3835H29.7521V11.1335H37.3885C37.3885 10.6108 37.2749 10.1477 37.0476 9.74432C36.8203 9.34091 36.505 9.02557 36.1016 8.7983C35.7038 8.56534 35.2408 8.44886 34.7124 8.44886C34.1612 8.44886 33.6726 8.5767 33.2464 8.83239C32.826 9.08239 32.4964 9.42045 32.2578 9.84659C32.0192 10.267 31.897 10.7358 31.8913 11.2528V13.392C31.8913 14.0398 32.0107 14.5994 32.2493 15.071C32.4936 15.5426 32.8374 15.9062 33.2805 16.1619C33.7237 16.4176 34.2493 16.5455 34.8572 16.5455C35.2607 16.5455 35.63 16.4886 35.9652 16.375C36.3004 16.2614 36.5874 16.0909 36.826 15.8636C37.0646 15.6364 37.2464 15.358 37.3714 15.0284L40.7294 15.25C40.5589 16.0568 40.2095 16.7614 39.6811 17.3636C39.1584 17.9602 38.4822 18.4261 37.6527 18.7614C36.8288 19.0909 35.8771 19.2557 34.7976 19.2557ZM46.8061 11.4318V19H43.1754V5.90909H46.6357V8.21875H46.7891C47.0788 7.45739 47.5646 6.85511 48.2464 6.41193C48.9283 5.96307 49.755 5.73864 50.7266 5.73864C51.6357 5.73864 52.4283 5.9375 53.1044 6.33523C53.7805 6.73295 54.3061 7.30114 54.6811 8.03977C55.0561 8.77273 55.2436 9.64773 55.2436 10.6648V19H51.6129V11.3125C51.6186 10.5114 51.4141 9.88636 50.9993 9.4375C50.5845 8.98295 50.0135 8.75568 49.2862 8.75568C48.7976 8.75568 48.3658 8.8608 47.9908 9.07102C47.6214 9.28125 47.3317 9.58807 47.1214 9.99148C46.9169 10.3892 46.8118 10.8693 46.8061 11.4318ZM65.0682 5.90909V8.63636H57.1847V5.90909H65.0682ZM58.9744 2.77273H62.6051V14.9773C62.6051 15.3125 62.6563 15.5739 62.7585 15.7614C62.8608 15.9432 63.0028 16.071 63.1847 16.1449C63.3722 16.2187 63.5881 16.2557 63.8324 16.2557C64.0028 16.2557 64.1733 16.2415 64.3438 16.2131C64.5142 16.179 64.6449 16.1534 64.7358 16.1364L65.3068 18.8381C65.125 18.8949 64.8693 18.9602 64.5398 19.0341C64.2102 19.1136 63.8097 19.1619 63.3381 19.179C62.4631 19.2131 61.696 19.0966 61.0369 18.8295C60.3835 18.5625 59.875 18.1477 59.5114 17.5852C59.1477 17.0227 58.9688 16.3125 58.9744 15.4545V2.77273ZM67.7827 19V1.54545H71.4134V8.10795H71.5241C71.6832 7.75568 71.9134 7.39773 72.2145 7.03409C72.5213 6.66477 72.919 6.35795 73.4077 6.11364C73.902 5.86364 74.5156 5.73864 75.2486 5.73864C76.2031 5.73864 77.0838 5.98864 77.8906 6.48864C78.6974 6.98295 79.3423 7.73011 79.8253 8.73011C80.3082 9.72443 80.5497 10.9716 80.5497 12.4716C80.5497 13.9318 80.3139 15.1648 79.8423 16.1705C79.3764 17.1705 78.7401 17.929 77.9332 18.446C77.1321 18.9574 76.2344 19.2131 75.2401 19.2131C74.5355 19.2131 73.9361 19.0966 73.4418 18.8636C72.9531 18.6307 72.5526 18.3381 72.2401 17.9858C71.9276 17.6278 71.6889 17.267 71.5241 16.9034H71.3622V19H67.7827ZM71.3366 12.4545C71.3366 13.233 71.4446 13.9119 71.6605 14.4915C71.8764 15.071 72.1889 15.5227 72.598 15.8466C73.0071 16.1648 73.5043 16.3239 74.0895 16.3239C74.6804 16.3239 75.1804 16.1619 75.5895 15.8381C75.9986 15.5085 76.3082 15.054 76.5185 14.4744C76.7344 13.8892 76.8423 13.2159 76.8423 12.4545C76.8423 11.6989 76.7372 11.0341 76.527 10.4602C76.3168 9.88636 76.0071 9.4375 75.598 9.11364C75.1889 8.78977 74.6861 8.62784 74.0895 8.62784C73.4986 8.62784 72.9986 8.78409 72.5895 9.09659C72.1861 9.40909 71.8764 9.85227 71.6605 10.4261C71.4446 11 71.3366 11.6761 71.3366 12.4545ZM82.9723 19V5.90909H86.4922V8.19318H86.6286C86.8672 7.38068 87.2678 6.76705 87.8303 6.35227C88.3928 5.93182 89.0405 5.72159 89.7734 5.72159C89.9553 5.72159 90.1513 5.73295 90.3615 5.75568C90.5717 5.77841 90.7564 5.80966 90.9155 5.84943V9.07102C90.745 9.01989 90.5092 8.97443 90.2081 8.93466C89.907 8.89489 89.6314 8.875 89.3814 8.875C88.8473 8.875 88.37 8.99148 87.9496 9.22443C87.5348 9.4517 87.2053 9.76989 86.9609 10.179C86.7223 10.5881 86.603 11.0597 86.603 11.5938V19H82.9723ZM92.7926 19V5.90909H96.4233V19H92.7926ZM94.6165 4.22159C94.0767 4.22159 93.6136 4.04261 93.2273 3.68466C92.8466 3.32102 92.6562 2.88636 92.6562 2.38068C92.6562 1.88068 92.8466 1.4517 93.2273 1.09375C93.6136 0.730113 94.0767 0.548295 94.6165 0.548295C95.1563 0.548295 95.6165 0.730113 95.9972 1.09375C96.3835 1.4517 96.5767 1.88068 96.5767 2.38068C96.5767 2.88636 96.3835 3.32102 95.9972 3.68466C95.6165 4.04261 95.1563 4.22159 94.6165 4.22159ZM104.156 19.2131C103.161 19.2131 102.261 18.9574 101.454 18.446C100.653 17.929 100.016 17.1705 99.5447 16.1705C99.0788 15.1648 98.8459 13.9318 98.8459 12.4716C98.8459 10.9716 99.0874 9.72443 99.5703 8.73011C100.053 7.73011 100.695 6.98295 101.496 6.48864C102.303 5.98864 103.187 5.73864 104.147 5.73864C104.88 5.73864 105.491 5.86364 105.979 6.11364C106.474 6.35795 106.871 6.66477 107.173 7.03409C107.479 7.39773 107.712 7.75568 107.871 8.10795H107.982V1.54545H111.604V19H108.025V16.9034H107.871C107.701 17.267 107.46 17.6278 107.147 17.9858C106.84 18.3381 106.44 18.6307 105.945 18.8636C105.457 19.0966 104.86 19.2131 104.156 19.2131ZM105.306 16.3239C105.891 16.3239 106.386 16.1648 106.789 15.8466C107.198 15.5227 107.511 15.071 107.727 14.4915C107.948 13.9119 108.059 13.233 108.059 12.4545C108.059 11.6761 107.951 11 107.735 10.4261C107.519 9.85227 107.207 9.40909 106.798 9.09659C106.388 8.78409 105.891 8.62784 105.306 8.62784C104.71 8.62784 104.207 8.78977 103.798 9.11364C103.388 9.4375 103.079 9.88636 102.869 10.4602C102.658 11.0341 102.553 11.6989 102.553 12.4545C102.553 13.2159 102.658 13.8892 102.869 14.4744C103.085 15.054 103.394 15.5085 103.798 15.8381C104.207 16.1619 104.71 16.3239 105.306 16.3239ZM120.555 19.2557C119.209 19.2557 118.05 18.983 117.078 18.4375C116.112 17.8864 115.368 17.108 114.845 16.1023C114.322 15.0909 114.061 13.8949 114.061 12.5142C114.061 11.1676 114.322 9.9858 114.845 8.96875C115.368 7.9517 116.104 7.15909 117.053 6.59091C118.007 6.02273 119.126 5.73864 120.411 5.73864C121.274 5.73864 122.078 5.87784 122.822 6.15625C123.572 6.42898 124.226 6.84091 124.783 7.39205C125.345 7.94318 125.783 8.63636 126.095 9.47159C126.408 10.3011 126.564 11.2727 126.564 12.3864V13.3835H115.51V11.1335H123.146C123.146 10.6108 123.033 10.1477 122.805 9.74432C122.578 9.34091 122.263 9.02557 121.859 8.7983C121.462 8.56534 120.999 8.44886 120.47 8.44886C119.919 8.44886 119.43 8.5767 119.004 8.83239C118.584 9.08239 118.254 9.42045 118.016 9.84659C117.777 10.267 117.655 10.7358 117.649 11.2528V13.392C117.649 14.0398 117.768 14.5994 118.007 15.071C118.251 15.5426 118.595 15.9062 119.038 16.1619C119.482 16.4176 120.007 16.5455 120.615 16.5455C121.018 16.5455 121.388 16.4886 121.723 16.375C122.058 16.2614 122.345 16.0909 122.584 15.8636C122.822 15.6364 123.004 15.358 123.129 15.0284L126.487 15.25C126.317 16.0568 125.967 16.7614 125.439 17.3636C124.916 17.9602 124.24 18.4261 123.411 18.7614C122.587 19.0909 121.635 19.2557 120.555 19.2557Z" fill="black"/>
</svg>
