<svg width="127" height="20" viewBox="0 0 127 20" fill="none" xmlns="http://www.w3.org/2000/svg">
<path d="M7.41477 19.2557C6.06818 19.2557 4.90909 18.983 3.9375 18.4375C2.97159 17.8864 2.22727 17.108 1.70455 16.1023C1.18182 15.0909 0.920455 13.8949 0.920455 12.5142C0.920455 11.1676 1.18182 9.9858 1.70455 8.96875C2.22727 7.9517 2.96307 7.15909 3.91193 6.59091C4.86648 6.02273 5.9858 5.73864 7.26989 5.73864C8.13352 5.73864 8.9375 5.87784 9.68182 6.15625C10.4318 6.42898 11.0852 6.84091 11.642 7.39205C12.2045 7.94318 12.642 8.63636 12.9545 9.47159C13.267 10.3011 13.4233 11.2727 13.4233 12.3864V13.3835H2.36932V11.1335H10.0057C10.0057 10.6108 9.89205 10.1477 9.66477 9.74432C9.4375 9.34091 9.12216 9.02557 8.71875 8.7983C8.32102 8.56534 7.85795 8.44886 7.32955 8.44886C6.77841 8.44886 6.28977 8.5767 5.86364 8.83239C5.44318 9.08239 5.11364 9.42045 4.875 9.84659C4.63636 10.267 4.5142 10.7358 4.50852 11.2528V13.392C4.50852 14.0398 4.62784 14.5994 4.86648 15.071C5.1108 15.5426 5.45455 15.9062 5.89773 16.1619C6.34091 16.4176 6.86648 16.5455 7.47443 16.5455C7.87784 16.5455 8.24716 16.4886 8.58239 16.375C8.91761 16.2614 9.20455 16.0909 9.44318 15.8636C9.68182 15.6364 9.86364 15.358 9.98864 15.0284L13.3466 15.25C13.1761 16.0568 12.8267 16.7614 12.2983 17.3636C11.7756 17.9602 11.0994 18.4261 10.2699 18.7614C9.44602 19.0909 8.49432 19.2557 7.41477 19.2557ZM27.6456 5.90909L23.0689 19H18.978L14.4013 5.90909H18.2365L20.9553 15.2756H21.0916L23.8018 5.90909H27.6456ZM35.0476 19.2557C33.701 19.2557 32.5419 18.983 31.5703 18.4375C30.6044 17.8864 29.8601 17.108 29.3374 16.1023C28.8146 15.0909 28.5533 13.8949 28.5533 12.5142C28.5533 11.1676 28.8146 9.9858 29.3374 8.96875C29.8601 7.9517 30.5959 7.15909 31.5447 6.59091C32.4993 6.02273 33.6186 5.73864 34.9027 5.73864C35.7663 5.73864 36.5703 5.87784 37.3146 6.15625C38.0646 6.42898 38.718 6.84091 39.2749 7.39205C39.8374 7.94318 40.2749 8.63636 40.5874 9.47159C40.8999 10.3011 41.0561 11.2727 41.0561 12.3864V13.3835H30.0021V11.1335H37.6385C37.6385 10.6108 37.5249 10.1477 37.2976 9.74432C37.0703 9.34091 36.755 9.02557 36.3516 8.7983C35.9538 8.56534 35.4908 8.44886 34.9624 8.44886C34.4112 8.44886 33.9226 8.5767 33.4964 8.83239C33.076 9.08239 32.7464 9.42045 32.5078 9.84659C32.2692 10.267 32.147 10.7358 32.1413 11.2528V13.392C32.1413 14.0398 32.2607 14.5994 32.4993 15.071C32.7436 15.5426 33.0874 15.9062 33.5305 16.1619C33.9737 16.4176 34.4993 16.5455 35.1072 16.5455C35.5107 16.5455 35.88 16.4886 36.2152 16.375C36.5504 16.2614 36.8374 16.0909 37.076 15.8636C37.3146 15.6364 37.4964 15.358 37.6214 15.0284L40.9794 15.25C40.8089 16.0568 40.4595 16.7614 39.9311 17.3636C39.4084 17.9602 38.7322 18.4261 37.9027 18.7614C37.0788 19.0909 36.1271 19.2557 35.0476 19.2557ZM47.0561 11.4318V19H43.4254V5.90909H46.8857V8.21875H47.0391C47.3288 7.45739 47.8146 6.85511 48.4964 6.41193C49.1783 5.96307 50.005 5.73864 50.9766 5.73864C51.8857 5.73864 52.6783 5.9375 53.3544 6.33523C54.0305 6.73295 54.5561 7.30114 54.9311 8.03977C55.3061 8.77273 55.4936 9.64773 55.4936 10.6648V19H51.8629V11.3125C51.8686 10.5114 51.6641 9.88636 51.2493 9.4375C50.8345 8.98295 50.2635 8.75568 49.5362 8.75568C49.0476 8.75568 48.6158 8.8608 48.2408 9.07102C47.8714 9.28125 47.5817 9.58807 47.3714 9.99148C47.1669 10.3892 47.0618 10.8693 47.0561 11.4318ZM65.3182 5.90909V8.63636H57.4347V5.90909H65.3182ZM59.2244 2.77273H62.8551V14.9773C62.8551 15.3125 62.9063 15.5739 63.0085 15.7614C63.1108 15.9432 63.2528 16.071 63.4347 16.1449C63.6222 16.2187 63.8381 16.2557 64.0824 16.2557C64.2528 16.2557 64.4233 16.2415 64.5938 16.2131C64.7642 16.179 64.8949 16.1534 64.9858 16.1364L65.5568 18.8381C65.375 18.8949 65.1193 18.9602 64.7898 19.0341C64.4602 19.1136 64.0597 19.1619 63.5881 19.179C62.7131 19.2131 61.946 19.0966 61.2869 18.8295C60.6335 18.5625 60.125 18.1477 59.7614 17.5852C59.3977 17.0227 59.2188 16.3125 59.2244 15.4545V2.77273ZM68.0327 19V1.54545H71.6634V8.10795H71.7741C71.9332 7.75568 72.1634 7.39773 72.4645 7.03409C72.7713 6.66477 73.169 6.35795 73.6577 6.11364C74.152 5.86364 74.7656 5.73864 75.4986 5.73864C76.4531 5.73864 77.3338 5.98864 78.1406 6.48864C78.9474 6.98295 79.5923 7.73011 80.0753 8.73011C80.5582 9.72443 80.7997 10.9716 80.7997 12.4716C80.7997 13.9318 80.5639 15.1648 80.0923 16.1705C79.6264 17.1705 78.9901 17.929 78.1832 18.446C77.3821 18.9574 76.4844 19.2131 75.4901 19.2131C74.7855 19.2131 74.1861 19.0966 73.6918 18.8636C73.2031 18.6307 72.8026 18.3381 72.4901 17.9858C72.1776 17.6278 71.9389 17.267 71.7741 16.9034H71.6122V19H68.0327ZM71.5866 12.4545C71.5866 13.233 71.6946 13.9119 71.9105 14.4915C72.1264 15.071 72.4389 15.5227 72.848 15.8466C73.2571 16.1648 73.7543 16.3239 74.3395 16.3239C74.9304 16.3239 75.4304 16.1619 75.8395 15.8381C76.2486 15.5085 76.5582 15.054 76.7685 14.4744C76.9844 13.8892 77.0923 13.2159 77.0923 12.4545C77.0923 11.6989 76.9872 11.0341 76.777 10.4602C76.5668 9.88636 76.2571 9.4375 75.848 9.11364C75.4389 8.78977 74.9361 8.62784 74.3395 8.62784C73.7486 8.62784 73.2486 8.78409 72.8395 9.09659C72.4361 9.40909 72.1264 9.85227 71.9105 10.4261C71.6946 11 71.5866 11.6761 71.5866 12.4545ZM83.2223 19V5.90909H86.7422V8.19318H86.8786C87.1172 7.38068 87.5178 6.76705 88.0803 6.35227C88.6428 5.93182 89.2905 5.72159 90.0234 5.72159C90.2053 5.72159 90.4013 5.73295 90.6115 5.75568C90.8217 5.77841 91.0064 5.80966 91.1655 5.84943V9.07102C90.995 9.01989 90.7592 8.97443 90.4581 8.93466C90.157 8.89489 89.8814 8.875 89.6314 8.875C89.0973 8.875 88.62 8.99148 88.1996 9.22443C87.7848 9.4517 87.4553 9.76989 87.2109 10.179C86.9723 10.5881 86.853 11.0597 86.853 11.5938V19H83.2223ZM93.0426 19V5.90909H96.6733V19H93.0426ZM94.8665 4.22159C94.3267 4.22159 93.8636 4.04261 93.4773 3.68466C93.0966 3.32102 92.9062 2.88636 92.9062 2.38068C92.9062 1.88068 93.0966 1.4517 93.4773 1.09375C93.8636 0.730113 94.3267 0.548295 94.8665 0.548295C95.4063 0.548295 95.8665 0.730113 96.2472 1.09375C96.6335 1.4517 96.8267 1.88068 96.8267 2.38068C96.8267 2.88636 96.6335 3.32102 96.2472 3.68466C95.8665 4.04261 95.4063 4.22159 94.8665 4.22159ZM104.406 19.2131C103.411 19.2131 102.511 18.9574 101.704 18.446C100.903 17.929 100.266 17.1705 99.7947 16.1705C99.3288 15.1648 99.0959 13.9318 99.0959 12.4716C99.0959 10.9716 99.3374 9.72443 99.8203 8.73011C100.303 7.73011 100.945 6.98295 101.746 6.48864C102.553 5.98864 103.437 5.73864 104.397 5.73864C105.13 5.73864 105.741 5.86364 106.229 6.11364C106.724 6.35795 107.121 6.66477 107.423 7.03409C107.729 7.39773 107.962 7.75568 108.121 8.10795H108.232V1.54545H111.854V19H108.275V16.9034H108.121C107.951 17.267 107.71 17.6278 107.397 17.9858C107.09 18.3381 106.69 18.6307 106.195 18.8636C105.707 19.0966 105.11 19.2131 104.406 19.2131ZM105.556 16.3239C106.141 16.3239 106.636 16.1648 107.039 15.8466C107.448 15.5227 107.761 15.071 107.977 14.4915C108.198 13.9119 108.309 13.233 108.309 12.4545C108.309 11.6761 108.201 11 107.985 10.4261C107.769 9.85227 107.457 9.40909 107.048 9.09659C106.638 8.78409 106.141 8.62784 105.556 8.62784C104.96 8.62784 104.457 8.78977 104.048 9.11364C103.638 9.4375 103.329 9.88636 103.119 10.4602C102.908 11.0341 102.803 11.6989 102.803 12.4545C102.803 13.2159 102.908 13.8892 103.119 14.4744C103.335 15.054 103.644 15.5085 104.048 15.8381C104.457 16.1619 104.96 16.3239 105.556 16.3239ZM120.805 19.2557C119.459 19.2557 118.3 18.983 117.328 18.4375C116.362 17.8864 115.618 17.108 115.095 16.1023C114.572 15.0909 114.311 13.8949 114.311 12.5142C114.311 11.1676 114.572 9.9858 115.095 8.96875C115.618 7.9517 116.354 7.15909 117.303 6.59091C118.257 6.02273 119.376 5.73864 120.661 5.73864C121.524 5.73864 122.328 5.87784 123.072 6.15625C123.822 6.42898 124.476 6.84091 125.033 7.39205C125.595 7.94318 126.033 8.63636 126.345 9.47159C126.658 10.3011 126.814 11.2727 126.814 12.3864V13.3835H115.76V11.1335H123.396C123.396 10.6108 123.283 10.1477 123.055 9.74432C122.828 9.34091 122.513 9.02557 122.109 8.7983C121.712 8.56534 121.249 8.44886 120.72 8.44886C120.169 8.44886 119.68 8.5767 119.254 8.83239C118.834 9.08239 118.504 9.42045 118.266 9.84659C118.027 10.267 117.905 10.7358 117.899 11.2528V13.392C117.899 14.0398 118.018 14.5994 118.257 15.071C118.501 15.5426 118.845 15.9062 119.288 16.1619C119.732 16.4176 120.257 16.5455 120.865 16.5455C121.268 16.5455 121.638 16.4886 121.973 16.375C122.308 16.2614 122.595 16.0909 122.834 15.8636C123.072 15.6364 123.254 15.358 123.379 15.0284L126.737 15.25C126.567 16.0568 126.217 16.7614 125.689 17.3636C125.166 17.9602 124.49 18.4261 123.661 18.7614C122.837 19.0909 121.885 19.2557 120.805 19.2557Z" fill="white"/>
</svg>
