<svg width="20" height="20" viewBox="0 0 20 20" fill="none" xmlns="http://www.w3.org/2000/svg">
<path d="M11.8961 2.96325C11.9173 2.88393 11.954 2.80956 12.0039 2.74441C12.0539 2.67926 12.1162 2.62458 12.1873 2.58352C12.2584 2.54245 12.3369 2.5158 12.4183 2.50509C12.4997 2.49437 12.5824 2.4998 12.6617 2.52106C13.8204 2.82336 14.8775 3.42906 15.7242 4.27577C16.5709 5.12249 17.1766 6.1796 17.4789 7.33825C17.5002 7.41755 17.5056 7.50027 17.4949 7.58168C17.4842 7.66308 17.4575 7.74158 17.4165 7.81268C17.3754 7.88378 17.3207 7.94609 17.2556 7.99605C17.1904 8.04602 17.116 8.08266 17.0367 8.10387C16.9839 8.11774 16.9296 8.12483 16.875 8.12496C16.7373 8.12496 16.6034 8.07946 16.4942 7.99554C16.385 7.91163 16.3066 7.79398 16.2711 7.6609C16.0245 6.71506 15.5302 5.85208 14.8391 5.16092C14.1479 4.46976 13.2849 3.97542 12.3391 3.72887C12.2597 3.70774 12.1852 3.67116 12.12 3.62123C12.0548 3.57131 12 3.509 11.9589 3.4379C11.9177 3.36679 11.891 3.28826 11.8802 3.20682C11.8695 3.12537 11.8749 3.0426 11.8961 2.96325ZM11.7141 6.22887C12.7914 6.51637 13.4836 7.20856 13.7711 8.2859C13.8066 8.41898 13.885 8.53663 13.9942 8.62054C14.1034 8.70446 14.2373 8.74996 14.375 8.74996C14.4296 8.74983 14.4839 8.74274 14.5367 8.72887C14.616 8.70766 14.6904 8.67102 14.7556 8.62105C14.8207 8.57109 14.8754 8.50878 14.9165 8.43768C14.9575 8.36658 14.9842 8.28808 14.9949 8.20668C15.0056 8.12527 15.0002 8.04255 14.9789 7.96325C14.5789 6.46637 13.5336 5.42106 12.0367 5.02106C11.9574 4.99987 11.8747 4.99451 11.7933 5.00529C11.712 5.01607 11.6335 5.04276 11.5624 5.08386C11.4914 5.12496 11.4291 5.17965 11.3792 5.24481C11.3293 5.30997 11.2927 5.38433 11.2715 5.46364C11.2503 5.54294 11.2449 5.62564 11.2557 5.70702C11.2665 5.7884 11.2932 5.86686 11.3343 5.93791C11.3754 6.00897 11.4301 6.07124 11.4952 6.12116C11.5604 6.17109 11.6348 6.20768 11.7141 6.22887ZM18.1156 13.6781C17.9763 14.7367 17.4564 15.7084 16.6531 16.4117C15.8497 17.1151 14.8177 17.5019 13.75 17.5C7.54688 17.5 2.50001 12.4531 2.50001 6.24996C2.49809 5.18222 2.88492 4.15029 3.58824 3.34691C4.29155 2.54353 5.26326 2.02364 6.32188 1.88434C6.58958 1.85165 6.86067 1.90642 7.09468 2.04046C7.3287 2.17451 7.51309 2.38064 7.62032 2.62809L9.27032 6.31168V6.32106C9.35242 6.51047 9.38633 6.71728 9.36901 6.92299C9.3517 7.12871 9.2837 7.32693 9.1711 7.49996C9.15704 7.52106 9.14219 7.54059 9.12657 7.56012L7.50001 9.48825C8.08516 10.6773 9.32891 11.9101 10.5336 12.4968L12.4352 10.8789C12.4538 10.8632 12.4734 10.8486 12.4938 10.8351C12.6666 10.7198 12.8655 10.6494 13.0725 10.6303C13.2794 10.6112 13.4878 10.644 13.6789 10.7257L13.6891 10.7304L17.3695 12.3797C17.6174 12.4865 17.8241 12.6707 17.9585 12.9048C18.093 13.1388 18.1481 13.4101 18.1156 13.6781ZM16.875 13.5218C16.875 13.5218 16.8695 13.5218 16.8664 13.5218L13.1945 11.8773L11.2922 13.4953C11.2737 13.5109 11.2544 13.5255 11.2344 13.539C11.0545 13.659 10.8466 13.7303 10.6309 13.7459C10.4152 13.7615 10.1992 13.7209 10.0039 13.6281C8.54063 12.9211 7.08204 11.4734 6.37423 10.0257C6.2805 9.83188 6.23844 9.6171 6.25213 9.4022C6.26582 9.1873 6.33478 8.97959 6.45235 8.79918C6.4656 8.778 6.48049 8.75789 6.49688 8.73903L8.12501 6.80856L6.48438 3.13668C6.48407 3.13357 6.48407 3.13043 6.48438 3.12731C5.72677 3.22613 5.03116 3.59775 4.52783 4.17255C4.0245 4.74736 3.74796 5.48593 3.75001 6.24996C3.7529 8.90124 4.8074 11.4431 6.68214 13.3178C8.55687 15.1926 11.0987 16.2471 13.75 16.25C14.5136 16.2526 15.2519 15.977 15.8271 15.4748C16.4022 14.9725 16.7747 14.278 16.875 13.5211V13.5218Z" fill="white"/>
</svg>
