<svg width="12" height="13" viewBox="0 0 12 13" fill="none" xmlns="http://www.w3.org/2000/svg">
<g clip-path="url(#clip0_312_2799)">
<path d="M10.9286 5.59532H7.28572C7.16738 5.59532 7.07143 5.49937 7.07143 5.38103V1.73818C7.07143 1.14648 6.59169 0.666748 6 0.666748C5.40831 0.666748 4.92857 1.14648 4.92857 1.73818V5.38103C4.92857 5.49937 4.83262 5.59532 4.71429 5.59532H1.07143C0.479736 5.59532 0 6.07506 0 6.66675C0 7.25844 0.479736 7.73818 1.07143 7.73818H4.71429C4.83262 7.73818 4.92857 7.83412 4.92857 7.95246V11.5953C4.92857 12.187 5.40831 12.6667 6 12.6667C6.59169 12.6667 7.07143 12.187 7.07143 11.5953V7.95246C7.07143 7.83412 7.16738 7.73818 7.28572 7.73818H10.9286C11.5203 7.73818 12 7.25844 12 6.66675C12 6.07506 11.5203 5.59532 10.9286 5.59532Z" fill="#026CDF"/>
</g>
<defs>
<clipPath id="clip0_312_2799">
<rect width="12" height="12" fill="white" transform="translate(0 0.666748)"/>
</clipPath>
</defs>
</svg>
